<?xml version="1.0" encoding="UTF-8"?>
<svg id="_图层_1" data-name="图层_1" xmlns="http://www.w3.org/2000/svg" version="1.1" viewBox="0 0 24 24">
  <!-- Generator: Adobe Illustrator 29.1.0, SVG Export Plug-In . SVG Version: 2.1.0 Build 142)  -->
  <defs>
    <style>
      .st0 {
        fill: #e50012;
      }
    </style>
  </defs>
  <path id="logo" class="st0" d="M21.8,5.4L12.8.2c-.5-.3-1.2-.3-1.7,0L2.2,5.4c-.5.3-.8.9-.8,1.5v10.3c0,.5.4,1.2.8,1.5l9,5.2c.5.3,1.2.3,1.7,0l9-5.2c.5-.3.8-.9.8-1.5V6.8c0-.6-.4-1.2-.9-1.5ZM19.4,13.2c-.2.3-.6.3-.9.1-.2-.2-.6-.3-.9-.4v2.6c0,1.2-1,2.1-2.1,2.1H5.4c-.3,0-.7-.3-.7-.7s.3-.7.7-.7h3.4V5.8c0-.3.3-.7.7-.7s.7.3.7.7v1.7h5.5c1.2,0,2.1,1,2.1,2.1v2c.5,0,1.2.3,1.7.7.3.3.3.7.1,1ZM16.4,9.6v1.9h-6.3v-2.7h5.5c.4,0,.8.4.8.8ZM10.1,12.8h6.3v2.7c0,.5-.4.8-.8.8h-5.5v-3.5Z"/>
</svg>