<svg version="1.1" id="图层_1" xmlns="http://www.w3.org/2000/svg" xmlns:xlink="http://www.w3.org/1999/xlink" x="0px" y="0px"
	 viewBox="0 0 800 120" style="enable-background:new 0 0 800 120;" xml:space="preserve">
<style type="text/css">
	.st0{fill:#E50012;}
	.st1{display:none;}
	.st2{display:inline;}
	.st3{display:none;fill:none;}
</style>
<script xlink:href="./gsap1.min.js" language="JavaScript"></script>
<!-- <script xlink:href="./MorphSVGPlugin.min.js" language="JavaScript"></script> -->
<!-- <script xlink:href="./CustomEase.min.js" language="JavaScript"></script> -->
<!-- <script xlink:href="./CustomBounce.min.js" language="JavaScript"></script> -->
<path id="logo" class="st0" d="M188.9,49.8L168.4,38c-1.1-0.6-2.8-0.6-3.9,0l-20.5,11.8c-1.1,0.6-1.9,2.1-1.9,3.4v23.6
	c0,1.2,0.9,2.8,1.9,3.4L164.6,92c1.1,0.6,2.8,0.6,3.9,0l20.5-11.8c1.1-0.6,1.9-2.1,1.9-3.4V53.2C190.9,51.9,190,50.4,188.9,49.8z
	M183.5,67.7c-0.5,0.7-1.4,0.8-2.1,0.3c-0.5-0.4-1.3-0.7-2.1-0.9V73c0,2.7-2.2,4.8-4.8,4.8h-23.2c-0.8,0-1.5-0.7-1.5-1.5
	c0-0.8,0.7-1.5,1.5-1.5h7.8V50.9c0-0.8,0.7-1.5,1.5-1.5c0.8,0,1.5,0.7,1.5,1.5v3.8h12.5c2.7,0,4.8,2.2,4.8,4.8v4.5
	c1.1,0.2,2.7,0.7,3.8,1.5C183.9,66.1,184,67,183.5,67.7z M176.5,59.5v4.3l-14.4,0v-6.2h12.5C175.6,57.6,176.5,58.5,176.5,59.5z
	M162.1,66.8h14.4V73c0,1.1-0.9,1.9-1.9,1.9h-12.5V66.8z"/>
<g id="ZALH">
	<path id="ZHONG" d="M210.6,52.2l0.1,0.1c0.1,0,0.4-0.1,0.8-0.2c0.4,0.1,0.8,0.3,1.3,0.7c0.7,0.9,1.1,1.9,1.1,2.8
		c0,0.6-0.1,1.1-0.3,1.5c-0.1,0.1-0.3,0.2-0.5,0.3c-0.2,0.1-0.4,0.2-0.5,0.3c-0.1,0.4-0.1,0.9-0.2,1.6c0,0.8,0,1.3,0.1,1.7
		c0,0,0.1,0.1,0.2,0.3s0.2,0.3,0.4,0.3c0.3-0.2,0.7-0.4,1-0.7s0.6-0.5,0.7-0.6c0,0,0.2-0.3,0.6-0.9c0.5-0.8,0.9-1.3,1.4-1.4
		c-0.1,0.6-0.2,1.2-0.4,1.9c-0.2,0.7-0.4,1.2-0.4,1.4c-0.2,0.5-0.4,0.9-0.7,1.2s-0.6,0.7-0.9,1.1c-0.3,0.4-0.5,0.6-0.6,0.7
		c-0.2,0.2-0.5,0.4-0.9,0.7s-0.7,0.5-1.1,0.7c-0.3-0.2-0.6-0.4-0.8-0.7c-0.2-0.3-0.4-0.6-0.5-1c-0.1-0.3-0.3-0.6-0.3-0.7
		c-0.1-0.2-0.1-0.6-0.2-1.1s-0.2-0.8-0.5-1.1l-0.3-1.6c-0.2-1.5-0.4-2.5-0.4-3.2c0-0.4,0-0.9-0.2-1.5c-0.1-0.6-0.2-1-0.2-1.3
		c0-0.6,0.3-0.9,0.8-1c0.1-0.2,0.2-0.4,0.4-0.6c0.2-0.1,0.4-0.2,0.6-0.1L210.6,52.2z M213.3,65.6c-0.1,0.1-0.1,0.2-0.2,0.3
		s-0.2,0.2-0.3,0.3l-0.1-0.1c0,0,0.1-0.1,0.3-0.3L213.3,65.6z M215.1,64c-0.1,0.2-0.3,0.3-0.6,0.6C214.7,64.2,214.9,64,215.1,64
		C215,64,215.1,64,215.1,64z M222.8,41.1l0.4,0c0.4,0.4,0.8,0.8,1.4,1c0.5,0.2,1.2,0.5,2,0.7c0.2,0.1,0.5,0.2,1,0.5s0.9,0.4,1.4,0.5
		c0.2,0.3,0.6,0.7,1,1.3c0.1,0.2,0.1,0.5,0.1,1c0.1,0.5,0.2,0.8,0.2,1.1c-0.1,0.2-0.1,0.4-0.2,0.6s-0.2,0.5-0.4,0.6
		c0,0.2-0.1,0.4-0.2,0.6c-0.1,0.2-0.2,0.4-0.2,0.6c1-0.1,2-0.2,3.1-0.4c0.4,0.1,0.6,0.2,0.8,0.2c0.4-0.1,1-0.2,1.8-0.4
		c0.3-0.1,0.6-0.2,1.1-0.3s0.8-0.2,1.1-0.2c0.4,0,0.7,0.1,0.9,0.3c0.6,0.6,0.9,1.1,1.1,1.4c0.1,0.4,0.2,0.8,0.2,1.3
		c0,0.5,0,0.8,0,0.9c-0.1,0.5-0.4,1.1-0.8,1.9c-0.2,0.3-0.5,0.6-0.9,0.9c-0.4,0.3-0.6,0.5-0.8,0.7c-0.1,0.1-0.4,0.3-0.6,0.4
		s-0.5,0.3-0.6,0.5c-0.3,0.2-0.8,0.4-1.4,0.5c-0.1,0-0.2,0.1-0.3,0.3c-0.1,0.2-0.2,0.3-0.3,0.4s0,0.2,0.1,0.4c0.1,0,0.2,0.1,0.2,0.2
		c0,0,0,0.1,0,0.2c0,0.1,0,0.2,0.1,0.3c0,0,0.1,0,0.3,0s0.3,0.1,0.4,0.3c0.1,0.4,0.1,0.8,0.1,1c-0.1,0.2-0.2,0.3-0.5,0.5
		c-0.2,0.2-0.4,0.3-0.5,0.4c-0.3,0.3-0.8,0.7-1.5,1c-0.5,0.2-0.9,0.4-1.2,0.7l-0.9,0.4c-1,0.5-1.7,0.8-2.3,0.9
		c0.1,2.3,0.1,4.7,0.1,7c0,2-0.1,4.1-0.1,6.1c-0.1,0.5-0.2,1.2-0.4,2.3c-0.1,0.2-0.1,0.6-0.2,1s-0.2,0.8-0.4,1.1
		c-0.2,0.2-0.3,0.3-0.4,0.6s-0.1,0.4-0.2,0.4c-0.1,0-0.2,0.1-0.3,0.2c-0.2,0.1-0.3,0.2-0.4,0.1c-0.1-0.2-0.4-0.6-0.6-1.2
		c-0.3-0.8-0.7-2.1-1.2-3.8c-0.1-0.2-0.2-0.7-0.3-1.3c-0.1-0.6-0.2-1.2-0.3-1.7c0.1-0.2,0.1-0.3,0.1-0.5c0-0.2,0.1-0.3,0.1-0.5
		c0.1-0.4,0.1-0.7,0.2-1c0.1-0.2,0.2-0.5,0.5-0.6c0.1-0.6,0.1-1.3,0.1-2.4c0-0.6,0-1.6-0.1-2.9l-0.1-1.4c-0.4,0.1-0.8,0.2-1.2,0.4
		c-0.4,0.2-0.7,0.3-0.9,0.4c-0.3,0.2-0.8,0.5-1.5,1c-0.5,0.4-0.9,0.7-1.2,0.9c-0.3,0.2-0.6,0.3-0.8,0.3c-0.4,0-0.7-0.2-1-0.7
		c0-0.1-0.1-0.2-0.1-0.3c-0.1-0.1-0.1-0.2-0.2-0.3c-0.2-0.2-0.2-0.5-0.1-0.8c0.1-0.2,0.3-0.5,0.4-0.9v-0.1c0-0.1-0.1-0.2-0.2-0.3
		s-0.2-0.2-0.2-0.3c0.3-0.5,0.6-0.9,1.1-1.3c0.4-0.4,0.8-0.7,1.2-1.1c0.4-0.3,0.7-0.6,0.9-0.7c1.2-0.8,2.5-1.7,3.9-2.7l-0.1-1.9
		c-0.1-0.8-0.1-1.4-0.2-1.9l-1.5,0.7c-0.3,0.2-0.6,0.4-1.1,0.7s-0.8,0.5-1.2,0.5c-0.2-0.1-0.5-0.1-0.9-0.2s-0.8-0.2-1-0.4
		c-0.2-0.2-0.7-0.7-1.3-1.4c-0.1-0.2-0.3-0.4-0.5-0.7s-0.4-0.6-0.6-0.8c-0.3-0.2-0.5-0.5-0.5-0.7c0-0.2,0.2-0.3,0.5-0.3
		c0.3,0.1,0.6,0.2,0.9,0.2c0.4,0,1.1-0.2,2.1-0.5c1.2-0.4,2.1-0.7,2.6-1c1-0.3,1.7-0.5,2.2-0.6l-0.1-1.9c0-0.2-0.1-0.6-0.1-1.1
		s-0.2-1-0.3-1.3c0-0.4-0.1-1-0.4-1.7l-0.3-1c-0.2-0.5-0.4-1.1-0.4-1.7c0.1-0.1,0.1-0.2,0.1-0.4c0-0.2,0.1-0.4,0.1-0.5
		s0.2-0.2,0.3-0.2L222.8,41.1L222.8,41.1z M216.5,56.8C216.5,56.8,216.5,56.9,216.5,56.8c0,0.1,0,0.1-0.1,0.1
		C216.4,56.9,216.4,56.9,216.5,56.8L216.5,56.8z M231,52.7c-1.1,0.2-1.9,0.5-2.4,0.7c-0.1,0.2-0.2,0.5-0.4,1c0,0.1,0,0.3,0,0.5
		c-0.1,0.2-0.1,0.5-0.1,0.6c0,0.4,0.1,0.5,0.5,0.5c0.5-0.4,1.1-0.8,1.6-1.1c0.1-0.1,0.5-0.3,0.9-0.6c0.5-0.3,0.8-0.6,1-0.8
		c0.2-0.2,0.3-0.3,0.3-0.4c0-0.1-0.2-0.2-0.6-0.1c-0.1,0-0.2-0.1-0.3-0.1c-0.1-0.1-0.3-0.1-0.4-0.1H231z"/>
	<path id="AN" d="M265.2,43.8c0.3,0,0.7,0.1,1.4,0.1c0.6,0.1,1.2,0.1,1.8,0.1c0.3-0.2,0.6-0.2,0.9-0.2c0.3,0,0.7,0.1,1.2,0.2
		c0.4,0.1,0.8,0.2,1,0.2c0.3,0.1,0.6,0.3,0.8,0.4s0.2,0.3,0.1,0.5c0.1,0.1,0.2,0.2,0.3,0.4c0.1,0.1,0.3,0.2,0.3,0.2l0.1,3.5
		c-0.1,0.1-0.3,0.3-0.5,0.6l0.7-0.2c0.2,0,0.7-0.1,1.3-0.2c0.6-0.1,1.2-0.2,1.6-0.3c0.4-0.1,0.8-0.1,1.3-0.2c0.5,0,0.8,0,1,0l1-0.1
		c0.6,0,1.2-0.1,1.6-0.1c0.4-0.1,0.8-0.2,1.2-0.4l0.3,0c0.2,0,0.5,0.1,1,0.2c0.1,0.1,0.3,0.2,0.5,0.4c0.2,0.2,0.4,0.3,0.4,0.6
		c0.4,0.6,0.9,1.3,1.3,2.1l0,1.9c0,0.6-0.1,1.1-0.2,1.5c-0.1,0.4-0.4,0.8-0.8,1.1c-0.2,0.1-0.5,0.2-0.8,0.1c-0.1,0-0.2-0.1-0.4-0.3
		s-0.4-0.3-0.6-0.3c-0.2-0.1-0.4-0.1-0.6-0.1c-0.5,0.1-1.5,0.2-2.8,0.5c-0.5,0.1-1.2,0.3-2.3,0.5c-1.6,0.5-3,1-4.2,1.6
		c-0.4,0.2-0.7,0.5-0.9,0.8c0,0.1-0.1,0.2-0.1,0.5c-0.1,0.2-0.2,0.3-0.3,0.4l-0.7,1.1c-0.1,0.1-0.1,0.2-0.3,0.4
		c-0.1,0.2-0.2,0.3-0.3,0.5l-0.8,1c-0.1,0.1-0.3,0.4-0.7,0.9c-0.4,0.5-0.8,1.1-1,1.6c0.4,0,0.9,0,1.4-0.1c0.5-0.1,1-0.2,1.2-0.2
		c0.6-0.2,1.4-0.3,2.4-0.4c0.1,0,0.1-0.1,0.1-0.3s0-0.3,0-0.3c0.1-0.2,0.2-0.3,0.4-0.5s0.3-0.2,0.4-0.3c0.1-0.2,0.3-0.3,0.5-0.3
		c0,0,0.3,0,0.9,0.1c0.1,0.1,0.2,0.2,0.3,0.4c0.2,0.2,0.3,0.4,0.4,0.5c0.1,0.2,0.1,0.3,0,0.5l8.4-0.5c0.6-0.1,1-0.2,1.3-0.2
		c0.1,0,0.3-0.1,0.5-0.2c0.1-0.1,0.3-0.2,0.4-0.2c0.4,0.3,0.8,0.7,1.1,1.2s0.5,1,0.5,1.6c0,0.3,0,0.6,0,1c0,0.4,0,0.8,0,1.3
		c-0.1,0.4-0.2,0.7-0.4,0.9c-0.1,0.1-0.2,0.2-0.3,0.4c-0.2,0.2-0.3,0.3-0.5,0.4c-0.2,0.1-0.3,0.1-0.5,0.1c-0.8-0.4-1.3-0.7-1.6-1
		c-0.4-0.2-0.7-0.4-0.9-0.6c-0.2,0-0.5-0.2-0.9-0.5l-1-0.3c-0.2,0-0.5-0.1-0.9-0.1c-0.4,0-0.7-0.1-0.9-0.1c-0.3-0.1-0.5-0.2-0.7-0.4
		c-0.4-0.1-0.9-0.1-1.6-0.1h-1.7c-0.1,0.2-0.2,0.5-0.4,0.9c-0.1,0.4-0.4,0.7-0.6,0.9l0,0.1c-0.1,0.1-0.1,0.3-0.3,0.6
		c-0.1,0.2-0.3,0.4-0.5,0.5c0,0.2-0.1,0.4-0.3,0.6s-0.3,0.3-0.3,0.4c0.4,0.2,0.6,0.4,0.9,0.4c0.2,0,0.4-0.2,0.3-0.5l0.6,0.8
		c0.8,0.3,1.4,0.6,1.9,0.8c0.8,0.6,1.3,1,1.5,1.2c0.1,0.2,0.3,0.6,0.4,1.1c0.3,0.5,0.4,0.8,0.5,1.1v0.2v0.5c0,0.4,0.1,0.7,0.3,0.8
		v1.3c0,0.2-0.1,0.4-0.3,0.6c-0.1,0.5-0.3,0.9-0.5,1.2c-0.2,0.3-0.5,0.4-0.9,0.4c-0.3,0.1-0.5,0.1-0.7,0c-0.1-0.1-0.3-0.3-0.4-0.5
		c-0.2-0.2-0.3-0.4-0.5-0.5c0-0.2-0.1-0.3-0.3-0.6c-0.2-0.2-0.3-0.4-0.4-0.6c-0.8-0.8-1.4-1.3-1.9-1.7c-0.1-0.1-0.2-0.1-0.5-0.2
		c-0.2-0.1-0.4-0.2-0.5-0.3c-0.5-0.2-0.9-0.4-1.4-0.7s-0.9-0.6-1.1-0.7c-0.2,0.2-0.4,0.4-0.7,0.8c-0.7,0.8-1.3,1.3-1.7,1.5
		c-0.2,0.2-0.5,0.5-0.8,0.7c-0.3,0.2-0.6,0.4-0.9,0.5c-0.1,0.2-0.4,0.4-0.7,0.5c-0.3,0.1-0.6,0.2-0.7,0.3c-0.5,0.2-1.4,0.4-2.6,0.6
		c-0.5,0.1-0.9,0.1-1.2,0.2h-0.1c-0.1,0-0.4,0.1-0.7,0.2c-0.1,0-0.2,0.1-0.4,0.1s-0.3,0.1-0.5,0.1c-0.2,0-0.5-0.1-0.7-0.3
		c-0.5-0.1-1-0.1-1.5,0.1c-0.5,0.1-1,0.2-1.4,0.3c-0.5,0.1-0.8,0.2-1,0.2c-0.1,0-0.1,0-0.3,0c-0.1,0-0.2,0-0.3-0.1
		c0.2-0.1,0.6-0.2,1.1-0.4c0.5-0.2,0.9-0.3,1.3-0.3c0.3-0.1,0.8-0.3,1.6-0.8c0.2-0.1,0.4-0.3,0.8-0.5c0.3-0.2,0.6-0.5,0.8-0.7
		c0.2-0.1,0.4-0.1,0.4-0.2c0.1-0.1,0-0.2-0.2-0.2c2.7-1.6,4.7-3,6.1-4.3c0.2-0.1,0.3-0.2,0.3-0.3s-0.1-0.2-0.2-0.3s-0.2-0.2-0.2-0.2
		c-0.1-0.1-0.3-0.2-0.5-0.2c-0.2-0.1-0.4-0.1-0.5-0.2c-0.7-0.4-1.3-0.6-1.7-0.7c-0.3,0-0.6,0.1-0.9,0.2c-0.1,0-0.3,0.1-0.6,0.3
		c-0.3,0.2-0.7,0.3-1,0.2c-0.1,0-0.2-0.1-0.4-0.1s-0.3-0.1-0.4-0.2c-0.1-0.3-0.3-0.8-0.7-1.4c-0.1-0.1-0.1-0.3-0.1-0.5
		c0-0.4,0.1-0.8,0.4-1.2c-0.9,0.2-1.7,0.3-2.6,0.3c-0.4,0-1.1,0-2.1-0.1c-0.3-0.1-0.7-0.2-1.1-0.4c-0.3-0.3-0.6-0.6-0.8-0.8
		c-0.2-0.2-0.3-0.5-0.3-0.8c0-0.1-0.1-0.2-0.1-0.5c-0.1-0.2,0-0.4,0.1-0.5c0.1,0,0.2,0,0.3,0.1c0.1,0.1,0.2,0.1,0.2,0.1
		c0.3,0.3,0.8,0.7,1.4,1.2c0.3,0.1,0.6,0.2,1,0.2s0.6,0,0.7,0c0.3,0,0.6-0.1,1.1-0.1c0.5,0,0.9-0.1,1.2-0.2c0.3-0.1,0.6-0.3,0.8-0.6
		c0.4-0.6,0.7-1.1,0.9-1.3c0.1-0.1,0.4-0.3,0.7-0.6c0.3-0.3,0.6-0.4,0.9-0.5c0.5-0.3,1.2-0.8,2.1-1.6l1-0.9l1.1-1.2
		c1-1.1,1.7-1.9,2.1-2.5c0.4-0.4,0.6-0.7,0.6-0.9c0-0.1-0.1-0.2-0.2-0.4c-0.5-0.2-1-0.2-1.7-0.2s-1.1,0-1.4,0c-0.1,0-0.2,0-0.4-0.1
		c-0.2,0-0.3-0.1-0.4-0.1c-0.1-0.1,0-0.2,0-0.3c0.2-0.1,0.5-0.2,0.8-0.2c0.3,0,0.5-0.1,0.6-0.1c0.6-0.2,1.5-0.4,2.8-0.7
		c0.7-0.2,1.2-0.3,1.5-0.5c0.1-0.1,0.3-0.2,0.5-0.2c0.1,0,0.2,0,0.3,0c0.1,0,0.2,0.1,0.3,0.1c0.2,0.1,0.5,0.3,0.6,0.7
		c0.1,0.6,0.1,1.2,0.1,1.7c0,0.1,0,0.3-0.1,0.5c-0.1,0.2,0,0.4,0.1,0.4l2.2-1.3c0.3-0.2,0.7-0.6,1.3-1c0.3-0.1,0.5-0.3,0.8-0.5
		c0.1-0.1,0.3-0.2,0.5-0.3c0.3-0.1,0.4-0.3,0.5-0.5c0-0.1,0-0.2,0-0.3c0-0.2,0.1-0.3,0.2-0.4c0.1-0.1,0.5-0.3,1-0.5v0
		c0-0.2,0.1-0.3,0.5-0.5l-0.8-1c-0.7-0.2-1.1-0.3-1.3-0.3c-0.1,0-0.4,0-0.6,0.1l-1.5,0.1c-0.6,0-1.3,0-2,0.1
		c-0.7,0.1-1.3,0.2-1.8,0.4c-0.4,0.1-1,0.2-2,0.4c-1,0.2-1.8,0.4-2.4,0.5c-0.1,0-0.4,0.1-0.8,0.2c-0.4,0.1-0.7,0.2-0.9,0.3
		c-0.2,0-0.5,0.1-0.8,0.1c-0.4,0.1-0.6,0.2-0.9,0.3c-0.1,0-0.1,0-0.2,0c-0.1,0-0.3,0-0.5,0.2s-0.4,0.2-0.5,0.2
		c-0.1,0-0.3,0.1-0.6,0.2s-0.5,0.2-0.6,0.2c-0.1,0-0.3,0-0.4-0.1c-0.1,0-0.4-0.1-0.7-0.1c-0.3-0.1-0.6-0.2-0.7-0.4
		c0-0.2-0.1-0.4-0.2-0.6c-0.1-0.3-0.1-0.5-0.1-0.7c0-0.2,0-0.3,0.1-0.4c0.5,0.2,0.9,0.5,1.1,1c0.4,0,0.8,0,1.3-0.2
		c0.5-0.1,0.8-0.2,1-0.3c0.2-0.1,0.5-0.2,0.9-0.4c0.4-0.2,0.7-0.3,1-0.3c0.3-0.2,0.7-0.4,1.1-0.5s0.7-0.2,0.9-0.3
		c0.1,0,0.4-0.1,0.7-0.1c0.4,0,0.6-0.1,0.8-0.2s0.2-0.2,0.1-0.3c-0.1,0-0.2-0.1-0.4-0.1c-0.2,0-0.4-0.1-0.5-0.2
		c-0.1-0.2-0.4-0.3-0.7-0.3s-0.5-0.1-0.6-0.1c-0.1,0-0.2-0.1-0.4-0.1c-0.2,0-0.2-0.1-0.1-0.2l1.5-0.5c0-0.2,0.1-0.5,0.4-0.7
		c0.2-0.3,0.3-0.5,0.4-0.6c0.1-0.2,0.3-0.4,0.5-0.5s0.4-0.3,0.5-0.4c-0.8-0.5-1.3-0.8-1.6-1l-0.9-0.3c-0.5-0.2-1-0.3-1.5-0.5
		c-0.5-0.2-0.7-0.4-0.7-0.5c0-0.1,0.2-0.2,0.5-0.3L265.2,43.8L265.2,43.8z M256.2,51.5l0.3,0.2c0.5,0.2,1,0.5,1.4,1
		c0.5,0.5,0.7,1.1,0.8,1.8c0,0.1,0,0.3-0.1,0.5c-0.1,0.3,0,0.5,0.1,0.6c-0.2,0.4-0.4,1-0.5,1.8c0,0.3-0.1,0.6-0.2,1
		c-0.7,1.5-1.1,2.7-1.3,3.5c-0.1,0.2-0.3,0.4-0.6,0.7c-0.2,0.1-0.4,0.2-0.6,0.2c-0.2,0-0.4,0-0.4,0c-0.5-0.2-0.9-0.7-1.1-1.4
		c-0.1-0.1-0.3-0.3-0.4-0.4c-0.1-0.2-0.2-0.3-0.1-0.5c0-0.1,0.1-0.2,0.1-0.4c0-0.2,0-0.4,0.1-0.5s0.1-0.3,0.2-0.3v-0.1
		c0-0.2-0.1-0.3-0.2-0.5s-0.2-0.3-0.2-0.4c0-0.2,0-0.3,0.1-0.5c0.1-0.2,0.1-0.3,0.1-0.4c0.1-0.2,0.3-0.6,0.4-1.1
		c0.2-0.5,0.4-0.9,0.7-1.2c0.4-0.8,0.6-1.4,0.7-1.7v-0.1c0-0.3-0.2-0.7-0.7-1c-0.1,0-0.3,0-0.5,0s-0.5-0.1-0.6-0.1
		c0.9-0.5,1.6-0.7,2.2-0.7l0.4,0L256.2,51.5z M266.4,46.7L266.4,46.7c0.1,0.2,0,0.2-0.1,0.2C266.2,46.8,266.2,46.8,266.4,46.7
		L266.4,46.7z M269.1,67.6c-0.2,0-0.5,0-0.8,0c-0.4,0-0.6,0.1-0.8,0.2c0.5,0.2,0.9,0.4,1.5,0.7s0.9,0.5,1,0.6c0,0,0.1,0,0.3,0.1
		c0.1,0,0.3,0,0.4-0.1c0.3-0.3,0.4-0.5,0.5-0.7c0.1-0.1,0.2-0.2,0.4-0.4c0.2-0.2,0.2-0.3,0.2-0.5c-0.1,0-0.4,0-0.6,0s-0.4,0-0.5,0
		L269.1,67.6z M276,53.6c-0.1,0.1-0.1,0.2-0.2,0.2s-0.1,0-0.1,0s0-0.1,0.1-0.1L276,53.6z"/>
	<path id="LIAN" d="M312.6,44.2c0.1,0.1,0.2,0.2,0.4,0.2s0.3,0.1,0.4,0.1l-0.1,0.6c0,0.2,0.1,0.3,0.2,0.5c0.1,0.2,0.1,0.4,0.1,0.5
		c0,0.1,0,0.2-0.1,0.4c-0.1,0.3-0.3,0.8-0.7,1.2l-2.2,1.1c-0.3,0.1-0.6,0.2-0.9,0.3s-0.6,0.2-0.9,0.3c-0.2,0.1-0.5,0.2-0.6,0.4
		c-0.1,0.1-0.2,0.2-0.4,0.4c-0.1,0.2-0.3,0.4-0.3,0.5c-0.3,0.4-0.7,1-1.1,1.9c0,0.1-0.2,0.5-0.5,1c-0.3,0.7-0.5,1.3-0.5,1.7l0.6-0.1
		c0.1-0.2,0.3-0.3,0.6-0.5c0.3-0.1,0.6-0.3,0.7-0.4c0.4-0.3,1.1-0.7,2-1.1c0.1-0.1,0.1-0.2,0.1-0.3c0-0.1,0-0.2-0.1-0.4
		c-0.1-0.2-0.1-0.3-0.1-0.4c0-0.1,0.1-0.1,0.3-0.1v0c-0.3-0.3-0.6-0.6-0.7-0.8v-0.1c0-0.1,0-0.2-0.1-0.3c-0.1-0.1-0.1-0.2-0.2-0.3
		c0-0.1,0-0.2,0.1-0.3c0-0.1,0-0.2,0.1-0.3c0.1-0.1,0.1-0.1,0.3-0.2c0.2,0.1,0.4,0.3,0.6,0.6l0.5,0c0.9,0,1.6,0.4,2.2,1.1l0,2.3
		l0,1.3c0.1,0.6,0.1,1.1,0.1,1.4l0,1c-0.1,0.4-0.1,0.8-0.1,1c0,1,0.4,1.5,1.1,1.5c0.7,0,1.4-0.2,2-0.6s1.1-0.9,1.5-1.4
		c0.5-0.5,0.8-0.8,0.9-0.9l-0.6-0.4c-0.3-0.5-0.5-0.7-0.5-0.8c0-0.5,0-0.9,0.1-1.1c0.1-0.2,0.3-0.6,0.6-1.2s0.5-1.2,0.7-1.7
		c0-0.1,0-0.3,0.1-0.4c0-0.2,0-0.3-0.1-0.4c0,0-0.1-0.1-0.3-0.3s-0.4-0.2-0.6-0.2c-0.4,0-0.7,0.1-1.1,0.3c-0.7,0.2-1.1,0.3-1.4,0.3
		c-0.4,0-0.6-0.1-0.8-0.3c0.4-0.3,0.8-0.6,1.4-0.9c0.5-0.2,0.9-0.4,1.1-0.5c0.3-0.2,0.5-0.3,0.7-0.4c0.1,0,0.3-0.1,0.4-0.1
		s0.3,0,0.5,0s0.3,0,0.4,0.1c0.2,0.2,0.5,0.4,0.6,0.5c0.1,0.2,0.3,0.5,0.6,0.9c0.1,0.7,0.3,0.9,0.6,0.8c0.1-0.1,0.3-0.2,0.5-0.4
		s0.5-0.4,0.8-0.5c0.1-0.2,0.2-0.4,0.5-0.5s0.4-0.3,0.5-0.5c0.5-0.3,1.1-0.9,1.8-1.8l0.8-0.9c0.1-0.1,0.4-0.3,0.7-0.5
		s0.6-0.5,0.8-0.8l1-0.2h0.1c0.2,0,0.4,0.2,0.5,0.5c0.2,0.1,0.5,0.3,0.7,0.6c0.2,0.4,0.4,0.7,0.5,0.9c0.1,0.2,0.1,0.4,0.1,0.7
		c0,0.3,0.1,0.5,0.2,0.7c0,0.6,0,1-0.1,1.3c0.1,0.1,0.1,0.2,0.1,0.3c0,0.2-0.3,0.5-0.8,0.9c-0.3,0.2-0.5,0.3-0.7,0.3
		c-0.2,0.1-0.4,0.2-0.5,0.2c-2.1,1.4-3.6,2.4-4.7,3.1c-0.1,0.1-0.2,0.3-0.3,0.5c-0.1,0.2-0.3,0.4-0.5,0.5c-0.1,0.1-0.1,0.2-0.1,0.2
		s0,0.1,0.1,0.1c0.1,0,0.2,0,0.4-0.1s0.3-0.1,0.4-0.1c0.1-0.2,0.3-0.4,0.6-0.5s0.5-0.2,0.9-0.3c0.4-0.1,0.8-0.2,1-0.3
		c0.2,0,0.5-0.1,0.8-0.2c0.3-0.1,0.6-0.2,0.8-0.2c0.2,0,0.5,0.1,0.6,0.3c0,0.2,0.1,0.4,0.1,0.6c0.1,0.2,0.1,0.4,0.1,0.6
		c0,0.2-0.1,0.4-0.2,0.6l-0.7,0.5c-0.6,0.5-1.2,0.8-1.7,1c-0.5,0.3-1,0.7-1.5,1.2c-0.5,0.5-0.8,0.8-0.9,0.9l-0.8,0.8
		c0,0.1,0,0.3,0,0.6c0,0.3-0.1,0.5-0.1,0.7c0,0.4,0.2,0.5,0.5,0.4c0.2-0.1,0.5-0.2,1-0.4c1-0.4,1.7-0.6,2.2-0.7
		c0.8-0.1,1.6-0.1,2.5-0.1c0.1,0.4,0.3,0.9,0.6,1.5c-0.1,0.1-0.2,0.3-0.4,0.6c-0.1,0.3-0.3,0.5-0.5,0.6c-0.6,0.4-1.4,0.8-2.4,1.1
		c-0.2,0.1-0.6,0.2-1.1,0.4c-0.2,0.1-0.3,0.1-0.3,0.2s0,0.2,0.2,0.2c0.5,0.4,1.3,0.8,2.2,1.2c0.1,0.1,0.5,0.3,1,0.7s1.1,0.6,1.6,0.8
		c0.5,0,1,0.2,1.6,0.6c0.2,0.1,0.5,0.2,1,0.3s0.8,0.3,1.1,0.5c0.2,0,0.4,0.1,0.7,0.2c0.2,0.1,0.4,0.2,0.5,0.3
		c0.1,0.1,0.4,0.2,0.8,0.4c0.4,0.2,0.7,0.3,0.9,0.5c0.2,0.2,0.4,0.4,0.5,0.6c0.2,0.1,0.6,0.3,1,0.7c0,0.1,0.1,0.2,0.1,0.3
		c0.1,0.1,0.1,0.1,0.3,0c0.1,0.1,0.2,0.2,0.2,0.3s0.2,0.2,0.3,0.2c0.2,0,0.4,0.1,0.8,0.1s0.5,0.1,0.7,0.1c0.1,0.1,0.1,0.1-0.2,0.2
		c-0.7,0.2-1.3,0.4-1.7,0.6c-0.2,0.2-0.4,0.4-0.7,0.6c-0.3,0.2-0.5,0.2-0.6,0.3c-0.5,0.2-1.1,0.3-1.8,0.3c-0.7,0.1-1.1,0.1-1.4,0.2
		c-0.1,0-0.3,0-0.5-0.1c-0.2-0.1-0.4,0-0.5,0.1c-0.2,0.1-0.4,0.1-0.6,0.1c-0.2,0-0.4,0-0.5,0c-0.1,0-0.5-0.1-1-0.2s-1-0.3-1.5-0.6
		c-0.9-0.2-1.6-0.6-2.2-1.3l-0.6-0.8c-0.3-0.6-0.7-1-1-1.3c-0.1-0.5-0.5-1.1-1-1.6l-0.6-0.9c-0.1-0.2-0.5-0.6-1.1-1.3
		c0-0.2-0.2-0.3-0.4-0.5s-0.4-0.3-0.5-0.4c-0.2,1-0.5,1.7-0.6,2.2c-0.1,0.3-0.3,0.7-0.4,1.2c-0.2,0.5-0.4,0.9-0.6,1.2
		c0,0.2,0,0.4-0.2,0.6c-0.1,0.2-0.3,0.3-0.4,0.5s-0.2,0.2-0.3,0.3c-0.1,0.3-0.3,0.6-0.6,0.9c-0.3,0.3-0.5,0.4-0.5,0.5
		c-0.4,0.3-0.9,0.4-1.5,0.3c-0.2-0.1-0.6-0.2-1.1-0.4c-0.5-0.2-0.9-0.4-1.2-0.6c0.2-0.1,0.5-0.2,0.8-0.3c0.3-0.1,0.6-0.2,0.8-0.3
		c0.2-0.1,0.4-0.3,0.5-0.5c0.6-0.8,1.2-1.6,1.6-2.3c0.4-0.7,0.7-1.4,0.9-2.1c-2.5,1.1-4.4,2.4-5.9,3.9c0,0.5,0,1.3,0,2.4
		c0.1,0.8,0.1,1.4,0.1,1.7c0,1.2-0.2,2.2-0.7,3c0,0.1-0.1,0.3-0.2,0.5c-0.1,0.2-0.2,0.4-0.3,0.6c-0.1,0.1-0.2,0.2-0.4,0.3
		c-0.1,0.2-0.2,0.3-0.3,0.3l-0.1,0.1c-0.1,0-0.2,0-0.3-0.1c-0.1,0-0.1-0.1-0.2-0.1c-0.3-0.3-0.6-0.6-0.7-0.8c-0.4-0.4-0.9-1.1-1.6-2
		l-0.6-1.1c-0.5-1-1-1.7-1.5-2.1c-0.1-0.3-0.3-0.6-0.5-0.9c-0.2-0.3-0.4-0.5-0.5-0.6c-0.1-0.3-0.5-0.8-1-1.4c-0.1,0-0.2-0.1-0.3-0.2
		c-0.2-0.1-0.3-0.1-0.5-0.1c-0.8,0.6-1.7,1.3-2.7,2.3l-1.4,1.2c-0.1,0.1-0.2,0.1-0.3,0.1l-0.4-0.1c-0.1-0.1-0.3-0.1-0.4-0.2
		c-0.1-0.1-0.2-0.2-0.2-0.4c0-0.1,0.1-0.3,0.2-0.6c0.1-0.3,0.1-0.5,0-0.6c0.4-0.6,0.9-1,1.6-1.5l1.4-1.2c0.5-0.5,1-0.8,1.5-1
		l0.7-0.6c0.9-0.7,1.5-1.2,1.7-1.3c0.3-0.3,0.6-0.6,1-0.8c0.4-0.3,0.7-0.5,0.9-0.7c0-0.1,0.1-0.2,0.2-0.3s0.2-0.1,0.2-0.2
		c0.2-0.1,0.5-0.3,0.7-0.6c0.2,0,0.4-0.2,0.7-0.5c0,0,0.1,0,0.1,0c0.1,0,0.1-0.1,0.1-0.2c0-0.1,0.1-0.2,0.2-0.3
		c0.5-0.8,0.8-2.1,0.8-3.7l0,0c-0.2,0.2-0.4,0.3-0.7,0.4s-0.5,0.2-0.8,0.3c-0.6,0.4-1.3,0.8-1.9,1.4s-1,0.9-1.2,1
		c-0.3,0.2-0.5,0.4-0.5,0.6c-0.3,0.2-0.8,0.7-1.5,1.2c-0.7,0.4-1.1,0.9-1.1,1.6c-0.1,0.3-0.3,0.6-0.4,1c-0.2,0.6-0.5,1.1-0.6,1.3
		c-0.1,0.1-0.3,0.3-0.6,0.4h-0.2c-0.3,0-0.6-0.2-0.9-0.7c-0.1-0.1-0.2-0.2-0.4-0.4s-0.3-0.4-0.2-0.7c0.1-0.2,0.1-0.3,0.1-0.5
		c0-0.1,0-0.3-0.1-0.6c0-0.4,0-0.8,0.2-1.3c0.1-0.5,0.2-0.8,0.2-1c0.2-0.7,0.8-1.9,1.5-3.6c0.5-0.9,0.9-1.8,1.2-2.7
		c0.1-0.2,0.2-0.4,0.3-0.8c0.4-0.8,0.8-1.8,1.3-2.7c0.5-1,0.8-1.6,1-1.9c0.3-0.5,0.7-1.4,1.3-2.5c0.1-0.1,0.1-0.3,0.3-0.5
		s0.2-0.3,0.2-0.5s-0.1-0.2-0.2-0.3c-0.5,0-1,0.1-1.6,0.2c-0.6,0.1-1.1,0.3-1.7,0.4c-0.9,0.2-1.5,0.4-2,0.5
		c-0.5,0.1-1.1,0.1-1.6,0.1c-0.7-0.1-1.3-0.2-1.9-0.5c-0.3-0.2-0.5-0.4-0.6-0.5c-0.1-0.3-0.2-0.6-0.2-0.8s0.1-0.3,0.3-0.2
		c0.1,0.3,0.3,0.5,0.6,0.7c2.6,0.2,5.1-0.4,7.5-1.6c0.1-0.1,0.4-0.2,0.7-0.3c0.4-0.1,0.6-0.3,0.7-0.5c0.7-0.4,1.1-0.6,1.3-0.6
		c0.1-0.1,0.2-0.2,0.5-0.3s0.4-0.3,0.6-0.3c0.3-0.2,0.7-0.5,1.1-0.7s0.8-0.4,1-0.5c0.2-0.1,0.4-0.2,0.7-0.3c0.3-0.1,0.5-0.2,0.8-0.3
		c0.2-0.1,0.5-0.1,0.7,0L312.6,44.2z M307.3,57.5l-0.1,0c-0.3,0-0.7,0.1-1,0.2s-0.6,0.3-1,0.5c-0.3,0.2-0.6,0.3-0.8,0.5
		c-0.7,0.5-1.1,1-1.2,1.5c-0.3,0.6-0.5,1.2-0.7,1.8l0,0.6c0,0.2,0.1,0.4,0.2,0.5l0.5-0.3l0.8-0.8c0.6-0.7,1.2-1.2,1.7-1.5
		c0.1-0.4,0.4-0.8,0.8-1.1c0.4-0.4,0.6-0.6,0.7-0.7c0.1-0.3,0.2-0.6,0.4-0.9L307.3,57.5z M308.5,67.2c-0.2,0.1-0.5,0.3-0.7,0.6
		l-0.9,0.7c-0.1,0.1-0.3,0.3-0.7,0.6c-0.4,0.3-0.9,0.6-1.3,0.7c-0.1,0.2-0.1,0.4-0.2,0.6c-0.1,0.2-0.2,0.2-0.4,0.3
		c-0.3,0.2-0.5,0.5-0.5,0.8c0,0.2,0.1,0.3,0.3,0.4c0.2,0.1,0.5,0.2,0.9,0.4s0.7,0.3,1,0.4c0.1,0,0.4,0.1,0.6,0.1
		c0.3,0.1,0.5,0,0.7,0l-0.5-0.2h0.1c0.1,0,0.3-0.1,0.5-0.2c0.2-0.1,0.3-0.2,0.5-0.2c0.1,0,0.2,0,0.3,0.1h0c0.1,0,0.3-0.1,0.4-0.2
		c0.1-0.1,0.2-0.3,0.2-0.4s0.1-0.2,0.1-0.3c0.2-0.7,0.3-1.6,0.3-2.7c0-0.1,0-0.3,0-0.5c0-0.2-0.1-0.4-0.1-0.6
		C308.9,67.4,308.8,67.3,308.5,67.2L308.5,67.2L308.5,67.2z M304.2,71.4c-0.1,0-0.1,0-0.1,0H304.2z M308.9,58.8c0,0,0,0.1,0,0.1
		c0,0.1,0,0.1,0.1,0.1c0.1,0,0.2,0,0.2-0.1c0.1-0.1,0.1-0.2,0-0.2c0,0-0.1,0-0.1,0s-0.1,0-0.1,0L308.9,58.8z M309,59.4
		c-0.1,0.1-0.1,0.1,0,0.1C309.2,59.5,309.2,59.5,309,59.4L309,59.4z M319,60c-1.1,0.7-2.4,1.7-3.8,3c-0.1,0.1-0.2,0.2-0.5,0.4
		c-0.2,0.2-0.4,0.3-0.5,0.4c-0.1,0.1-0.2,0.1-0.3,0.1c-0.1,0-0.2-0.1-0.5-0.2c-0.2-0.1-0.4-0.2-0.5-0.2s-0.2,0.1-0.3,0.2
		c-0.3,0.7-0.4,1.6-0.4,2.7l0,2.5c0.1-0.1,0.4-0.3,0.7-0.6c0.3-0.3,0.6-0.5,0.8-0.8c0.4-0.2,0.7-0.5,0.8-0.7
		c0.8-0.6,1.7-1.6,2.8-2.9l1.5-1.7c0.1-0.1,0.1-0.2,0.2-0.4c0.1-0.1,0.2-0.2,0.2-0.3c0-0.1,0-0.2-0.1-0.2c0,0-0.1-0.1-0.2-0.3
		s-0.1-0.4,0-0.6c0.1-0.1,0.2-0.3,0.3-0.5s0.1-0.2,0-0.2L319,60z M312.6,61c-0.1,0.1-0.2,0.1-0.1,0.2c0,0.1,0.1,0.1,0.2,0.1
		c0,0,0.1-0.1,0.2-0.3s0-0.2-0.1-0.1L312.6,61z M319.2,63.9c0,0.1-0.1,0.1-0.2,0.2s-0.1,0.1-0.2,0.2c-0.1,0.1-0.2,0.2-0.2,0.3
		c0,0.1,0,0.1,0.1,0.1s0.2,0,0.3-0.1s0.1-0.2,0.2-0.3c0.1-0.3,0.1-0.5,0.1-0.6h0L319.2,63.9z M321.2,54.9L321,55
		C321.1,55.1,321.1,55.1,321.2,54.9L321.2,54.9z M326.1,47.3c-0.6,0.2-1.1,0.3-1.5,0.6c-0.2,0.2-0.5,0.5-0.9,0.9l-0.8,0.8
		c-0.1,0.2-0.2,0.4-0.3,0.7c-0.2,0.3-0.3,0.5-0.4,0.8c-0.1,0.3-0.1,0.5-0.1,0.7c-0.2,0.3-0.4,0.5-0.4,0.6c-0.1,0.2-0.1,0.3,0,0.5
		c-0.1,0.1-0.1,0.2-0.2,0.3s0,0.2,0,0.3c-0.2,0.4-0.3,0.7-0.3,0.9s0.1,0.4,0.3,0.4c0.1,0,0.2,0,0.3-0.1c0-0.1,0.1-0.2,0.2-0.4
		c0.1-0.1,0.2-0.2,0.3-0.3c0.5-0.4,0.9-0.9,1.4-1.7c0.4-0.5,0.6-0.9,0.9-1.2c0.1-0.2,0.5-0.8,1.2-1.7c0.1-0.2,0.2-0.4,0.4-0.6
		s0.3-0.4,0.4-0.5c0,0,0.1-0.1,0.2-0.3s0.1-0.3,0.1-0.4c0-0.1-0.1-0.2-0.2-0.2L326.1,47.3z M340.8,73.9
		C340.9,74,340.8,74,340.8,73.9c-0.1,0.1-0.2,0.1-0.3,0v-0.1L340.8,73.9L340.8,73.9z"/>
	<path id="HE" d="M361.1,43c0.2,0.2,0.4,0.3,0.6,0.3c0.1,0.1,0.2,0.3,0.2,0.5c0,0.2,0,0.4,0,0.6c0,0.2,0,0.4,0,0.6
		c0,0.1,0.1,0.3,0.2,0.5c0.1,0.2,0.1,0.3,0.1,0.4c0,0.2,0,0.3-0.1,0.4c0,0.3,0,0.7-0.1,1c-0.1,0.3-0.3,0.7-0.5,1.2
		c-0.1,0.2-0.4,0.6-0.6,1c-0.3,0.4-0.5,0.8-0.6,1c0,0.1-0.1,0.2-0.2,0.3c-0.1,0.1-0.1,0.2,0,0.3c0.1,0,0.2,0.1,0.4,0.1
		c0.2,0,0.3,0,0.5,0c-0.1-0.1-0.1-0.1-0.2-0.1s-0.2-0.1-0.2-0.1c-0.1,0,0-0.1,0.1-0.1c0.2,0,0.6,0.1,1.1,0.2
		c0.5,0.3,1.1,0.5,1.7,0.7l1.2,0.5c0.1,0.1,0.5,0.3,1,0.6s1,0.7,1.4,1.1c0.4,0.1,0.7,0.3,1.1,0.6s0.6,0.5,0.7,0.6
		c0.1,0.1,0.3,0.2,0.5,0.3s0.4,0.2,0.6,0.2c0.3,0.4,0.8,0.8,1.5,1c0.6,0.5,1.1,0.8,1.6,1c0.7,0.4,1.3,0.7,1.6,0.9
		c1,0.3,1.8,0.8,2.2,1.3c0.5,0.4,1.7,1.5,3.8,3.4l1.2,1.1c0.2,0.3,0.4,0.6,0.7,0.8c0.3,0.2,0.8,0.4,1.3,0.7c0.1,0,0.3,0.1,0.7,0.2
		s0.6,0.2,0.8,0.2s0,0.2-0.2,0.2c-0.2,0-0.5-0.1-0.8-0.1c-0.3-0.1-0.5-0.1-0.8-0.1c-0.3,0-0.6,0.1-0.8,0.2h-0.3
		c-0.2,0-0.4,0-0.5,0.1c-0.4,0-1.1,0.1-2,0.1l-0.4,0.1c-0.1,0-0.5-0.1-1.2-0.1c-0.6-0.2-1.5-0.6-2.6-1.2l-1.1-0.6
		c-0.2-0.1-0.5-0.2-1.1-0.4c-0.5-0.2-1-0.4-1.4-0.7c-0.5-0.4-1.6-1.4-3.2-2.8c-0.6-0.7-0.9-1-0.9-1c-0.8-0.8-1.4-1.5-1.8-2.1
		l-0.7-0.6c-2-1.9-3.6-3.4-5-4.6c-0.1-0.1-0.4-0.2-0.7-0.4c-0.3-0.2-0.6-0.2-0.8-0.1c-0.3,0.4-0.7,0.9-1,1.5c-0.4,0.5-0.8,1-1,1.5
		c-0.5,0.5-0.8,1-1,1.5l-0.7,0.9c-0.6,0.8-1,1.5-1.2,1.8l-1.1,1.5c-0.9,1.2-1.5,2-2,2.5c-0.5,0.6-1.2,1.5-2.1,2.6
		c-1.5,1.8-2.6,3.2-3.4,4.4c-0.1,0.1-0.2,0.2-0.4,0.5c-0.2,0.3-0.4,0.5-0.5,0.6c-0.1,0.1-0.3,0.1-0.4-0.1c-0.1-0.1-0.3-0.4-0.6-0.8
		c-0.1-0.1-0.2-0.2-0.3-0.5c-0.1-0.2-0.3-0.4-0.4-0.5c-0.1-0.2-0.2-0.4-0.2-0.6c0-0.2,0-0.3,0.1-0.6c0-0.2,0.1-0.4,0.1-0.6
		c0-0.2-0.1-0.5-0.2-0.8v-0.3c0-0.2,0-0.4,0.1-0.7c0-0.3,0.1-0.5,0.1-0.6c0-0.4,0.1-0.9,0.2-1.5c0.1-0.4,0.3-0.9,0.5-1.6
		c0-0.2,0.1-0.3,0.1-0.6c0.1-0.2,0.1-0.5,0.3-0.8c0.2-1,0.5-1.7,0.8-2.1c0.2-0.2,0.4-0.4,0.8-0.6s0.6-0.4,0.8-0.5
		c0.2-0.1,0.6-0.3,1.1-0.5c0.1,0,0.2,0,0.3,0c0.1,0,0.1,0,0.2,0.1c0.1-0.1,0.2-0.1,0.2-0.1c0.1,0,0.1,0.1,0.1,0.2l0,0.6
		c0,0.1-0.1,0.2-0.2,0.3s-0.2,0.3-0.2,0.5c-0.1,0-0.1,0.1-0.2,0.2c0,0.1,0,0.2,0,0.3c-0.2,0.1-0.3,0.3-0.3,0.6c0,0.2,0,0.3,0.1,0.4
		c0.1,0.1,0.2,0,0.3-0.1c0.9-1.1,1.5-1.8,1.6-2c0.1-0.3,0.3-0.6,0.6-0.8c0.3-0.3,0.5-0.5,0.6-0.7c0.1-0.2,0.3-0.4,0.5-0.7
		s0.4-0.6,0.6-0.8c0.2-0.3,0.5-0.7,0.9-1.2c0.7-0.9,1.2-1.6,1.4-2c0.5-0.5,0.8-1,1-1.5c0.1-0.1,0.3-0.3,0.5-0.6s0.4-0.6,0.5-0.9
		c0.1-0.2,0.3-0.4,0.5-0.7c0.3-0.3,0.5-0.5,0.6-0.8s0.2-0.4,0.2-0.7c0-0.1,0-0.2-0.1-0.4c-0.4-0.5-0.5-0.9-0.5-1.1
		c0-0.1,0-0.2,0.1-0.4c0,0,0-0.1-0.1-0.2c0-0.1-0.1-0.2,0-0.2s0.1-0.1,0.2-0.1c0.4-0.1,0.9-0.4,1.6-0.7c0.4-0.2,0.8-0.4,1-0.5
		c0.1-0.1,0.2-0.2,0.5-0.3c0.2-0.2,0.5-0.2,0.7-0.2c0.1,0,0.3,0,0.4,0.1L361.1,43z M365.3,59l0.1,0.2c0.1,0,0.3,0.1,0.5,0.1
		s0.4,0.1,0.5,0.3c0,0.1-0.1,0.2-0.2,0.3s-0.1,0.2-0.1,0.4c0,0.1,0.1,0.3,0.2,0.6s0.1,0.6,0.1,0.9c0,0.2,0,0.4,0,0.5
		c-0.1,0.2-0.3,0.5-0.4,1c-0.1,0.2-0.2,0.3-0.3,0.5c-0.1,0.1-0.2,0.2-0.3,0.3c-0.5,0.2-1.4,0.4-2.6,0.6l-1.1,0.2
		c-0.4,0.1-0.7,0.3-1.1,0.5s-0.7,0.5-1,0.8c-0.2,0.2-0.5,0.5-0.9,0.7c-0.8,0.5-2,1.2-3.6,2.2c-0.2,0.2-0.5,0.4-0.8,0.6
		c-0.4,0.3-0.7,0.6-0.9,0.8s-0.4,0.5-0.6,0.8c0.2,0.3,0.4,0.6,0.7,0.9c0.3,0.3,0.5,0.4,0.5,0.5l0.9,0.9c0.4,0.6,0.7,1.1,1,1.7
		c0.2,1,0.3,1.7,0.3,2.3c0,1.2-0.4,2-1.1,2.6h-0.1c-0.4,0-0.7-0.3-1-0.8c-0.2-0.3-0.4-0.6-0.5-0.9c0-0.1,0-0.3-0.1-0.7
		c-0.1-0.4-0.2-0.7-0.3-1c-0.3-1-0.5-1.7-0.7-2.3c-0.2-0.5-0.5-1-0.9-1.5c-0.2-0.2-0.7-0.4-1.4-0.6c-0.1-0.1-0.1-0.2-0.1-0.4l0-0.5
		l0.8-0.6l1.1-0.5c0.9-0.4,1.7-0.7,2.3-1.1c0.6-0.3,1.2-0.8,1.7-1.3c0.1-0.1,0.2-0.3,0.4-0.5c0.2-0.3,0.4-0.4,0.6-0.6
		c0.1-0.1,0.4-0.3,1-0.8c0.8-0.6,1.2-0.9,1.2-1.1c0-0.2-0.2-0.2-0.5-0.3c0-0.1,0.1-0.1,0.2-0.2c0.1-0.1,0.1-0.2,0-0.2l-1,0.1
		c-1,0.1-1.7,0.2-2.1,0.1c-0.3-0.1-0.6-0.1-1-0.1s-0.8-0.1-1.1-0.2s-0.6-0.2-0.8-0.4c0-0.1-0.1-0.3-0.1-0.4
		c-0.1-0.2-0.1-0.3-0.1-0.4c0-0.1,0-0.2,0.1-0.4h0.1c0.1,0,0.2,0,0.2,0.1c0.1,0.1,0.1,0.1,0.2,0.2c0.1,0,0.2,0,0.5,0
		c0.3,0,0.7,0,1.1-0.2s0.8-0.2,1-0.2l0.9-0.3c2.4-0.8,4-1.5,4.9-1.9c0.2-0.2,0.6-0.4,1.2-0.8c0.5-0.4,1.1-0.7,1.5-0.8
		c0.4-0.1,0.6-0.1,0.8,0L365.3,59z M367.3,65.8c0.1,0,0.2,0.1,0.5,0.2s0.4,0.2,0.5,0.3c0.3,0.5,0.5,0.9,0.6,1.5
		c0.1,0.5,0.1,1.1,0.1,1.6c0,0.6,0,1,0.1,1.3c0,0.7-0.2,1.4-0.5,2c-0.3,0.6-0.8,1.4-1.4,2.3c-0.2,0.4-0.5,0.9-1,1.6
		c0.3,0.2,0.6,0.3,0.9,0.4c1.4,0,2.9,0.1,4.6,0.2c0.1,0,0.2,0,0.4,0c0.2,0,0.4,0.1,0.5,0.1v0c-1,0.3-1.7,0.6-2.2,0.8
		c-0.6,0.1-1.2,0.2-1.8,0.4c-0.4,0.3-0.8,0.6-1.4,0.7s-1.2,0.3-2,0.4c-0.5,0.1-0.9,0.1-1.1,0.2c-0.1,0.1-0.3,0.3-0.6,0.7
		c-0.1,0.1-0.4,0.2-0.7,0.4c-0.3,0.2-0.6,0.3-0.8,0.3h-0.1c-0.1,0-0.2,0-0.4,0.1c-0.2,0-0.3,0-0.4-0.1c0-0.2-0.1-0.4-0.3-0.6
		s-0.3-0.4-0.4-0.5c-0.1-0.2-0.1-0.4-0.1-0.6l0-0.8c0-0.1-0.1-0.3-0.1-0.5c-0.1-0.2-0.1-0.3-0.1-0.4c0-0.2,0.1-0.3,0.2-0.4
		c0-0.1,0-0.3,0-0.5c0-0.2,0-0.4,0-0.5c0.1-0.2,0.3-0.4,0.5-0.7s0.4-0.6,0.6-0.6c0.1-0.1,0.2-0.3,0.3-0.5c0.1-0.2,0.2-0.4,0.3-0.6
		c0.1-0.1,0.2-0.2,0.3-0.3s0.2-0.3,0.3-0.4c0.1-0.2,0.4-0.6,0.7-1c0.3-0.4,0.6-0.8,0.8-1.2c-0.1-0.2-0.4-0.4-0.9-0.4
		c-0.2,0.1-0.6,0.2-1.1,0.3c-0.5,0.1-0.9,0.3-1.3,0.5c-0.2,0-0.5,0-0.8,0.2c-0.3,0.2-0.5,0.3-0.7,0.3c-0.4,0.1-0.7,0.1-0.9,0.1
		l-0.7-0.1c-0.6-0.1-1.1-0.3-1.5-0.5c0-0.1,0-0.3-0.1-0.5c-0.1-0.2-0.1-0.4-0.1-0.5c0-0.2,0.1-0.3,0.4-0.3c0.2,0.1,0.4,0.1,0.6,0.1
		c0.1,0,0.4,0,0.7-0.1c0.3-0.1,0.6-0.1,0.8-0.2c0.1,0,0.2-0.1,0.3-0.1c0.1,0,0.2-0.1,0.3-0.1c0,0,0-0.1-0.1-0.2
		c1.2-1,2.8-1.8,4.8-2.6c0.2,0,0.6-0.1,1.1-0.4c0.4-0.2,0.8-0.3,1-0.3c0-0.3,0.1-0.5,0.3-0.6c0.2-0.1,0.5-0.2,0.8-0.1L367.3,65.8z"
		/>
</g>
<g id="JQB" class="st1">
	<path id="JU" class="st2" d="M229.7,43.3c0.1,0,0.3,0.1,0.5,0.3s0.4,0.2,0.5,0.3c0.1,0.1,0.2,0.2,0.3,0.3c0.1,0.1,0.2,0.2,0.3,0.3
		c0.1,0.1,0,0.2-0.1,0.3c0.1,0.2,0.2,0.3,0.2,0.5c0,0.2-0.1,0.5-0.2,0.7s-0.3,0.5-0.3,0.6c-0.2,0.1-0.4,0.1-0.6,0.1
		c-0.2,0-0.3,0-0.4,0c-0.4,0.1-1,0.2-1.9,0.4c-0.8,0.2-1.3,0.4-1.6,0.5c0,0,0,0,0.1,0.1s0.1,0,0.1,0c0,0,0.1,0.1,0.3,0.2
		s0.3,0.1,0.4,0c0.1,0,0.2,0,0.4,0s0.4,0.1,0.5,0.2c0.1,0.2,0.2,0.4,0.3,0.7s0.3,0.5,0.3,0.7l0.1,1c0,0.2,0,0.5,0,0.9
		c-0.1,0.4-0.1,0.7-0.1,1c0,0.5,0.1,0.9,0.2,1.1c0.1,0,0.2,0,0.4-0.1c0.2-0.1,0.3,0,0.2,0.2c-0.1,0.1-0.2,0.1-0.4,0.2
		c-0.1,0.1-0.3,0.1-0.4,0.2c-0.1,0.1-0.1,0.2-0.1,0.3c0.1,0.5,0.3,0.8,0.6,1.1c0.1,0.1,0.3,0.1,0.5,0.2s0.4,0.1,0.5,0.2
		c0.1,0.1,0.1,0.2,0.1,0.4c-0.1,0.2-0.3,0.4-0.6,0.6c-0.2,0.2-0.4,0.4-0.6,0.5c-0.1,0.1-0.2,0.2-0.4,0.4c-0.1,0.2-0.3,0.3-0.3,0.4
		c-0.1,0.4-0.1,0.8-0.2,1.3s0,0.9,0,1.1c0,0.2,0,0.4,0,0.8c-0.1,0.3-0.1,0.6-0.1,0.8c-0.1,0.7-0.1,1.1-0.1,1.4
		c0,0.4,0.1,0.6,0.2,0.6c0.1,0,0.2-0.1,0.4-0.4l1.6-0.7c0.1,0,0.2-0.1,0.3-0.1s0.3-0.1,0.3-0.2c0.1-0.5,0.1-0.9,0.1-1.4
		c0-0.6-0.1-1.6-0.4-3l-0.2-0.5c0,0,0,0,0.1,0c0.1,0,0.1,0,0.3,0.1c0.1,0.1,0.3,0.1,0.5,0.2c0.1,0.1,0.2,0.2,0.4,0.3
		s0.3,0.2,0.4,0.3c0.7-0.3,1.2-0.8,1.7-1.5l-0.8-0.5c-0.1-0.1-0.4-0.1-0.7-0.2c-0.3-0.1-0.6-0.3-0.7-0.5c-0.3,0-0.5-0.1-0.8-0.3
		c-0.3-0.2-0.4-0.3-0.6-0.4c-0.7-0.1-0.9-0.3-0.8-0.6c0.1-0.1,0.2-0.2,0.3-0.4c0.1-0.2,0.2-0.3,0.2-0.4c0.3-0.1,0.6-0.2,1-0.2
		s0.7-0.1,0.9-0.2c0.2,0,0.4,0,0.7,0c0.3,0,0.6,0,0.9,0c0.9,0.4,1.5,0.7,1.9,1c0.1,0.1,0.2,0.1,0.3,0.1c0.1,0,0.2-0.1,0.2-0.3
		c0.4-0.4,0.5-0.9,0.5-1.5l-1.9,0c-0.5-0.3-1.2-0.9-2-1.7c-0.3-0.4-0.6-0.8-0.6-1.1c0.5,0.2,1,0.3,1.5,0.3s1.1-0.1,1.9-0.3
		c0.3-0.3,0.6-0.6,1.1-0.8s0.8-0.4,1-0.5c0.1,0,0.3-0.1,0.5-0.1c0.3-0.1,0.5-0.2,0.5-0.4c0.1-0.2,0.3-0.2,0.5-0.1s0.2,0,0.1-0.1
		l0.6-0.4c0.2,0.1,0.4,0.2,0.7,0.3c0.2,0.1,0.5,0.2,0.7,0.3c0.2,0.3,0.4,0.6,0.5,1c0.1,0.4,0.1,0.7,0.1,1.1c0,0.4,0,0.7,0.1,0.9
		c-0.1,1.1-0.3,2-0.6,2.7c-0.4,0.7-0.9,1.8-1.7,3.2c0.2,0.2,0.6,0.3,1,0.4c0.4,0.1,0.7,0.2,0.9,0.2c0.6,0.2,1.1,0.5,1.6,0.8
		c0.3,0.1,0.7,0.2,1,0.5c0.4,0.3,0.6,0.5,0.7,0.6c0.2,0.2,0.5,0.4,0.9,0.8c0.7,0.7,1.3,1.1,1.8,1.3c0.7,0.6,1.4,1,2,1l0,0
		c-0.2,0.1-0.6,0.2-1.1,0.4c-0.1,0.1-0.4,0.2-0.7,0.3s-0.6,0.2-0.8,0.2c-1,0.1-1.8,0.1-2.3,0.1c-1,0-1.8-0.1-2.6-0.2
		c-0.1-0.1-0.4-0.2-0.6-0.2s-0.5-0.1-0.6-0.2c-0.4,0-0.9-0.2-1.5-0.5c-0.1,0-0.2-0.1-0.5-0.1c-0.2,0-0.4-0.1-0.5-0.3
		c-0.1-0.2-0.3-0.4-0.6-0.8c-0.3-0.4-0.5-0.7-0.7-0.8c-0.5,0.7-0.9,1.2-1.2,1.5c-0.1,0.1-0.1,0.3-0.1,0.5c0,0.3,0.1,0.5,0.2,0.7
		c-0.1,0.1-0.1,0.3-0.3,0.5s-0.3,0.5-0.5,0.6c-0.4,0.2-0.9,0.3-1.5,0.5s-1,0.2-1.2,0.3c-0.2,0.2-0.4,0.3-0.5,0.5v1.6
		c0,2.1,0.1,3.2,0.1,3.2c0,0,0.1-0.2,0.2-0.6c0.2-0.3,0.6-0.6,1.1-0.9s0.8-0.6,1.1-0.7c0.2,0,0.5-0.1,0.7-0.3
		c0.2-0.2,0.3-0.2,0.4-0.3c0.2-0.1,0.5-0.3,0.8-0.5s0.5-0.3,0.8-0.4c0.2-0.1,0.5-0.1,0.8-0.1c0.1,0.1,0.2,0.1,0.4,0.1
		c0.2,0,0.4,0.1,0.5,0.1c0.1,0,0.2,0.1,0.2,0.3c-0.1,0.1-0.1,0.3-0.1,0.5c0,0.2,0.1,0.4,0.2,0.7v0.5c0,0.4-0.1,0.7-0.2,0.9
		c0,0.2-0.2,0.5-0.4,0.8c-0.2,0.3-0.4,0.5-0.5,0.7c-0.1,0.1-0.4,0.3-0.7,0.5c-0.3,0.2-0.6,0.4-0.7,0.6c-0.1,0.1-0.3,0.2-0.5,0.3
		c-0.3,0.1-0.4,0.3-0.4,0.5c0.1,0.1,0.3,0.2,0.5,0.3s0.3,0.1,0.4,0.2c0.4,0.2,1,0.3,1.7,0.5c0.3,0.1,0.7,0.2,1.1,0.3
		c0.4,0.1,0.8,0.2,1.3,0.4c0.4,0.2,0.8,0.3,1.3,0.3s0.8,0.1,1,0.1c1,0.2,1.8,0.4,2.2,0.6c0.6,0.3,1,0.6,1.3,0.8
		c0.1,0.1,0.5,0.3,1,0.6c0.2,0,0.4,0.1,0.5,0.2s0.3,0.3,0.5,0.5s0.3,0.4,0.5,0.5c0.2,0.2,0.4,0.4,0.6,0.7c0.1,0.1,0.3,0.2,0.5,0.2
		c0.2,0.1,0.3,0.1,0.4,0.1c0.1,0,0.4,0.1,0.8,0.1c0.4,0.1,0.7,0.1,0.9,0.2l-0.7,0.1c-0.5,0-0.9,0.1-1.4,0.2s-0.9,0.3-1.3,0.4
		c-0.2,0.2-0.5,0.3-0.8,0.3s-0.6,0.1-0.9,0.1s-0.7,0.1-0.9,0.1h-1.8c-0.8,0-1.4,0-1.8,0c-0.3-0.1-0.7-0.1-1.2-0.1
		c-0.1,0-0.3,0-0.5,0c-0.2,0-0.5-0.1-0.7-0.1c-0.4-0.1-0.6-0.2-0.9-0.3c-0.1-0.2-0.4-0.3-0.7-0.4c-0.4-0.2-0.9-0.5-1.6-0.9
		c-1.2-1-2.3-1.8-3.2-2.5c-0.1-0.1-0.4-0.2-0.7-0.5c-0.3-0.2-0.6-0.4-0.8-0.5c-0.1,0.3-0.2,0.7-0.2,1.2s0,0.8-0.1,1.1
		c0,0.2-0.1,0.5-0.1,0.8c-0.1,0.4-0.1,0.7-0.2,1c-0.1,0.3-0.2,0.6-0.3,0.8c0,0.1-0.1,0.3-0.2,0.6s-0.3,0.5-0.5,0.6
		c-0.1,0-0.3,0.1-0.7,0.2s-0.6,0.2-0.8,0.1c-0.2-0.1-0.4-0.3-0.6-0.5c-0.2-0.2-0.3-0.4-0.4-0.5c-0.1-0.2-0.3-0.5-0.6-1
		s-0.5-1-0.7-1.4c-0.1-0.2-0.2-0.7-0.3-1.4c-0.1-0.7-0.2-1.4-0.3-1.9l-2.2,2c-0.2,0.2-0.5,0.4-0.9,0.6s-0.7,0.5-1.1,0.6
		c-0.4,0.4-0.9,0.7-1.5,1s-1,0.6-1.2,0.7c-0.1,0-0.2,0.1-0.4,0.2c-0.2,0.1-0.4,0.1-0.5-0.1l-0.4,0.1c-0.1,0-0.3,0-0.6-0.1
		c-0.2-0.1-0.3-0.2-0.3-0.5c0-0.2,0.1-0.3,0.1-0.5c0.3-0.4,0.9-0.9,1.7-1.6c0.5-0.4,0.9-0.8,1.3-1.1c0.1-0.1,0.2-0.1,0.5-0.2
		c0.2-0.1,0.3-0.2,0.4-0.4l0.9-0.6c0.1-0.1,0.3-0.3,0.6-0.7c0.3-0.3,0.6-0.6,0.8-0.8c0.1,0,0.1,0.1-0.1,0.3l-0.9,1
		c-0.1,0.1-0.3,0.3-0.7,0.7c-0.4,0.4-0.7,0.8-0.8,1.2c0.1,0,0.3-0.2,0.6-0.4c0.1-0.1,0.3-0.2,0.5-0.3c0.2-0.1,0.3-0.3,0.4-0.4
		c0.7-0.5,1.4-0.9,1.9-1.5c0.6-0.5,1.3-1.2,2.2-2.1l1.3-1.3c-0.1,0-0.2,0-0.5,0h-0.3c-0.5,0-0.8-0.1-1-0.4c0.2-0.2,0.5-0.5,1-0.8
		c0.1-0.1,0.3-0.2,0.6-0.3c0.3-0.1,0.5-0.2,0.8-0.1c0.1-0.1,0.4-0.2,0.7-0.2v-0.7c0-0.5,0-0.8,0.1-1c0-0.6,0-1.2-0.1-1.5
		c-0.1-0.4-0.4-0.5-0.8-0.3c-0.3,0.2-0.6,0.5-0.8,1.1c-0.1,0-0.2,0.1-0.4,0.3s-0.3,0.2-0.5,0.3c-0.1,0.1-0.2,0-0.4-0.1
		c-0.2-0.2-0.4-0.4-0.6-0.6c-0.6,0.2-1.3,0.4-2,0.7l-1.1,0.4l-1.1,0.6c-0.7,0.4-1.4,0.6-1.9,0.8s-1,0.3-1.5,0.3
		c-0.1,0-0.2-0.1-0.3-0.2s-0.2-0.2-0.2-0.3c0.1-0.2,0.2-0.3,0.2-0.3s0.1,0,0.3,0.1c0.1,0.1,0.2,0.1,0.4,0.1c0.8-0.2,1.6-0.5,2.4-1
		c0.8-0.4,1.3-0.7,1.4-0.7c0.7-0.3,1.4-0.7,2.1-1.1c0.4-0.2,0.6-0.5,0.6-0.9c0-0.1,0-0.2-0.1-0.4c-0.2-0.2-0.6-0.6-1.3-1.2l1.2-0.4
		c0-0.2,0-0.4,0.1-0.7c0.1-0.3,0.1-0.6,0.1-0.8c0-0.3-0.1-0.5-0.3-0.6c-0.1,0.2-0.2,0.3-0.5,0.4c-0.2,0.1-0.4,0.2-0.5,0.3
		c-0.4,0.1-0.7,0.3-0.8,0.6c-0.2,0.2-0.6,0.3-0.9,0.6c-0.4,0.2-0.7,0.4-1,0.5c-0.2,0.3-0.5,0.5-0.9,0.7s-0.7,0.4-0.9,0.5
		c-0.9,0.7-1.4,1.2-1.6,1.3c-0.1,0.1-0.3,0.3-0.4,0.5c-0.1,0.2-0.3,0.3-0.4,0.4c-0.1,0.1-0.3,0.1-0.5,0.1c-0.2-0.2-0.4-0.4-0.6-0.8
		s-0.4-0.6-0.5-0.8c-0.1-0.2-0.2-0.5-0.5-0.9c0-0.1-0.1-0.2-0.3-0.4c-0.1-0.2-0.2-0.4-0.2-0.6c0-0.2,0.1-0.4,0.4-0.5
		c0.1,0,0.2-0.1,0.5-0.2s0.4-0.2,0.7-0.1c0.3,0.1,0.6,0.2,0.9,0.1c0.7-0.4,1.4-0.6,2-0.7c-0.1,0-0.2-0.1-0.4-0.3
		c-0.2-0.2-0.4-0.4-0.5-0.7c-0.1-0.6-0.1-1.2-0.1-1.6c0.1-0.7,0.3-1.4,0.6-2.1c0.3-0.8,0.4-1.2,0.5-1.4c0.1-0.3,0.3-0.7,0.5-1.2
		c0.1-0.2,0.2-0.5,0.4-0.9c0.2-0.4,0.3-0.7,0.4-1c0-0.1,0.2-0.4,0.4-0.8c0.2-0.4,0.3-0.7,0.3-0.8s-0.1-0.2-0.4-0.2
		c-0.1,0-0.2,0.1-0.5,0.2s-0.5,0.3-0.7,0.5c-0.1,0-0.3,0.1-0.4,0.2c-0.1,0.2-0.2,0.3-0.2,0.3c-0.1,0.1-0.3,0.2-0.5,0.3
		s-0.4,0.2-0.6,0.3c-0.2,0-0.3,0-0.5-0.1c-0.4-0.2-0.8-0.5-1.1-0.8c-0.3-0.3-0.6-0.8-1-1.3c-0.1-0.3-0.2-0.6-0.5-1.1
		c-0.2-0.5-0.3-0.8-0.3-1.2c0-0.2,0-0.3,0.1-0.4c0.1-0.2,0.2-0.3,0.3-0.3s0.3-0.1,0.3-0.1h0.1c0.1,0,0.3,0.1,0.5,0.2
		s0.4,0.2,0.6,0.1c0.2,0.1,0.4,0.2,0.7,0.3c0.3,0.1,0.5,0.2,0.7,0.3c0.2,0.1,0.4,0.1,0.7,0c0.2-0.1,0.5-0.2,1-0.3s0.8-0.3,1-0.5
		c0.8-0.2,1.8-0.8,3.2-1.6c0.8-0.5,1.4-0.8,1.8-1c0.6-0.3,1.1-0.5,1.7-0.7l1-0.4c0.2-0.1,0.5-0.2,0.8-0.3s0.6-0.2,0.9-0.1
		L229.7,43.3z M224.6,69.4L224.6,69.4c0.2,0,0.3,0.1,0.5,0.2c0.1,0.1,0.2,0.3,0.2,0.4c0,0.2-0.1,0.3-0.3,0.4c0,0.2-0.1,0.4-0.3,0.5
		s-0.3,0.3-0.4,0.3c-0.6,0.6-1.1,0.9-1.4,1.2c-1.4,1.2-2.4,2.2-3.1,2.8c-0.1,0.1-0.3,0.2-0.6,0.3c-0.2,0.2-0.5,0.3-0.7,0.3
		c-0.1,0-0.1,0-0.2,0c-0.2,0-0.4,0-0.5-0.1c-0.1-0.1-0.2-0.2-0.2-0.4s0.1-0.3,0.2-0.4c0.3-0.5,0.7-0.9,1.1-1.3
		c0.4-0.4,1-0.9,1.7-1.5l1-0.8l0.8-0.6c0.9-0.7,1.5-1.2,2.1-1.4L224.6,69.4z M225.9,55.8l-1.3,0.7c-0.9,0.5-1.6,1.1-2.3,1.6
		l-0.9,0.6c-0.3,0.1-0.6,0.2-0.9,0.3c-0.1,0.1-0.2,0.3-0.3,0.5c0,0.2-0.1,0.4-0.1,0.5c-0.1,0.4-0.1,0.7-0.2,0.9
		c0,0.1-0.1,0.2-0.2,0.3c-0.1,0.2-0.2,0.3-0.4,0.4l0.7-0.1c0.1,0,0.2-0.1,0.3-0.1c0.1,0,0.2-0.1,0.2-0.2c0.4,0,0.8-0.1,1.2-0.4
		l1.2-0.6c0.5-0.3,0.9-0.5,1.1-0.6c0.6-0.4,1.1-0.9,1.4-1.6C225.8,57.4,225.9,56.7,225.9,55.8L225.9,55.8L225.9,55.8z M222.4,53.5
		c-0.5,0.2-0.9,0.5-1.1,0.8c-0.1,0.3-0.2,0.6-0.2,1.1c-0.1,0.4-0.1,0.7,0,0.7c0,0,0.1-0.1,0.2-0.3c0.7-0.5,1.6-1.4,2.6-2.6
		c-0.1-0.1-0.2-0.1-0.2-0.1c-0.1,0-0.2,0-0.3,0.1c-0.1,0-0.2,0.1-0.3,0.1L222.4,53.5z M224.8,47.9l-0.8,0.7
		c-0.1,0.2-0.3,0.3-0.5,0.6s-0.4,0.4-0.4,0.6c0,0.1-0.1,0.3-0.1,0.6c-0.1,0.3-0.2,0.5-0.5,0.7c0.1,0.3,0,0.6-0.2,0.9
		c-0.2,0.3-0.4,0.6-0.5,0.8l0.1,0c0.1,0,0.2-0.1,0.3-0.2s0.3-0.2,0.4-0.1c0.4-0.2,0.9-0.6,1.5-1c0.7-0.5,1.2-0.9,1.7-1.1
		c0.2,0,0.3-0.1,0.3-0.2c0.1-0.1,0.1-0.2,0.1-0.4c0.1-0.1,0.1-0.2,0.1-0.4v-0.2c0-0.2,0.1-0.3,0.1-0.4l-0.4-0.8
		c0-0.1-0.1-0.1-0.2-0.2s-0.3,0-0.4,0c-0.1,0-0.2,0-0.1-0.2c0-0.1-0.1,0-0.2,0L224.8,47.9z M226.3,52.4l-0.4,0.4
		c0,0.1-0.1,0.2-0.2,0.4c-0.1,0.2-0.1,0.3-0.1,0.5c0,0,0.1,0,0.1,0c0.1,0,0.2,0,0.3-0.1s0.2-0.1,0.2-0.1l0.1-0.5L226.3,52.4
		L226.3,52.4z M228.5,73l-0.2,0.2c-0.6,0.7-0.9,1.1-0.9,1.4c0,0.2,0.1,0.3,0.4,0.3c0.3-0.1,0.6-0.2,0.9-0.4c0.2-0.2,0.3-0.4,0.3-0.7
		c-0.1-0.1-0.2-0.2-0.2-0.2c0-0.1,0-0.1,0.1-0.2s0.1-0.1,0.1-0.2c0,0-0.1-0.1-0.2-0.1L228.5,73z M234,68.9l-0.8,0.5
		c-0.1,0.1-0.2,0.2-0.4,0.4c-0.2,0.2-0.3,0.3-0.4,0.4c-0.1,0.1,0,0.1,0.2,0.1c0.2-0.1,0.4-0.2,0.8-0.5c0.3-0.4,0.5-0.6,0.5-0.7V68.9
		z"/>
	<path id="QIAN" class="st2" d="M277.5,52.6l1,0c0.1,0,0.3,0.1,0.5,0.1s0.5,0.1,0.7,0.2c0.1,0,0.2,0,0.4,0c0.2,0,0.3,0,0.5,0
		c0.8,0.5,1.3,1,1.7,1.4c0.4,0.4,0.5,0.9,0.4,1.5c0.3,0.2,0.7,0.3,1.1,0.3c0.4,0.1,0.7,0.1,0.9,0.2c0.7,0.1,1.3,0.1,1.7,0.1
		c0.7,0,1.8-0.1,3.2-0.2c0.4-0.1,1-0.1,1.7-0.2c0.2,0.3,0.6,0.7,1.1,1.3c0.5,0.4,0.9,0.9,1.2,1.4c0,0.2-0.1,0.4-0.2,0.6
		s-0.3,0.3-0.3,0.4c-0.6,0.3-1.1,0.5-1.5,0.6c-0.4,0-0.9,0-1.4-0.1s-0.9-0.1-1.1-0.1c-2.1,0.2-4.4,0.5-7.1,1.1l-0.1,2.5
		c-0.1,2.2-0.1,3.8-0.2,4.8c0,0.7,0,1.2,0,1.5c0,1.3,0,2.3-0.1,3c-0.1,0.2-0.2,0.4-0.2,0.6s0,0.5,0,0.6c-0.1,0.2-0.2,0.4-0.2,0.6
		s0,0.3,0,0.3c-0.1,0.3-0.2,0.7-0.3,1.3c-0.1,0.1-0.2,0.3-0.2,0.5s-0.1,0.4-0.1,0.5c-0.1,0.2-0.2,0.3-0.2,0.5c0,0.2-0.1,0.3-0.2,0.4
		c-0.3,0.8-0.6,1.4-0.9,1.8c0-0.1,0-0.3,0.1-0.5c0-0.2,0.1-0.4,0-0.5c0-0.1-0.1-0.1-0.2,0c-0.1,0.3-0.2,0.7-0.5,1.1
		c-0.3,0.6-0.5,1-0.5,1.3c-0.1,0.1-0.1,0.3-0.2,0.5c-0.1,0.2-0.1,0.3-0.2,0.4c-0.1,0.1-0.2,0.1-0.3,0.1l0-0.4c0-0.2,0.1-0.5,0.2-0.7
		c0-0.2,0.1-0.4,0.2-0.8c0.1-0.4,0.2-0.7,0.2-0.8c0-0.2-0.1-0.4-0.4-0.4c0.1-1.8,0.1-3.1,0.1-4c0-0.9,0-2.4-0.1-4.5l0-2.3
		c-0.2-2.4-0.4-4.3-0.5-5.6c0-0.1,0-0.3,0-0.4s0-0.3-0.1-0.4s-0.1-0.1-0.3-0.1c-0.3,0.2-0.8,0.3-1.3,0.5c-0.5,0.1-0.9,0.2-1.1,0.3
		c-2,0.7-3.6,1.1-4.9,1.4c-0.7,0.3-1.8,0.6-3.2,1.1c-0.1,0-0.3,0.1-0.7,0.2c-0.4,0.1-0.7,0.1-1,0.1c-0.3,0-0.6-0.1-0.8-0.2
		c-0.5-0.5-0.9-1-1.1-1.6c-0.3-0.6-0.5-1.2-0.7-1.8c-0.2-0.6-0.3-1-0.3-1.1c0-0.1,0-0.3,0-0.5c0-0.5,0.2-0.9,0.5-1l0.3,0.5l0.9,0.5
		c0.5,0.2,0.9,0.3,1.1,0.3c0.7-0.2,1.5-0.4,2.4-0.4c0.9-0.1,1.5-0.1,1.8-0.2c2.1-0.2,3.6-0.5,4.6-0.6c0.9-0.2,1.8-0.4,2.6-0.5l1-0.2
		c0-0.2,0.1-0.4,0.2-0.6c0.1-0.2,0.1-0.4,0.1-0.6c0-0.1,0-0.2-0.1-0.4v-0.1c0-0.2-0.1-0.4-0.3-0.8c-0.3-0.4-0.5-0.9-0.5-1.4
		c0-0.2,0-0.4,0-0.5c0,0-0.1-0.1-0.2-0.2c-0.1-0.1-0.1-0.1-0.1-0.2c0-0.1,0-0.1,0.1-0.2c0.1-0.1,0.2-0.2,0.4-0.4
		c0.2-0.2,0.3-0.3,0.5-0.5s0.4-0.2,0.6-0.2L277.5,52.6L277.5,52.6z M263.4,65.5C263.5,65.6,263.5,65.6,263.4,65.5
		C263.4,65.6,263.4,65.6,263.4,65.5L263.4,65.5z M281.4,43.8c0.2,0.3,0.8,0.8,1.6,1.7c0.1,0.1,0.3,0.4,0.6,0.8
		c0.3,0.4,0.5,0.8,0.7,1.1c0.1,0.3,0.1,0.5,0.1,0.8c0,0.9-0.4,1.9-1.3,2.7c-0.2,0.1-0.3,0.1-0.5,0s-0.3-0.2-0.6-0.3
		c-0.2-0.2-0.5-0.2-0.6-0.2c-0.4,0-0.9,0.1-1.4,0.2s-0.8,0.2-0.9,0.2l-1.1,0.3l-1.4,0.2c-1.5,0.3-3,0.5-4.4,0.7l-1.8,0
		c-0.7,0-1.3,0.1-1.8,0.2l1-0.7c0.8-0.5,1.3-0.9,1.6-1.1c0.2-0.3,0.4-0.6,0.7-0.9c0.3-0.2,0.5-0.5,0.8-0.7c0.3-0.2,0.5-0.4,0.6-0.5
		c0.9-0.5,1.4-0.8,1.6-1c0.1-0.1,0.5-0.2,1-0.4c0.5-0.2,0.9-0.4,1.1-0.7c0.4,0,0.9-0.1,1.4-0.3s0.8-0.3,1-0.4
		c0.1-0.1,0.2-0.3,0.2-0.5v-0.3c0-0.2,0.1-0.4,0.3-0.5c0.2,0,0.5-0.2,0.7-0.5c0.1,0,0.1-0.1,0.2-0.2c0.1-0.1,0.2-0.1,0.2-0.1
		s0.1,0,0.2,0.1L281.4,43.8z M279.6,78.6c-0.1,0.1-0.1,0.1,0,0.1C279.6,78.7,279.7,78.7,279.6,78.6L279.6,78.6L279.6,78.6
		L279.6,78.6z M282.5,56.7c0.1,0.1,0.2,0.2,0.2,0.1s0.1-0.1,0.1-0.1C282.8,56.6,282.7,56.6,282.5,56.7L282.5,56.7z"/>
	<path id="BAO" class="st2" d="M313.9,45.7l0.5,0.3c0.2,0.2,0.5,0.4,0.8,0.7c0.3,0.3,0.5,0.5,0.6,0.6c0.8,0.9,1.5,2.2,2.3,3.7
		c0,0.2,0.1,0.3,0.2,0.5c0.1,0.2,0.1,0.4,0.1,0.5c0,0.1,0,0.2-0.1,0.4c0,0-0.1,0.1-0.3,0.1c-0.1,0.1-0.3,0.1-0.4,0
		c-0.5,0.4-1,1.1-1.6,2.2l-0.5,0.8c-0.3,0.7-0.5,1.3-0.6,1.6c0,0.2-0.1,0.3-0.1,0.5c0,0.2,0,0.4,0,0.7c0.1,0.2,0.2,0.3,0.2,0.6
		s0,0.4,0,0.5c0,0.2-0.1,0.6-0.2,1.1c-0.1,0.5-0.2,0.8-0.2,1c0,0.4,0.1,0.7,0.4,0.8c0,0.1-0.1,0.3-0.3,0.6s-0.2,0.7-0.1,1.1
		c0.1,0.2,0.1,0.6,0.2,1.1c0,0.2,0.1,0.4,0.1,0.6s0,0.5,0,0.8c0,0.4-0.1,0.5-0.4,0.4l-0.1,1.9c0,0.1,0,0.3,0,0.6
		c0,0.3,0.1,0.5,0.2,0.7l0.3,2.8c0,0.6,0,1.2-0.1,1.8c-0.1,0.5-0.4,1.1-0.6,1.7c-0.7,1.1-1.2,1.8-1.5,2.2c-0.3,0.2-0.5,0.3-0.6,0.4
		c-0.2-0.2-0.4-0.4-0.6-0.7s-0.3-0.6-0.4-0.8c-0.1-0.3-0.3-0.7-0.5-1.1c-0.2-0.9-0.4-1.8-0.4-2.8s-0.1-1.6-0.1-1.8
		c0-0.7,0.1-1.6,0.3-2.9l0.2-1.3c0-0.2,0-0.5,0.1-1c0.1-0.7,0.1-1.2,0.1-1.5c0-0.4,0-0.6,0-0.8l-0.5,0.4c-0.1,0.1-0.3,0.4-0.5,0.9
		s-0.5,0.8-0.8,0.9c-2.2,2.9-4.5,4.9-7.1,6.1c-0.3,0.1-0.7,0.2-1.1,0.2c-0.4,0-0.7,0.1-0.8,0.1c1.3-1.3,2.6-2.8,3.9-4.6
		c1-1.5,1.9-3.1,2.7-4.8s1.7-3.7,2.7-6.1l1.1-2.8c1.1-2.5,1.9-4.6,2.4-6.2c0.1-0.1,0.2-0.3,0.3-0.5c0.1-0.2,0.2-0.4,0.2-0.5
		c0-0.2,0-0.3-0.1-0.4c-0.1-0.1-0.2-0.2-0.3-0.4s-0.3-0.3-0.3-0.5c-0.1-0.2-0.1-0.3-0.1-0.5c0.1-0.1,0.2-0.1,0.3-0.1
		c0.1,0,0.3,0,0.4,0.1c0.2,0,0.3,0.1,0.4,0.1L313.9,45.7z M335.6,46.3c0.4,0.2,0.7,0.6,0.9,1c0.1,0.7,0.1,1.6,0.1,2.7
		c-0.1,0.4-0.2,0.7-0.3,1c-0.2,0.3-0.4,0.7-0.8,1.2c-1,1.2-1.7,2-2,2.3c0,0.1-0.1,0.2-0.2,0.3c-0.1,0.2-0.2,0.3-0.3,0.4
		c-0.3,0-0.4,0.2-0.4,0.5c0,0.2,0,0.3,0.2,0.5c0.1,0.2,0.2,0.3,0.4,0.4c0.2,0.1,0.5,0.2,0.8,0.3c0.4,0.1,0.6,0.2,0.8,0.4
		s0.3,0.4,0.3,0.7c0,0.2-0.1,0.5-0.2,0.7c-0.1,0.2-0.2,0.4-0.3,0.5c-0.2,0.2-0.5,0.4-0.7,0.6c-0.2,0.1-0.6,0.2-1,0.3s-0.8,0.3-1,0.5
		c-0.2,0.1-0.5,0.2-0.8,0.2c-0.4,0.1-0.6,0.2-0.9,0.2l0.5,0.6c0.1,0.2,0.1,0.4,0.1,0.7c0,0.2,0.1,0.5,0.1,0.7c1.6,0,3.4-0.1,5.6-0.5
		h0.4c0.2,0,0.4,0,0.5,0.1c0.6,0.4,1,0.7,1.2,1c0,0.1,0,0.3,0,0.6c0,0.3,0.1,0.6,0.2,0.8v0.1c0,0.2,0,0.3-0.1,0.5
		c-0.1,0.2-0.1,0.3-0.2,0.5c0,0.1-0.1,0.2-0.2,0.3c-0.1,0.2-0.2,0.3-0.3,0.4c-0.3,0.2-0.9,0.3-1.7,0.5l-0.3-0.1
		c-0.2,0-0.4,0-0.5,0.1c-0.1,0-0.3,0.1-0.4,0.1c-1.6,0.1-2.8,0.1-3.6,0.1c-0.2-0.1-0.4-0.1-0.6-0.1c-0.3,0-0.4,0.1-0.3,0.4
		c0.1,0.2,0.4,0.3,0.6,0.5c0.3,0.1,0.5,0.2,0.6,0.3l0.8,0.5c0.6,0.3,1.1,0.6,1.5,1c1.8,1.1,3.9,2.7,6.4,4.6c1.2,1.1,2,1.8,2.4,2.2
		c0.1,0.2,0.3,0.5,0.5,0.7c0.1,0.2,0.3,0.3,0.5,0.5c0.1,0.1,0.1,0.2,0.2,0.3c0.1,0.1,0.2,0.2,0.2,0.3c0,0.1,0,0.2-0.1,0.3
		c-0.2,0.1-0.6,0.2-1,0.2c-0.5,0-1.4,0-2.6-0.1l-1.3-0.1c-0.2,0-0.4,0-0.7,0.2c-0.3,0.1-0.5,0.2-0.6,0.2c-0.1,0-0.3,0-0.4-0.1
		c-0.2-0.1-0.5-0.4-1-1c-0.1-0.1-0.2-0.2-0.4-0.4c-0.1-0.2-0.3-0.3-0.5-0.4c-0.4-0.8-1-1.5-1.6-2.2c-0.6-0.7-1.5-1.4-2.5-2.3
		c-0.1-0.2-0.4-0.4-0.7-0.7s-0.6-0.5-0.8-0.7l0,1l0,1c0,0.1,0,0.3,0,0.6s0.1,0.6,0.2,0.9c0.1,0.6,0.1,1,0.1,1.3c0,0.2,0,0.4,0,0.6
		c-0.2,0.4-0.4,0.9-0.6,1.4c-0.3,0.9-0.6,1.6-0.9,2c-0.1,0.1-0.1,0.2-0.3,0.3s-0.3,0.2-0.4,0.2c-0.4-0.3-0.8-0.6-1.2-1
		s-0.7-0.8-1-1.1c-0.3-0.4-0.6-0.7-0.8-0.9c-0.2-0.2-0.4-0.6-0.6-0.9c-0.2-0.4-0.5-0.7-0.8-0.9c-0.3-0.2-0.6-0.4-0.9-0.5h-0.2H322
		c-0.5,0-0.6-0.1-0.5-0.3c0.4-0.3,0.6-0.4,0.8-0.5c0.1,0,0.3-0.1,0.7-0.1c0.4-0.1,0.7-0.1,1-0.3l0.6-0.1c0.2,0,0.4,0.1,0.6,0.1
		L326,74c0.3,0,0.5-0.1,0.7-0.1c0.1-0.1,0.2-0.3,0.3-0.5c0.1-0.8,0.1-1.4,0.1-1.8l0-2.3c-0.5,0.5-0.9,0.9-1.2,1.1
		c-1,1-1.8,1.6-2.3,1.9l-1.3,1.1c-1.1,0.9-2,1.7-2.6,2.4c-0.7,0.5-1.8,1-3.2,1.6c-0.1,0-0.2,0-0.4,0.1c-0.2,0.1-0.3,0-0.4-0.1
		c0.3-0.6,0.8-1.2,1.5-1.9l0.8-1c0.1-0.3,0.3-0.6,0.5-0.9c0.3-0.3,0.4-0.5,0.5-0.6l1.1-1c1.6-1.5,2.7-2.6,3.4-3.4
		c-0.4,0.2-0.9,0.4-1.5,0.5s-0.9,0.3-1.1,0.3c-0.3,0.1-0.5,0.2-0.7,0.3c-0.2,0.1-0.4,0.2-0.6,0.2c-0.7,0.3-1.2,0.5-1.6,0.7
		c-0.4,0.2-0.8,0.2-1.3,0.2c-0.1-0.1-0.2-0.3-0.3-0.6s-0.3-0.6-0.3-0.8c0-0.3,0-0.6,0-0.8c0-0.2,0.1-0.4,0.1-0.5s0.1-0.3,0.1-0.4
		c0-0.2,0-0.4,0-0.6c0.1-0.4,0.3-0.6,0.5-0.8h0.2c0.4,0,0.6,0.1,0.7,0.3c0,0,0,0.1,0,0.2s0.1,0.2,0.2,0.3c0.1,0,0.3-0.1,0.5-0.2
		c0.2-0.1,0.4-0.1,0.5-0.2c0.3-0.2,0.8-0.4,1.5-0.6c0.1-0.1,0.3-0.1,0.5-0.2s0.4-0.1,0.5-0.2c1.6-0.5,3.3-1,4.9-1.4
		c0.1-0.1,0.2-0.2,0.2-0.3c0-0.1,0-0.3-0.1-0.5c-0.1-0.2-0.1-0.4,0-0.5c0.1-0.2,0.2-0.5,0.2-0.8c0-0.2,0-0.3-0.1-0.3
		c-0.1-0.1-0.2-0.1-0.3,0c0-0.1-0.1-0.3-0.1-0.5s-0.1-0.4-0.2-0.5c-0.1-0.1-0.2-0.2-0.3-0.2c-0.4-0.5-0.5-1.2-0.5-2s0.2-1.7,0.5-2.7
		c0.1-0.1,0.2-0.2,0.3-0.3c0.1-0.1,0.2-0.1,0.3-0.2c0-0.1,0.1-0.2,0.2-0.4c0.1-0.2,0.2-0.4,0.3-0.5c0.1-0.1,0.4-0.2,0.6-0.3
		c0.2-0.1,0.4-0.2,0.5-0.2c0.3-0.2,1-0.8,2.1-1.8c0.1-0.1,0.3-0.3,0.5-0.5c0.2-0.2,0.4-0.3,0.5-0.5s0.1-0.3,0-0.5
		c-0.5-0.2-1.1-0.3-1.8-0.3c-0.4,0-0.8,0-1,0c-0.1,0-0.4,0-0.6,0c-0.2,0-0.5,0-0.8,0c-0.4-0.2-0.8-0.3-1.1-0.4
		c-0.1-0.1-0.4-0.1-0.7-0.2s-0.5-0.2-0.7-0.3c-0.1-0.5-0.2-0.9-0.2-1.1c0-0.1,0-0.2,0.1-0.4c0-0.2,0.1-0.3,0.2-0.2
		c0.1,0.1,0.3,0.2,0.4,0.3c0.1,0.1,0.2,0.2,0.2,0.3c0.1,0,0.2,0,0.2,0s0.2,0,0.2,0c0.2,0,0.5-0.1,0.8-0.2c0.3-0.1,0.6-0.1,0.9-0.1
		c0.2,0,0.3,0,0.4,0c2-0.4,3.6-0.8,4.8-1.1c0.4,0,1.1-0.2,1.9-0.5c0.1,0,0.2-0.1,0.4-0.2s0.4-0.2,0.6-0.2L335.6,46.3z M322.5,48.4
		c0.1,0.1,0.1,0.2,0.2,0.4c0.1,0.2,0.2,0.3,0.3,0.4c0.2,0.3,0.4,0.7,0.6,1.2c0.3,0.9,0.5,2.1,0.6,3.7c0.1,0.9,0.1,1.6,0.2,2
		c0.1,0.2,0.1,0.4,0.1,0.7c0,0.3,0,0.5,0,0.6c0,0.1,0,0.3,0.1,0.5c0,0.4-0.1,1-0.2,1.7c-0.1,0.2-0.2,0.5-0.4,0.7s-0.3,0.4-0.5,0.5
		c-0.2-0.1-0.4-0.2-0.5-0.4c-0.1-0.2-0.3-0.4-0.4-0.6c-0.1-0.2-0.2-0.4-0.3-0.5c-0.1-0.3-0.3-0.7-0.3-1.1c-0.1-0.4-0.1-0.7-0.2-0.9
		c-0.1-0.5-0.3-1-0.3-1.6c-0.1-0.8-0.2-1.3-0.3-1.4c0-0.4-0.1-1-0.2-1.8c-0.2-0.5-0.6-0.9-1.2-1.4c-0.1-0.1-0.1-0.2-0.1-0.3
		c0-0.1,0-0.2,0-0.3c-0.2-0.4-0.4-0.8-0.7-1.2c-0.3-0.4-0.5-0.7-0.6-0.9v0c0.6,0.2,1.1,0.3,1.4,0.3c0.2,0,0.5-0.1,0.8-0.2
		s0.6-0.2,0.8-0.2c0.1,0,0.3,0,0.5,0s0.4,0,0.5,0L322.5,48.4z M318.5,51c0.1,0.1,0,0.2,0,0.2C318.4,51.2,318.4,51.1,318.5,51
		L318.5,51z M319.4,66c-0.1,0.1-0.1,0-0.1-0.1l0.1-0.1C319.4,65.9,319.4,66,319.4,66z"/>
</g>
<path id="BiaoYu" class="st3" d="M372.3,42.1c0,0.2-0.5,0.4-1.5,0.5l-0.1,0.2c0.5,0,0.8,0.9,0.8,2.6h0.1l2.7-2.1
	c0.7,0.1,1.4,0.4,2.1,1.1v0.1c-0.4,0.8-0.7,1.4-1.1,1.8v0.1c0.8,0.2,1.7,0.6,2.5,1.3v0.1c0,0.1-0.1,0.2-0.3,0.3h-0.1
	c-1.4-0.4-2.1-0.7-2.1-0.8v-0.1h-0.8c-0.8,1.1-1.5,1.6-2,1.6c-0.2,0-0.5-0.2-0.9-0.6v0.1c0.1,0.5,0.1,0.9,0.1,1.2v0.1h0.1
	c1.4-0.7,2.6-1.1,3.5-1.4c0.3,0.4,0.5,0.5,0.8,0.5v0.1c0,0.1-1,0.7-2.9,1.8v0.1c0.3,0.4,0.5,0.6,0.5,0.6c-0.1,1.2-0.2,1.9-0.2,2.1
	c0.9-1.3,1.8-2.3,2.5-3h0.2c0.1,0,0.4,0.3,0.9,0.9v0.1c0,1-0.8,1.8-2.5,2.4V54c2.2,1.7,4.2,2.5,6.3,2.5c0.1-0.1,0.2-0.1,0.3-0.1
	l0.1,0.2v0.3c0,0.3-0.4,0.4-1.2,0.5c-1.8,0-3.3-0.6-4.4-1.9c-0.9-0.7-1.6-1.1-1.9-1.1c-0.2,0.4-0.4,1-0.5,1.8v0.1l0.2,0.3v0.1
	l-0.2,0.3c0.1,0,0.2,0.1,0.2,0.2c-0.1,0.2-0.1,0.3-0.2,0.3c0.1,0.1,0.1,0.6,0.2,1.3l-0.2,0.1c-0.7,0-1.1-0.5-1.3-1.5
	c0.2-0.6,0.3-0.9,0.3-1.1v-1.8c-1.7,1.2-2.8,1.8-3.4,1.9c-0.2,0-0.3-0.2-0.4-0.5l0.2-0.1c0,0.1,0.1,0.2,0.2,0.2
	c1.3-0.5,2.3-1.5,3.2-3c0.4-0.9,0.6-1.5,0.6-1.7v-0.2h-0.1l-0.2,0.1c-0.1-0.1-0.2-0.1-0.3-0.1c-0.2,0.5-1.9,2.3-5.2,5.4
	c-0.9,0.5-1.4,0.8-1.5,0.8l-0.1-0.2c0.8-0.2,2.9-2.2,6.2-6c0.1,0,0.7-0.5,1.9-1.6h-0.2c-0.5,0.3-1,0.7-1.6,1.3h-0.4
	c-0.1,0-0.1,0-0.1-0.1c-1.7,1-2.8,1.5-3.4,1.5l-0.3-0.4c1.1-0.4,2.2-0.9,3.3-1.6c-0.6-0.4-0.9-0.8-0.9-1.1l0.2-0.1
	c0,0.1,0.1,0.2,0.3,0.3l0.2-0.1c0,0.1,0,0.1,0.1,0.1V48c0-0.1,0-0.1,0.1-0.1c0-0.1,0-0.1-0.1-0.1l0.1-0.5v-0.3
	c-0.7,0.5-1.3,1.1-1.7,1.9l0.1,0.2v0.2c0,0.1-0.1,0.2-0.2,0.2h-0.1c-0.1,0-0.2-0.1-0.3-0.3c-0.1,0-0.6,0.4-1.4,1.2h-0.8
	c-0.1,0-0.2-0.1-0.4-0.4c1.5-1.2,2.2-1.9,2.3-2.1l0.1-0.8c-0.1-0.1-0.1-0.2-0.1-0.3c0.2,0,0.3-0.4,0.3-1.3l-0.2,0.1h-0.3
	c-0.1,0-0.2-0.1-0.2-0.2v-0.2c0.6-0.2,0.8-0.3,0.8-0.4v-0.9h-0.3c0,0.3-0.6,0.6-1.9,0.9H366c-0.6,0-1-0.1-1-0.3v-0.2l0.5,0.1
	c0.8,0,2.5-0.9,5.3-2.6c0.3,0,0.5-0.1,0.6-0.2h0.1C372.1,41.8,372.3,41.9,372.3,42.1z M369.3,47.5l1.3-1.2v-0.3
	c-0.4,0-0.8,0.4-1.4,1.3h-0.1C369.1,47.4,369.2,47.5,369.3,47.5z M370.6,45.4v-0.2c0-0.1-0.1-0.2-0.3-0.3c-0.1,0-0.3,0.3-0.8,0.9
	h0.1C370,45.5,370.3,45.4,370.6,45.4z M370.5,43.3c0-0.1-0.1-0.2-0.2-0.2h-0.4c-0.1,0-0.2,0.1-0.2,0.2l0.1,0.2l-0.1,0.5h0.1
	C370.2,44,370.5,43.7,370.5,43.3z M371.6,48.1l0.2-0.1c0-0.1,0-0.1-0.1-0.1c0-0.6,0.3-1.1,0.8-1.6h1.4c0.7-1.1,1.1-1.8,1.1-2.3
	c-0.2,0-0.4-0.1-0.5-0.2c-0.7,0.1-1.6,0.9-2.8,2.4c0,0.5,0,0.8-0.1,0.9C371.6,47,371.6,47.4,371.6,48.1z M372.4,48.1
	c0.6-0.7,0.9-1,0.9-1.1h-0.6c-0.1,0-0.2,0.3-0.4,0.8v0.1C372.2,48,372.3,48.1,372.4,48.1z M375.5,52.2l0.3-0.4v-0.2h-0.1
	c-0.9,1-1.5,1.7-1.6,2v0.1h0.1C374.2,53.6,374.7,53.1,375.5,52.2z M397.4,43.6l0.1,0.3v0.3c0,0.3-0.2,0.4-0.5,0.4l-0.3-0.2
	c-0.2,0.1-0.3,0.2-0.5,0.2h-0.1c-0.1,0-0.1,0-0.1-0.2c-0.9,0.2-1.4,0.7-1.4,1.4c-0.6,1.4-0.8,2.3-0.8,2.6c2,0.8,3,1.7,3,2.5
	c-0.4,1.9-1.6,4-3.6,6.4c-1.4-0.6-2-1.3-2-2v-2.1c0-0.2,0.1-0.3,0.3-0.3h0.1c0.2,0,0.4,0.8,0.6,2.4c0.2,0,0.3,0.1,0.3,0.4
	c0.7-0.3,1.6-2.1,2.7-5.2c-0.5-1.1-1.1-1.7-1.9-1.7l-2.8,3c0,0.4-0.4,0.7-1.2,1c-0.1,0.4-1,1.4-2.6,2.9v-0.2l3-3.8
	c2.2-3.3,3.3-5.3,3.3-6.2h-0.2c-0.4,0.3-1,0.6-2.1,0.7c-1.1-0.3-1.6-0.5-1.6-0.7c0.2-0.2,0.8-0.4,1.8-0.4c2.9-1.4,4.7-2.1,5.3-2.1
	h0.2l0.7,0.5C397.2,43.7,397.3,43.6,397.4,43.6z M413.6,48.7c-0.4,0.4-0.5,0.8-0.5,1.2c0.3,0,0.8-0.2,1.3-0.7
	c0.8-0.1,1.5-0.1,2.1-0.1h0.3c0.7,0.4,1.1,0.7,1.1,0.8V50c0,0.1-0.1,0.2-0.3,0.3c-0.6-0.3-1.1-0.4-1.3-0.4c-2.2,0.2-3.2,0.5-3.2,0.8
	V52c0,0.1,0,0.1-0.1,0.1c0,0.1,0,0.1,0.1,0.1l-0.1,0.5l0.1,0.5l-1.1,4.9c-0.1,0.7-0.2,1.1-0.4,1.1l-0.1-0.2h0.1l-0.1-0.2l0.1-0.8
	l-0.1-0.2l0.3-1.6l-0.1-0.2l0.1-0.2l-0.1-0.2l0.2-0.6c0-0.1,0-0.1-0.1-0.1l0.2-1.2c-0.1-0.1-0.1-0.2-0.1-0.3c0-0.1,0-0.1,0.1-0.1
	l-0.1-0.5v-0.2c0-0.1,0-0.1,0.1-0.1l-0.1-0.2L412,52c0-0.1,0-0.2-0.1-0.3l0.1-0.6c-0.1-0.2-0.1-0.3-0.1-0.3l-4.2,1.8
	c-0.9,0.4-1.8,0.9-2.7,1.4l-0.8,0.2l-0.2-0.3c0.2-0.3,2.2-1.3,6-2.9c1.3-0.3,2-0.6,2-1.1c0-0.1,0-0.3-0.1-0.7c0.1-0.6,0.1-1,0.1-1.2
	l-0.1-0.5l0.2-0.1h0.1C413.1,47.6,413.6,48.1,413.6,48.7z M407.7,50.5L407.7,50.5c-0.1-0.2,0.2-0.5,0.8-1h0.1v0.1
	C408.1,50.3,407.8,50.5,407.7,50.5z M414.7,44.7v0.1c-0.1,0.2-0.8,0.7-2,1.4c-0.5,0.5-1.3,1.1-2.2,1.6c0,0.1-0.6,0.7-1.8,1.7v-0.2
	c1.2-1.3,2.2-2.3,2.8-3.1h-0.2c-0.1,0-0.2,0.1-0.2,0.2c-0.1,0-0.1,0-0.1-0.1c-0.1,0-0.2,0-0.3,0.1c-0.7,0-1.3-0.2-1.6-0.5l0.1-0.2
	l0.8,0.1h0.2c1-0.5,1.8-0.9,2.5-1.4c0.5-0.3,0.8-0.4,1-0.4C414.3,44.3,414.7,44.5,414.7,44.7z M426.2,45.9c-0.1,0.5-0.7,1.3-1.8,2.3
	c-0.2-0.1-0.3-0.1-0.3-0.1l-0.1,0.2v0.2c1.3,0.4,1.9,1.1,1.9,2.1v0.3l-0.2,1.3h0.2c0.2-0.6,0.3-0.9,0.5-0.9h0.1v0.1
	c-0.1,0.5-0.3,1.2-0.6,2.1c0.1,0.4,0.1,0.6,0.1,0.7c-0.3,2-0.4,3-0.5,3h-0.2c-0.4-0.2-0.5-0.4-0.5-0.7l-0.2,0.1
	c-0.1,0-0.2-0.1-0.2-0.3c0-0.1,0-0.3,0.1-0.7c0-0.1,0-0.1-0.1-0.1c0.2-1.8,0.4-3.6,0.4-5.5c-0.2-0.5-0.3-0.7-0.4-0.7h-0.7
	c-0.2,0-0.5,0.2-0.7,0.5h-0.2c-0.1,0-0.3-0.2-0.4-0.5c2-1.9,3-3.3,3-4.2c-0.1-0.2-0.1-0.3-0.1-0.3c0.1-0.1,0.2-0.2,0.3-0.2
	C425.9,44.8,426.2,45.3,426.2,45.9z M433.5,44.4v0.4c-0.3,0.7-1.3,1.9-3.2,3.7l-2.4,3v0.1h0.2c2.1-1,3.1-1.6,3.1-1.7v-1.4l-0.1-0.2
	l0.2-0.1h0.2c0.2,0,0.4,0.3,0.9,1l2.2-0.3c0.5,0.4,0.8,0.6,0.8,0.7c0,0.1-0.1,0.2-0.4,0.3h-0.1c-0.4-0.2-0.7-0.3-0.7-0.3
	c-1.3,0.2-2,0.6-2,1.1c0,1.2-0.1,2.5-0.2,3.9l0.1,0.2c-0.1,0.2-0.1,0.3-0.2,0.3c0,0.2,0.1,0.7,0.2,1.4c-0.1,1-0.2,1.5-0.4,1.5h-0.2
	c-1.1-0.9-1.6-1.6-1.6-2h0.2l0.7,0.6v-0.2c0-1.2,0.1-2.9,0.3-5.2v-0.5h-0.1c-1.9,1-3.2,1.8-3.8,2.3h-0.5c-0.1,0-0.2-0.1-0.4-0.4
	v-0.1c1-0.9,2.3-2.5,3.9-4.6c-0.3,0-0.5-0.3-0.7-0.8l-0.2,0.1l-0.1-0.2c0-0.1,0-0.1,0.1-0.1l-0.1-0.2v-0.7c0-0.5-0.2-0.9-0.6-1.2
	c0-0.2,0.1-0.3,0.2-0.3h0.1c0.1,0,0.4,0.3,0.9,0.9c0.1,0,0.4-0.4,0.9-1.3c0.5-0.4,0.9-0.6,1.2-0.6C433.1,43.9,433.5,44.2,433.5,44.4
	z M429.6,53.2c-0.1,1.3-0.2,1.9-0.3,1.9l0.1,0.2v0.2c0,0.2-0.1,0.3-0.2,0.3c-0.7-0.2-1.1-0.6-1.1-1.1h0.1l-0.1-0.2
	c0.4-1.4,0.6-2.1,0.8-2.1h0.1C429,52.4,429.2,52.7,429.6,53.2z M430.8,47.4c0.7-1,1.3-2,1.8-3.1c-0.2-0.2-0.3-0.2-0.4-0.2
	c-0.6,0-1.1,0.8-1.5,2.3v0.8C430.6,47.3,430.7,47.4,430.8,47.4z M437.3,55.5c0,0.5,0,0.8,0.1,0.9c-0.2,0.3-0.3,0.5-0.4,0.6h-0.1
	c-0.7-0.5-1-1-1-1.4v-0.4c0-0.1,0-0.1,0.1-0.1c0-0.2-0.5-0.9-1.6-2.3c0-0.2,0.1-0.2,0.2-0.2C435.6,53.3,436.5,54.3,437.3,55.5z
	 M446.3,45.5v0.2c-0.3,0.9-0.7,1.5-1.1,1.8c0,0.7,0.5,1.1,1.4,1.1c0.5,0.2,0.8,0.3,0.8,0.4v0.2c0,0.8-1,1.9-2.9,3.2
	c0,0.2-0.2,0.5-0.5,0.8c0.2,0,0.2,0.1,0.2,0.2v0.1c-0.4,1.5-0.5,2.4-0.5,2.6h0.2c0.3-1.3,0.5-2,0.5-2.1h0.2c0,0.5-0.1,1.3-0.4,2.4
	c0,0.1,0,0.1,0.1,0.1c0,0.1,0,0.2-0.1,0.3l0.1,1.1h-0.1c0,0.1,0.1,0.2,0.1,0.3l-0.1,0.4c0,0.1,0.1,0.3,0.1,0.4l-0.2,0.1h-0.3
	c-0.3-0.3-0.6-0.5-1-0.5c0.6-3.8,0.8-6.4,0.8-7.8c0-0.8-0.1-1.9-0.4-3.2l0.2-0.1c0.3,0,0.5,0.8,0.6,2.3v1.8c0,0.1,0.1,0.2,0.2,0.2
	c1.1-1.2,1.7-2,1.9-2.6v-0.2c-1.2-0.3-1.8-0.6-1.8-1c0-0.4,0.3-1.2,0.9-2.5h-0.1c-2.5,0.7-4,1.1-4.5,1.1v-0.1c1-0.6,2.5-1.1,4.5-1.6
	h0.5C445.9,45.1,446.2,45.3,446.3,45.5z M451.4,44l-0.8,2.6c0.4,0,0.5,0,0.5,0.1c0,0,0.1,0,0.1-0.1c2.7,0.3,4.1,0.7,4.1,1.1v0.1
	c0,0.2-0.1,0.4-0.4,0.4c-0.4-0.2-0.6-0.4-0.8-0.4h-0.2l-2.1,0.7l-0.1-0.2V48c0-0.2,0.2-0.4,0.7-0.5c0-0.2-0.8-0.4-2.3-0.7
	c0,0.5-0.2,0.9-0.7,1.1c-0.3,0.3-0.6,0.9-1,1.7c-0.1,0-0.5,0.5-1.2,1.4h-0.3c0-0.1,0.7-1.3,2-3.7c0.8-1.6,1.3-3.1,1.3-4.5
	c-0.5-0.2-0.7-0.3-0.7-0.4l0.1-0.2C450.8,42.4,451.4,43,451.4,44z M454.7,51.4c0,0.3-0.5,1.1-1.4,2.3c-0.4,0.5-0.8,0.8-1.2,0.8
	c0,0.2-0.4,0.5-1.1,1v0.2c0.7-0.1,1.2-0.2,1.6-0.4c1.7,0,3.1,0.4,4.1,1.1v0.2c0,0.1-0.1,0.3-0.4,0.4c-0.3-0.1-0.5-0.2-0.8-0.2
	c-0.5,0.2-1.2,0.4-2.4,0.6h-0.3v-0.1c0-0.1,0.4-0.3,1.2-0.9v-0.1c-0.3,0-0.6-0.1-1-0.2c-0.5,0.1-1,0.2-1.4,0.3c0-0.1,0-0.1-0.1-0.1
	c0,0.1-0.3,0.2-0.9,0.3c0,0.3-0.9,0.6-2.6,0.9c-0.1,0-0.2-0.1-0.3-0.3c0.2-0.2,0.9-0.6,2.1-0.9c2-1.9,3.1-3.2,3.4-4.1
	c0.1,0,0.1,0,0.1-0.1l-0.1-0.5c0.5-0.3,0.7-0.4,0.7-0.5C454.4,51.2,454.7,51.4,454.7,51.4z M452.8,48.9V49l-1.9,1.1
	c-0.1-0.1-0.2-0.1-0.3-0.1c0,0.1-0.3,0.3-1,0.5c0.2,0.5,0.3,1.1,0.4,1.8h-0.1c0.6,1.2,0.9,1.9,0.9,2.1l-0.3,0.2h-0.3
	c-0.5-0.3-0.8-0.6-0.8-0.9V53c0-0.6,0-1.3-0.1-2.1c0.1-0.1,0.1-0.2,0.1-0.3h-0.2l-0.8,0.5h-0.3c-0.1,0-0.2-0.1-0.3-0.3v-0.2
	c0.4,0,1.7-0.6,4.1-1.9C452.5,48.6,452.8,48.7,452.8,48.9z M451.7,51.1C451.7,51.2,451.7,51.2,451.7,51.1v0.3v1.2
	c0,0.1,0.1,0.4,0.3,0.8c-0.1,0.3-0.2,0.4-0.3,0.4h-0.2c-0.4,0-0.5-0.5-0.5-1.5c0-0.4,0.1-0.9,0.2-1.7h0.1
	C451.4,50.7,451.6,50.8,451.7,51.1z M370.8,70h0.1c0.5-0.4,0.9-0.6,1.4-0.6h0.1c0.6,0.2,0.9,0.5,0.9,0.8c-0.2,0-0.2,0.1-0.2,0.2
	c-0.1-0.1-0.2-0.1-0.3-0.1c-0.8,0.4-1.2,0.6-1.2,0.8c0.8,0.9,1.5,1.9,2.3,3c0.6,0.5,0.9,0.8,0.9,1c0.3,0,0.5-0.6,0.6-1.9
	c-0.1-0.2-0.1-0.3-0.1-0.3c0-0.6,0.1-0.9,0.2-0.9l-0.1-0.2v-0.1h0.3v0.4c0,0.1,0.1,0.4,0.3,1h-0.1c0.1,0.3,0.2,0.8,0.3,1.5
	c-0.4,1.1-0.6,1.7-0.6,1.8c1,1.4,1.8,2.4,2.6,3c0.1,0,0.5,0.2,1.3,0.5v-0.1c0-0.1-0.2-0.7-0.5-1.8h0.3c0.4,0.5,1,1.5,1.8,3
	c-0.1,0.3-0.2,0.4-0.3,0.4h-0.1c-1.5,0-3.3-1.4-5.3-4.1v-0.2c-0.9,0.9-1.7,1.7-2.6,2.1c-0.1,0.2-0.5,0.4-1.3,0.5l-0.1-0.2
	c1.3-0.7,2.3-1.9,3-3.8c-0.4-0.2-0.9-0.8-1.5-1.8c-1.2-1.4-1.8-2.1-2-2.1c-1,1.6-1.7,2.9-2,4h0.1c0.4-0.4,0.8-0.5,1.2-0.5
	c0.7,0.2,1.1,0.5,1.4,1v0.1c0,0.6-0.5,1.2-1.5,1.7c0,0.2-0.4,0.6-1.3,1.2h-0.3v-0.2c0.7-0.7,1.4-1.6,1.9-2.7
	c-0.1-0.3-0.2-0.5-0.3-0.5l-1.8,1.5c0,0.2-0.3,0.8-0.8,1.7c-0.3,1.2-0.6,1.7-0.8,1.7c0-0.1-0.3-0.4-0.9-1c0-0.3,0.6-1.5,1.8-3.7
	l1.7-4h-0.1c-1.3,0.5-2.2,0.8-2.8,0.8c-0.6-0.2-1-0.4-1-0.5c0.1,0,0.1,0,0.1-0.1l0.2,0.1c1.3-0.1,2.8-0.7,4.4-1.8
	c-1-1.7-2.5-2.8-4.3-3.4l-0.2,0.1l-0.1-0.2l0.4-0.3C366.9,66.5,368.5,67.7,370.8,70z M373.4,64.9l0.2-0.1c0.9,0.1,1.8,0.5,2.7,1.4
	c0.1,0,0.1,0.1,0.1,0.2c-0.1,0.3-0.2,0.4-0.3,0.4H376c-1.2-1.3-2.2-1.9-3.1-1.9v-0.2C373.2,64.7,373.4,64.8,373.4,64.9z M397.4,66.3
	l0.1,0.3v0.3c0,0.3-0.2,0.4-0.5,0.4l-0.3-0.2c-0.2,0.1-0.3,0.2-0.5,0.2h-0.1c-0.1,0-0.1-0.1-0.1-0.2c-0.9,0.2-1.4,0.7-1.4,1.4
	c-0.6,1.4-0.8,2.3-0.8,2.6c2,0.8,3,1.7,3,2.5c-0.4,1.9-1.6,4-3.6,6.4c-1.4-0.6-2-1.3-2-2v-2.1c0-0.2,0.1-0.3,0.3-0.3h0.1
	c0.2,0,0.4,0.8,0.6,2.5c0.2,0,0.3,0.1,0.3,0.4c0.7-0.3,1.6-2.1,2.7-5.2c-0.5-1.1-1.1-1.7-1.9-1.7l-2.8,3c0,0.4-0.4,0.7-1.2,1
	c-0.1,0.4-1,1.4-2.6,2.9v-0.2l3-3.8c2.2-3.3,3.3-5.3,3.3-6.2h-0.2c-0.4,0.3-1,0.6-2.1,0.7c-1.1-0.3-1.6-0.5-1.6-0.7
	c0.2-0.2,0.8-0.4,1.8-0.4c2.9-1.4,4.7-2.1,5.3-2.1h0.2l0.7,0.5C397.2,66.3,397.3,66.3,397.4,66.3z M411.7,65.7v0.2
	c0,0.1-0.1,0.2-0.3,0.3h-0.8c-0.1,0-0.1,0-0.1-0.1c-1.9,1.1-2.9,2.5-2.9,4.1c-0.1,0-0.2,0.3-0.3,0.8c1.8-1.9,3.3-2.9,4.7-2.9
	c1.8,0,3,0.3,3.6,1v0.2c0,0.2-0.6,0.4-1.8,0.8c0,0.1-0.4,0.3-1.2,0.7c0,0-0.2,0.1-0.5,0.3l0.1,0.8c-0.7,0.8-1.4,1.4-2.2,1.8
	c-0.2,0.4-0.4,0.6-0.8,0.6v0.1h0.1c0.1,0,0.4-0.1,0.9-0.2c1.3,0.3,2.3,0.7,2.8,1.3c0,0.2,0.1,0.2,0.4,0.2c0.7-0.9,1.1-1.4,1.1-1.6
	c-0.6-0.3-1-0.5-1-0.6l0.2-0.1c0.8,0.3,1.3,0.6,1.6,1.1v0.3L414,76c0,0-0.2,0.2-0.4,0.6c0.1,0,0.1,0,0.1,0.1
	c0.2-0.1,0.3-0.1,0.3-0.1c0.1,0,0.3,0.1,0.7,0.2c0-0.1,0.1-0.2,0.2-0.2c0.2,0,0.6,0.1,1.3,0.2l0.2-0.1c0.3,0,0.4,0.1,0.4,0.2
	l0.2-0.1c1,0.4,1.6,0.7,1.9,1.1v0.2c0,0.1-0.1,0.2-0.3,0.3c-0.2-0.1-0.7-0.2-1.5-0.3c-0.6,0.1-0.9,0.2-1.1,0.3h-0.2
	c-0.1,0-0.2-0.1-0.2-0.2l0.9-0.8c-0.9-0.2-1.3-0.4-1.3-0.4l-0.2,0.1h-1c-0.5,0-0.9,0.7-1.3,2l-1.1,1.3h-0.2
	c-1.2-0.9-2.1-1.3-2.6-1.3c-0.9,0.9-1.7,1.4-2.5,1.5c2.8-2.2,4.2-3.7,4.2-4.5c-0.1,0-0.9,0.5-2.4,1.6c-0.3-0.1-0.4-0.2-0.4-0.3
	c1.1-1.2,1.6-2,1.6-2.6h0.2v-0.2h-0.2c-0.3,0.4-0.9,1-2.1,1.9c0,0.1-0.1,0.2-0.3,0.3h-0.1l-0.4-0.3c0-0.1,0.9-1.2,2.8-3.1l1.1-1.3
	V72l-0.8,0.1h-0.4c-0.1,0-0.2-0.1-0.3-0.3v-0.2c2.3-0.6,3.5-1.1,3.5-1.5c0.2,0,0.6-0.4,1.2-1.1c0-0.1-0.1-0.2-0.2-0.2h-0.5
	c-0.2,0-0.4,0-0.6,0.1l-0.6-0.1h-0.2l-1.9,0.9c-0.8,0.6-1.5,1.6-1.8,3c-0.3,1.1-0.6,1.6-0.8,1.6h-0.1c-0.3-0.4-0.7-0.6-1.1-0.6v-0.2
	c0.4-2.5,1.2-4.6,2.7-6.3c0.8-0.7,1.3-1.1,1.5-1.4c-0.2,0-0.5-0.1-1.1-0.2l-0.2,0.1c-0.2-0.1-0.5-0.2-0.8-0.2v-0.2l0.6-0.2v0.1
	l0.2-0.1h0.6C410.5,65,411.3,65.2,411.7,65.7z M410.4,75.1l-0.3,0.8h0.2c0.3-0.2,0.5-0.3,0.8-0.3c0,0.1,0.1,0.2,0.3,0.3
	c0,0.8-0.6,1.7-1.8,2.7l-0.3,0.4c0.4,0,0.9,0.1,1.5,0.2c1.1-1.2,1.6-2.3,1.6-3.4c0-0.4-0.6-0.8-1.9-1.2h-0.8v0.1
	C409.9,74.7,410.1,74.8,410.4,75.1z M430.9,68.2v0.4c-0.7,0.5-1.4,1.2-2.3,2.1h-0.4V71c0.3,0,0.6,0.1,0.8,0.3h1.7
	c0.1,0,0.3,0.1,0.4,0.4v0.1c-1.4,0.7-2.1,1.4-2.2,2.1c-0.5,0.9-0.7,1.5-0.7,1.6c0.6-0.6,1.1-0.9,1.5-0.9l0.8,1.1l-0.4,2.2l0.8,0.1
	c1.6,0,3.6-0.8,5.9-2.5c0-1.1-0.6-3.2-1.7-6.3l0.2-0.1c0.8,1.7,1.7,4.1,2.9,7.1c-3.2,2-5.6,3-7,3h-0.5c-1-0.5-1.7-1-1.8-1.6
	c0-0.1,0-0.2-0.1-0.4c0.1-0.2,0.2-0.5,0.2-1.1h-0.2c-1.1,1.6-2,2.8-2.6,3.5h-0.3c-0.1,0-0.4-0.3-0.9-0.9l1.8-4.1
	c-1.8,1.5-3,2.3-3.7,2.4l-0.7-0.9c3-2.3,5.1-4.5,6.3-6.6v-0.1h-0.2c-0.3,0.3-1.3,0.5-3,0.6c-0.3,0-0.7-0.3-1.2-0.9V69h0.9
	c0.5,0,2.1-0.5,4.6-1.5h0.3C430.3,67.5,430.5,67.7,430.9,68.2z M428.1,71.4c-0.5,0.2-1.3,1.1-2.4,2.7c-0.3,0.3-0.5,0.4-0.7,0.4v0.2
	C427.1,73.9,428.1,72.8,428.1,71.4z M446,69.2L446,69.2c-0.4,1.6-0.6,3.2-0.6,4.7h0.2c1.8-0.5,2.7-1.1,2.7-1.9l0.6-2.8
	c-0.2-0.5-0.2-0.9-0.2-1c0.2-0.1,0.3-0.1,0.4-0.1c0.5,0.1,0.9,0.6,1.4,1.6c1.8,0.9,2.9,1.5,3.3,2l-0.3,0.5l-0.6-0.1
	c-0.6,0.4-1.2,0.6-1.8,0.8c-0.4,0.1-0.6,0.2-0.6,0.4c0.2,0,0.4,0.1,0.8,0.4c-0.5,2.7-0.8,4.1-0.8,4.1l0.4,0.5c1.4,0,3-0.5,4.8-1.4
	c-0.1-1.4-0.4-3-0.8-4.9c0.3,0,0.6,0.8,0.9,2.3c-0.1,0-0.1,0-0.1,0.1c0.3,0,0.7,0.9,1.2,2.8c0,0.3-0.7,0.7-2.1,1c0,0.3-1,0.6-3,1
	h-0.2c-1.6-0.5-2.4-1.2-2.4-2.1v-0.1l0.7-3v-0.1h-0.1c0,0.1-0.4,0.7-1.1,1.7c-0.6,1.2-1,2.3-1.3,3.3l-0.4,0.2
	c-0.2,0-0.4-0.3-0.7-0.8c0.9-2.7,1.3-4.1,1.3-4.2h-0.1c-1,0.2-1.7,0.6-2.1,1.2h-0.1l0.1,0.6c0,0.1,0,0.1-0.1,0.1
	c0,0.1,0,0.2,0.1,0.2l-0.1,0.8v0.3c0,0.2,0,0.3,0.1,0.5c-0.1,0.7-0.2,1.2-0.2,1.6c0.1,0.2,0.1,0.3,0.1,0.4l-0.1,0.5l0.1,0.2
	c-0.1,0.3-0.3,0.5-0.4,0.5h-0.2c-1.2-0.9-1.8-2-1.8-3.3c0-0.1,0-0.5-0.1-1.2l-0.2,0.2h-0.2l-1-0.7v-0.3c0.8-1.3,1.2-2.3,1.2-2.9
	v-0.4l-0.1-0.6l0.2-0.1c0.6,0.2,0.9,0.5,1.1,0.9v0.4c0,0.3-0.3,1-1,2.3h0.1l1.2-0.5c0-0.8,0.2-2.7,0.5-5.7c-0.6-0.2-0.9-0.5-1.1-0.7
	c0-0.2,0.1-0.2,0.2-0.2C445.2,68.6,446,69,446,69.2z M443.7,77.3h0.2l0.1-0.6v-0.8c-0.3,0.1-0.5,0.2-0.6,0.2v1
	C443.4,77.2,443.5,77.3,443.7,77.3z M450,73.1h-0.4c-0.6,0.3-0.8,0.7-0.8,1.2C448.9,74.3,449.3,73.9,450,73.1z M449.4,72.4
	c0.3,0,1.2-0.3,2.6-0.9v-0.2l-1.8-1.1C449.7,71.4,449.4,72.2,449.4,72.4z M456.3,68.8v0.1c0,0.2-0.1,0.3-0.3,0.3
	c-0.5,0-1.4,0-2.5,0.1l-0.2-0.4c0.3-0.1,0.5-0.2,0.5-0.4v-0.1c-0.2,0-0.9-0.2-2.1-0.7v-0.4h0.1C453.6,67.3,455.1,67.8,456.3,68.8z
	M455.9,75.4L455.9,75.4l0.2,0.1v-0.1H455.9z"/>
<script>
    CustomBounce.create("myBounce", {strength:0.7, squash:3}),
    gsap.timeline({repeat:-1, repeatDelay:10, yoyo:false})
     .staggerFrom("#ZHONG,#AN,#LIAN,#HE",0.8,{scaleX:0,scaleY:0.2,rotation:-10,transformOrigin:"center",ease:"elastic.out(1,0.3)",stagger:0.15})
     .fromTo("#logo",2,{y:-100,opacity:0.5,transformOrigin:"center"},{y:0,opacity:1,rotation:0,transformOrigin:"center",ease:"myBounce",delay:-1.5})
     .to("#logo", {scaleY:0.5, duration: 2, scaleX:1.5, ease:"myBounce-squash", transformOrigin:"bottom"}, 0)
     .to("#ZHONG",0.8,{duration:5,morphSVG:"#JU",delay:0})
     .to("#AN",0.8,{duration:5,morphSVG:"#QIAN",delay:-0.6})
     .to("#LIAN",0.8,{duration:5,morphSVG:"#BAO",delay:-0.6})
     .to("#HE",0.5,{duration:5,morphSVG:"#BiaoYu",delay:-0.5})
</script>
</svg>