<?xml version="1.0" encoding="utf-8"?>
<!-- Generator: Adobe Illustrator 25.4.1, SVG Export Plug-In . SVG Version: 6.00 Build 0)  -->
<!DOCTYPE svg PUBLIC "-//W3C//DTD SVG 1.1//EN" "http://www.w3.org/Graphics/SVG/1.1/DTD/svg11.dtd" [
	<!ENTITY ns_extend "http://ns.adobe.com/Extensibility/1.0/">
	<!ENTITY ns_ai "http://ns.adobe.com/AdobeIllustrator/10.0/">
	<!ENTITY ns_graphs "http://ns.adobe.com/Graphs/1.0/">
	<!ENTITY ns_vars "http://ns.adobe.com/Variables/1.0/">
	<!ENTITY ns_imrep "http://ns.adobe.com/ImageReplacement/1.0/">
	<!ENTITY ns_sfw "http://ns.adobe.com/SaveForWeb/1.0/">
	<!ENTITY ns_custom "http://ns.adobe.com/GenericCustomNamespace/1.0/">
	<!ENTITY ns_adobe_xpath "http://ns.adobe.com/XPath/1.0/">
]>
<svg version="1.1" id="图层_1" xmlns:x="&ns_extend;" xmlns:i="&ns_ai;" xmlns:graph="&ns_graphs;"
	 xmlns="http://www.w3.org/2000/svg" xmlns:xlink="http://www.w3.org/1999/xlink" x="0px" y="0px" width="1706px" height="960px"
	 viewBox="0 0 1706 960" enable-background="new 0 0 1706 960" xml:space="preserve">
<metadata>
	<sfw  xmlns="&ns_sfw;">
		<slices></slices>
		<sliceSourceBounds  bottomLeftOrigin="true" height="261.6" width="1500" x="210" y="-670.8"></sliceSourceBounds>
	</sfw>
</metadata>
<path id="logo" fill="#E50012" d="M326,407.6l-97.6-56.2c-5.2-2.8-13.3-2.8-18.6,0L112,407.6c-5.2,2.8-9,10-9,16.2v112.5
	c0,5.7,4.3,13.3,9,16.2l98.1,56.2c5.2,2.8,13.3,2.8,18.6,0l97.6-56.2c5.2-2.8,9-10,9-16.2V423.8C335.5,417.6,331.3,410.4,326,407.6z
	 M300.2,492.9c-2.4,3.3-6.6,3.7-10,1.5c-2.4-1.9-6.1-3.3-10-4.3v28c0,12.9-10.5,22.8-22.8,22.8H146.8c-3.7,0-7.2-3.3-7.2-7.2
	c0-3.9,3.3-7.2,7.2-7.2H184V412.7c0-3.7,3.3-7.2,7.2-7.2c3.7,0,7.2,3.3,7.2,7.2v18.1h59.5c12.9,0,22.8,10.5,22.8,22.8v21.4
	c5.2,0.9,12.9,3.3,18.1,7.2C302.2,485.2,302.6,489.6,300.2,492.9z M266.9,453.8v20.5h-68.5v-29.5h59.5
	C262.6,444.8,266.9,449.1,266.9,453.8z M198.2,488.5h68.5v29.5c0,5.2-4.3,9-9,9h-59.5V488.5z"/>
<path fill="#ffffff" d="M520.4,376.7c0.4,0,1.5,0.4,2.4,1.5c0.9,1,1.9,0.9,2.4,1.5c0.4,0.4,0.9,0.9,1.5,1.5c0.4,0.4,0.9,0.9,1.5,1.5
	c0.6,0.6,0,0.9-0.4,1.5c0.4,0.9,0.9,1.5,0.9,2.4s-0.4,2.4-0.9,3.3c-0.4,0.9-1.5,2.4-1.5,2.8c-0.9,0.4-1.9,0.4-2.8,0.4
	c-0.9,0-1.5,0-1.9,0c-1.9,0.4-4.8,0.9-9,1.9c-3.7,0.9-6.1,1.9-7.6,2.4c0,0,0,0,0.4,0.4c0.4,0.4,0.4,0,0.4,0s0.4,0.4,1.5,0.9
	c0.9,0.4,1.5,0.4,1.9,0c0.4,0,0.9,0,1.9,0c1,0,1.9,0.4,2.4,0.9c0.4,0.9,0.9,1.9,1.5,3.3c0.4,1.5,1.5,2.4,1.5,3.3l0.4,4.8
	c0,0.9,0,2.4,0,4.3c-0.4,1.9-0.4,3.3-0.4,4.8c0,2.4,0.4,4.3,0.9,5.2c0.4,0,0.9,0,1.9-0.4c0.9-0.4,1.5,0,0.9,0.9
	c-0.4,0.4-0.9,0.4-1.9,0.9c-0.4,0.4-1.5,0.4-1.9,0.9c-0.4,0.4-0.4,0.9-0.4,1.5c0.4,2.4,1.5,3.7,2.8,5.2c0.4,0.4,1.5,0.4,2.4,0.9
	c0.9,0.4,1.9,0.4,2.4,0.9c0.4,0.4,0.4,0.9,0.4,1.9c-0.4,0.9-1.5,1.9-2.8,2.8c-0.9,0.9-1.9,1.9-2.8,2.4c-0.4,0.4-0.9,0.9-1.9,1.9
	c-0.4,0.9-1.5,1.5-1.5,1.9c-0.4,1.9-0.4,3.7-0.9,6.1c-0.4,2.4,0,4.3,0,5.2s0,1.9,0,3.7c-0.4,1.5-0.4,2.8-0.4,3.7
	c-0.4,3.3-0.4,5.2-0.4,6.6c0,1.9,0.4,2.8,0.9,2.8c0.4,0,0.9-0.4,1.9-1.9l7.6-3.3c0.4,0,0.9-0.4,1.5-0.4s1.5-0.4,1.5-0.9
	c0.4-2.4,0.4-4.3,0.4-6.6c0-2.8-0.4-7.6-1.9-14.2l-0.9-2.4c0,0,0,0,0.4,0s0.4,0,1.5,0.4c0.4,0.4,1.5,0.4,2.4,0.9
	c0.4,0.4,0.9,0.9,1.9,1.5c0.9,0.4,1.5,0.9,1.9,1.5c3.3-1.5,5.7-3.7,8.1-7.2l-3.7-2.4c-0.4-0.4-1.9-0.4-3.3-0.9
	c-1.5-0.4-2.8-1.5-3.3-2.4c-1.5,0-2.4-0.4-3.7-1.5c-1.5-0.9-1.9-1.5-2.8-1.9c-3.3-0.4-4.3-1.5-3.7-2.8c0.4-0.4,0.9-0.9,1.5-1.9
	c0.6-1,0.9-1.5,0.9-1.9c1.5-0.4,2.8-0.9,4.8-0.9c1.9,0,3.3-0.4,4.3-0.9c0.9,0,1.9,0,3.3,0c1.3,0,2.8,0,4.3,0c4.3,1.9,7.2,3.3,9,4.8
	c0.4,0.4,0.9,0.4,1.5,0.4c0.4,0,0.9-0.4,0.9-1.5c1.9-1.9,2.4-4.3,2.4-7.2h-9c-2.4-1.5-5.7-4.3-9.6-8.1c-1.5-1.9-2.8-3.7-2.8-5.2
	c2.4,0.9,4.8,1.5,7.2,1.5s5.2-0.4,9-1.5c1.5-1.5,2.8-2.8,5.2-3.7s3.7-1.9,4.8-2.4c0.4,0,1.5-0.4,2.4-0.4c1.5-0.4,2.4-0.9,2.4-1.9
	c0.4-0.9,1.5-0.9,2.4-0.4c0.9,0.4,0.9,0,0.4-0.4l2.8-1.9c0.9,0.4,1.9,0.9,3.3,1.5c0.9,0.4,2.4,0.9,3.3,1.5c0.9,1.5,1.9,2.8,2.4,4.8
	c0.4,1.9,0.4,3.3,0.4,5.2s0,3.3,0.4,4.3c-0.4,5.2-1.5,9.6-2.8,12.9c-1.9,3.3-4.3,8.5-8.1,15.3c0.9,0.9,2.8,1.5,4.8,1.9
	c1.9,0.4,3.3,0.9,4.3,0.9c2.8,0.9,5.2,2.4,7.6,3.7c1.5,0.4,3.3,0.9,4.8,2.4c1.9,1.5,2.8,2.4,3.3,2.8c0.9,0.9,2.4,1.9,4.3,3.7
	c3.3,3.3,6.1,5.2,8.5,6.1c3.3,2.8,6.6,4.8,9.6,4.8l0,0c-0.9,0.4-2.8,0.9-5.2,1.9c-0.4,0.4-1.9,0.9-3.3,1.5c-1.5,0.4-2.8,0.9-3.7,0.9
	c-4.8,0.4-8.5,0.4-10.9,0.4c-4.8,0-8.5-0.4-12.4-0.9c-0.4-0.4-1.9-0.9-2.8-0.9c-0.9,0-2.4-0.4-2.8-0.9c-1.9,0-4.3-0.9-7.2-2.4
	c-0.4,0-0.9-0.4-2.4-0.4c-0.9,0-1.9-0.4-2.4-1.5c-0.4-0.9-1.5-1.9-2.8-3.7c-1.5-1.9-2.4-3.3-3.3-3.7c-2.4,3.3-4.3,5.7-5.7,7.2
	c-0.4,0.4-0.4,1.5-0.4,2.4c0,1.5,0.4,2.4,0.9,3.3c-0.4,0.4-0.4,1.5-1.5,2.4c-0.9,0.9-1.5,2.4-2.4,2.8c-1.9,0.9-4.3,1.5-7.2,2.4
	c-2.8,0.9-4.8,0.9-5.7,1.5c-0.9,0.9-1.9,1.5-2.4,2.4v7.6c0,10,0.4,15.3,0.4,15.3s0.4-0.9,0.9-2.8c0.9-1.5,2.8-2.8,5.2-4.3
	s3.7-2.8,5.2-3.3c0.9,0,2.4-0.4,3.3-1.5c0.9-1,1.5-0.9,1.9-1.5c0.9-0.4,2.4-1.5,3.7-2.4s2.4-1.5,3.7-1.9c0.9-0.4,2.4-0.4,3.7-0.4
	c0.4,0.4,0.9,0.4,1.9,0.4s1.9,0.4,2.4,0.4s0.9,0.4,0.9,1.5c-0.4,0.4-0.4,1.5-0.4,2.4s0.4,1.9,0.9,3.3v2.4c0,1.9-0.4,3.3-0.9,4.3
	c0,0.9-0.9,2.4-1.9,3.7c-1,1.3-1.9,2.4-2.4,3.3c-0.4,0.4-1.9,1.5-3.3,2.4c-1.5,0.9-2.8,1.9-3.3,2.8c-0.4,0.4-1.5,0.9-2.4,1.5
	c-1.5,0.4-1.9,1.5-1.9,2.4c0.4,0.4,1.5,0.9,2.4,1.5c0.9,0.4,1.5,0.4,1.9,0.9c1.9,0.9,4.8,1.5,8.1,2.4c1.5,0.4,3.3,0.9,5.2,1.5
	c1.9,0.4,3.7,0.9,6.1,1.9c1.9,0.9,3.7,1.5,6.1,1.5s3.7,0.4,4.8,0.4c4.8,0.9,8.5,1.9,10.5,2.8c2.8,1.5,4.8,2.8,6.1,3.7
	c0.4,0.4,2.4,1.5,4.8,2.8c0.9,0,1.9,0.4,2.4,0.9c0.4,0.4,1.5,1.5,2.4,2.4c0.9,0.9,1.5,1.9,2.4,2.4c0.9,0.9,1.9,1.9,2.8,3.3
	c0.4,0.4,1.5,0.9,2.4,0.9c0.9,0.4,1.5,0.4,1.9,0.4s1.9,0.4,3.7,0.4c1.9,0.4,3.3,0.4,4.3,0.9l-3.3,0.4c-2.4,0-4.3,0.4-6.6,0.9
	c-2.4,0.4-4.3,1.5-6.1,1.9c-0.9,0.9-2.4,1.5-3.7,1.5c-1.3,0-2.8,0.4-4.3,0.4c-1.5,0-3.3,0.4-4.3,0.4H589c-3.7,0-6.6,0-8.5,0
	c-1.5-0.4-3.3-0.4-5.7-0.4c-0.4,0-1.5,0-2.4,0c-0.9,0-2.4-0.4-3.3-0.4c-1.9-0.4-2.8-0.9-4.3-1.5c-0.4-0.9-1.9-1.5-3.3-1.9
	c-1.9-0.9-4.3-2.4-7.6-4.3c-5.7-4.8-10.9-8.5-15.3-11.8c-0.4-0.4-1.9-0.9-3.3-2.4c-1.5-0.9-2.8-1.9-3.7-2.4
	c-0.4,1.5-0.9,3.3-0.9,5.7s0,3.7-0.4,5.2c0,0.9-0.4,2.4-0.4,3.7c-0.4,1.9-0.4,3.3-0.9,4.8c-0.4,1.5-0.9,2.8-1.5,3.7
	c0,0.4-0.4,1.5-0.9,2.8c-0.4,1.5-1.5,2.4-2.4,2.8c-0.4,0-1.5,0.4-3.3,0.9c-1.9,0.4-2.8,0.9-3.7,0.4c-0.9-0.4-1.9-1.5-2.8-2.4
	c-0.9-0.9-1.5-1.9-1.9-2.4c-0.4-0.9-1.5-2.4-2.8-4.8c-1.3-2.4-2.4-4.8-3.3-6.6c-0.4-0.9-0.9-3.3-1.5-6.6c-0.6-3.3-0.9-6.6-1.5-9
	l-10.5,9.6c-0.9,0.9-2.4,1.9-4.3,2.8c-1.9,0.9-3.3,2.4-5.2,2.8c-1.9,1.9-4.3,3.3-7.2,4.8c-2.8,1.5-4.8,2.8-5.7,3.3
	c-0.4,0-0.9,0.4-1.9,0.9c-0.9,0.4-1.9,0.4-2.4-0.4l-1.9,0.4c-0.4,0-1.5,0-2.8-0.4c-0.9-0.4-1.5-0.9-1.5-2.4c0-0.9,0.4-1.5,0.4-2.4
	c1.5-1.9,4.3-4.3,8.1-7.6c2.4-1.9,4.3-3.7,6.1-5.2c0.4-0.4,0.9-0.4,2.4-0.9c0.9-0.4,1.5-0.9,1.9-1.9l4.3-2.8
	c0.4-0.4,1.5-1.5,2.8-3.3c1.5-1.5,2.8-2.8,3.7-3.7c0.4,0,0.4,0.4-0.4,1.5l-4.3,4.8c-0.4,0.4-1.5,1.5-3.3,3.3
	c-1.9,1.9-3.3,3.7-3.7,5.7c0.4,0,1.5-0.9,2.8-1.9c0.4-0.4,1.5-0.9,2.4-1.5s1.5-1.5,1.9-1.9c3.3-2.4,6.6-4.3,9-7.2
	c2.8-2.4,6.1-5.7,10.5-10l6.1-6.1c-0.4,0-0.9,0-2.4,0h-1.5c-2.4,0-3.7-0.4-4.8-1.9c0.9-0.9,2.4-2.4,4.8-3.7c0.4-0.4,1.5-0.9,2.8-1.5
	c1.5-0.4,2.4-0.9,3.7-0.4c0.4-0.4,1.9-0.9,3.3-0.9V498c0-2.4,0-3.7,0.4-4.8c0-2.8,0-5.7-0.4-7.2c-0.4-1.9-1.9-2.4-3.7-1.5
	c-1.5,0.9-2.8,2.4-3.7,5.2c-0.4,0-0.9,0.4-1.9,1.5c-0.9,0.9-1.5,0.9-2.4,1.5c-0.4,0.4-0.9,0-1.9-0.4c-0.9-0.9-1.9-1.9-2.8-2.8
	c-2.8,0.9-6.1,1.9-9.6,3.3l-5.2,1.9l-5.2,2.8c-3.3,1.9-6.6,2.8-9,3.7c-2.4,0.9-4.8,1.5-7.2,1.5c-0.4,0-0.9-0.4-1.5-0.9
	c-0.4-0.4-0.9-0.9-0.9-1.5c0.4-0.9,0.9-1.5,0.9-1.5s0.4,0,1.5,0.4c0.4,0.4,0.9,0.4,1.9,0.4c3.7-0.9,7.6-2.4,11.4-4.8
	c3.7-1.9,6.1-3.3,6.6-3.3c3.3-1.5,6.6-3.3,10-5.2c1.9-0.9,2.8-2.4,2.8-4.3c0-0.4,0-0.9-0.4-1.9c-0.9-0.9-2.8-2.8-6.1-5.7l5.7-1.9
	c0-0.9,0-1.9,0.4-3.3c0.4-1.5,0.4-2.8,0.4-3.7c0-1.5-0.4-2.4-1.5-2.8c-0.4,0.9-0.9,1.5-2.4,1.9c-0.9,0.4-1.9,0.9-2.4,1.5
	c-1.9,0.4-3.3,1.5-3.7,2.8c-0.9,0.9-2.8,1.5-4.3,2.8c-1.9,0.9-3.3,1.9-4.8,2.4c-0.9,1.5-2.4,2.4-4.3,3.3c-1.9,0.9-3.3,1.9-4.3,2.4
	c-4.3,3.3-6.6,5.7-7.6,6.1c-0.4,0.4-1.5,1.5-1.9,2.4c-0.4,0.9-1.5,1.5-1.9,1.9c-0.4,0.4-1.5,0.4-2.4,0.4c-0.9-0.9-1.9-1.9-2.8-3.7
	c-0.9-1.9-1.9-2.8-2.4-3.7c-0.4-0.9-0.9-2.4-2.4-4.3c0-0.4-0.4-0.9-1.5-1.9c-0.4-0.9-0.9-1.9-0.9-2.8c0-0.9,0.4-1.9,1.9-2.4
	c0.4,0,0.9-0.4,2.4-0.9c1.5-0.4,1.9-0.9,3.3-0.4c1.3,0.4,2.8,0.9,4.3,0.4c3.3-1.9,6.6-2.8,9.6-3.3c-0.4,0-0.9-0.4-1.9-1.5
	c-1-1-1.9-1.9-2.4-3.3c-0.4-2.8-0.4-5.7-0.4-7.6c0.4-3.3,1.5-6.6,2.8-10c1.5-3.7,1.9-5.7,2.4-6.6c0.4-1.5,1.5-3.3,2.4-5.7
	c0.4-0.9,0.9-2.4,1.9-4.3c0.9-1.9,1.5-3.3,1.9-4.8c0-0.4,0.9-1.9,1.9-3.7c1-1.8,1.5-3.3,1.5-3.7c0-0.4-0.4-0.9-1.9-0.9
	c-0.4,0-0.9,0.4-2.4,0.9c-1.5,0.4-2.4,1.5-3.3,2.4c-0.4,0-1.5,0.4-1.9,0.9c-0.4,0.9-0.9,1.5-0.9,1.5c-0.4,0.4-1.5,0.9-2.4,1.5
	c-0.9,0.4-1.9,0.9-2.8,1.5c-0.9,0-1.5,0-2.4-0.4c-1.9-0.9-3.7-2.4-5.2-3.7c-1.5-1.5-2.8-3.7-4.8-6.1c-0.4-1.5-0.9-2.8-2.4-5.2
	c-0.9-2.4-1.5-3.7-1.5-5.7c0-0.9,0-1.5,0.4-1.9c0.4-0.9,0.9-1.5,1.5-1.5s1.5-0.4,1.5-0.4h0.4c0.4,0,1.5,0.4,2.4,0.9s1.9,0.9,2.8,0.4
	c0.9,0.4,1.9,0.9,3.3,1.5c1.5,0.4,2.4,0.9,3.3,1.5c0.9,0.4,1.9,0.4,3.3,0c0.9-0.4,2.4-0.9,4.8-1.5c2.4-0.4,3.7-1.5,4.8-2.4
	c3.7-0.9,8.5-3.7,15.3-7.6c3.7-2.4,6.6-3.7,8.5-4.8c2.8-1.5,5.2-2.4,8.1-3.3l4.8-1.9c0.9-0.4,2.4-0.9,3.7-1.5
	c1.5-0.4,2.8-0.9,4.3-0.4L520.4,376.7z M496.1,501L496.1,501c0.9,0,1.5,0.4,2.4,0.9c0.4,0.4,0.9,1.5,0.9,1.9c0,0.9-0.4,1.5-1.5,1.9
	c0,0.9-0.4,1.9-1.5,2.4c-0.9,0.4-1.5,1.5-1.9,1.5c-2.8,2.8-5.2,4.3-6.6,5.7c-6.6,5.7-11.4,10.5-14.7,13.3c-0.4,0.4-1.5,0.9-2.8,1.5
	c-0.9,0.9-2.4,1.5-3.3,1.5c-0.4,0-0.4,0-0.9,0c-0.9,0-1.9,0-2.4-0.4c-0.4-0.4-0.9-0.9-0.9-1.9c0-0.9,0.4-1.5,0.9-1.9
	c1.5-2.4,3.3-4.3,5.2-6.1c1.9-1.9,4.8-4.3,8.1-7.2l4.8-3.7l3.7-2.8c4.3-3.3,7.2-5.7,10-6.6L496.1,501z M502.3,436.2l-6.1,3.3
	c-4.3,2.4-7.6,5.2-10.9,7.6l-4.3,2.8c-1.5,0.4-2.8,0.9-4.3,1.5c-0.4,0.4-0.9,1.5-1.5,2.4c0,0.9-0.4,1.9-0.4,2.4
	c-0.4,1.9-0.4,3.3-0.9,4.3c0,0.4-0.4,0.9-0.9,1.5c-0.4,0.9-0.9,1.5-1.9,1.9l3.3-0.4c0.4,0,0.9-0.4,1.5-0.4s0.9-0.4,0.9-0.9
	c1.9,0,3.7-0.4,5.7-1.9l5.7-2.8c2.4-1.5,4.3-2.4,5.2-2.8c2.8-1.9,5.2-4.3,6.6-7.6C501.8,443.9,502.3,440.4,502.3,436.2L502.3,436.2
	L502.3,436.2z M485.6,425.3c-2.4,0.9-4.3,2.4-5.2,3.7c-0.4,1.5-0.9,2.8-0.9,5.2c-0.4,1.9-0.4,3.3,0,3.3c0,0,0.4-0.4,0.9-1.5
	c3.3-2.4,7.6-6.6,12.4-12.4c-0.4-0.4-0.9-0.4-0.9-0.4c-0.4,0-0.9,0-1.5,0.4c-0.4,0-0.9,0.4-1.5,0.4L485.6,425.3z M497,398.6
	l-3.7,3.3c-0.4,0.9-1.5,1.5-2.4,2.8c-0.9,1.5-1.9,1.9-1.9,2.8c0,0.4-0.4,1.5-0.4,2.8c-0.4,1.5-0.9,2.4-2.4,3.3
	c0.4,1.5,0,2.8-0.9,4.3c-0.9,1.5-1.9,2.8-2.4,3.7h0.4c0.4,0,0.9-0.4,1.5-0.9c0.4-0.4,1.5-0.9,1.9-0.4c1.9-0.9,4.3-2.8,7.2-4.8
	c3.3-2.4,5.7-4.3,8.1-5.2c0.9,0,1.5-0.4,1.5-0.9c0.4-0.4,0.4-0.9,0.4-1.9c0.4-0.4,0.4-0.9,0.4-1.9v-0.9c0-0.9,0.4-1.5,0.4-1.9
	l-1.9-3.7c0-0.4-0.4-0.4-0.9-0.9c-0.4-0.4-1.5,0-1.9,0c-0.4,0-0.9,0-0.4-0.9c0-0.4-0.4,0-0.9,0L497,398.6z M504.2,420l-1.9,1.9
	c0,0.4-0.4,0.9-0.9,1.9c-0.4,0.9-0.4,1.5-0.4,2.4h0.4c0.4,0,0.9,0,1.5-0.4c0.4-0.4,0.9-0.4,0.9-0.4l0.4-2.4V420L504.2,420z
	 M514.7,518.1l-0.9,0.9c-2.8,3.3-4.3,5.2-4.3,6.6c0,0.9,0.4,1.5,1.9,1.5c1.5-0.4,2.8-0.9,4.3-1.9c0.9-0.9,1.5-1.9,1.5-3.3
	c-0.4-0.4-0.9-0.9-0.9-0.9c0-0.4,0-0.4,0.4-0.9c0.4-0.4,0.4-0.4,0.4-0.9c0,0-0.4-0.4-0.9-0.4L514.7,518.1z M540.8,498.6l-3.7,2.4
	c-0.4,0.4-0.9,0.9-1.9,1.9c-0.9,0.9-1.5,1.5-1.9,1.9c-0.4,0.4,0,0.4,0.9,0.4c0.9-0.4,1.9-0.9,3.7-2.4c1.5-1.9,2.4-2.8,2.4-3.3v-0.9
	h0.6V498.6z M748.1,420.9h4.8c0.4,0,1.5,0.4,2.4,0.4c0.9,0,2.4,0.4,3.3,0.9c0.4,0,0.9,0,1.9,0c0.9,0,1.5,0,2.4,0
	c3.7,2.4,6.1,4.8,8.1,6.6c1.9,1.9,2.4,4.3,1.9,7.2c1.5,0.9,3.3,1.5,5.2,1.5c1.9,0.4,3.3,0.4,4.3,0.9c3.3,0.4,6.1,0.4,8.1,0.4
	c3.3,0,8.5-0.4,15.3-0.9c1.9-0.4,4.8-0.4,8.1-0.9c0.9,1.5,2.8,3.3,5.2,6.1c2.4,1.9,4.3,4.3,5.7,6.6c0,0.9-0.4,1.9-0.9,2.8
	c-0.4,0.9-1.5,1.5-1.5,1.9c-2.8,1.5-5.2,2.4-7.2,2.8c-1.9,0-4.3,0-6.6-0.4c-2.4-0.4-4.3-0.4-5.2-0.4c-10,0.9-21,2.4-33.9,5.2
	l-0.4,11.8c-0.4,10.5-0.4,18.1-0.9,22.8c0,3.3,0,5.7,0,7.2c0,6.1,0,10.9-0.4,14.2c-0.4,0.9-0.9,1.9-0.9,2.8s0,2.4,0,2.8
	c-0.4,0.9-0.9,1.9-0.9,2.8s0,1.5,0,1.5c-0.4,1.5-0.9,3.3-1.5,6.1c-0.4,0.4-0.9,1.5-0.9,2.4c0,0.9-0.4,1.9-0.4,2.4
	c-0.4,0.9-0.9,1.5-0.9,2.4c0,0.9-0.4,1.5-0.9,1.9c-1.5,3.7-2.8,6.6-4.3,8.5c0-0.4,0-1.5,0.4-2.4c0-0.9,0.4-1.9,0-2.4
	c0-0.4-0.4-0.4-0.9,0c-0.4,1.5-0.9,3.3-2.4,5.2c-1.5,2.8-2.4,4.8-2.4,6.1c-0.4,0.4-0.4,1.5-0.9,2.4c-0.4,0.9-0.4,1.5-0.9,1.9
	c-0.4,0.4-0.9,0.4-1.5,0.4v-1.9c0-0.9,0.4-2.4,0.9-3.3c0-0.9,0.4-1.9,0.9-3.7c0.4-1.9,0.9-3.3,0.9-3.7c0-0.9-0.4-1.9-1.9-1.9
	c0.4-8.5,0.4-14.7,0.4-19c0-4.3,0-11.4-0.4-21.4v-10.9c-0.9-11.4-1.9-20.5-2.4-26.7c0-0.4,0-1.5,0-1.9c0-0.4,0-1.5-0.4-1.9
	c-0.4-0.4-0.4-0.4-1.5-0.4c-1.5,0.9-3.7,1.5-6.1,2.4c-2.4,0.4-4.3,0.9-5.2,1.5c-9.6,3.3-17.1,5.2-23.4,6.6
	c-3.3,1.5-8.5,2.8-15.3,5.2c-0.4,0-1.5,0.4-3.3,0.9c-1.9,0.4-3.3,0.4-4.8,0.4c-1.5,0-2.8-0.4-3.7-0.9c-2.4-2.4-4.3-4.8-5.2-7.6
	c-1.5-2.8-2.4-5.7-3.3-8.5c-0.9-2.8-1.5-4.8-1.5-5.2c0-0.4,0-1.5,0-2.4c0-2.4,0.9-4.3,2.4-4.8l1.5,2.4l4.3,2.4
	c2.4,0.9,4.3,1.5,5.2,1.5c3.3-0.9,7.2-1.9,11.4-1.9c4.3-0.4,7.2-0.4,8.5-0.9c10-0.9,17.1-2.4,21.9-2.8c4.3-0.9,8.5-1.9,12.4-2.4
	l4.8-0.9c0-0.9,0.4-1.9,0.9-2.8s0.4-1.9,0.4-2.8c0-0.4,0-0.9-0.4-1.9v-0.4c0-0.9-0.4-1.9-1.5-3.7c-1.5-1.9-2.4-4.3-2.4-6.6
	c0-0.9,0-1.9,0-2.4c0,0-0.4-0.4-0.9-0.9c-0.4-0.4-0.4-0.4-0.4-0.9c0-0.4,0-0.4,0.4-0.9c0.4-0.4,0.9-0.9,1.9-1.9
	c0.9-0.9,1.5-1.5,2.4-2.4s1.9-0.9,2.8-0.9L748.1,420.9L748.1,420.9z M680.9,482.4C681.3,482.8,681.3,482.8,680.9,482.4
	C680.9,482.8,680.9,482.8,680.9,482.4L680.9,482.4z M766.7,379.1c0.9,1.5,3.7,3.7,7.6,8.1c0.4,0.4,1.5,1.9,2.8,3.7
	c1.5,1.9,2.4,3.7,3.3,5.2c0.4,1.5,0.4,2.4,0.4,3.7c0,4.3-1.9,9-6.1,12.9c-0.9,0.4-1.5,0.4-2.4,0c-0.9-0.4-1.5-0.9-2.8-1.5
	c-0.9-0.9-2.4-0.9-2.8-0.9c-1.9,0-4.3,0.4-6.6,0.9c-2.4,0.4-3.7,0.9-4.3,0.9l-5.2,1.5l-6.6,0.9c-7.2,1.5-14.2,2.4-21,3.3h-8.5
	c-3.3,0-6.1,0.4-8.5,0.9l4.8-3.3c3.7-2.4,6.1-4.3,7.6-5.2c0.9-1.5,1.9-2.8,3.3-4.3c1.5-0.9,2.4-2.4,3.7-3.3c1.3-0.9,2.4-1.9,2.8-2.4
	c4.3-2.4,6.6-3.7,7.6-4.8c0.4-0.4,2.4-0.9,4.8-1.9c2.4-1,4.3-1.9,5.2-3.3c1.9,0,4.3-0.4,6.6-1.5c2.2-1,3.7-1.5,4.8-1.9
	c0.4-0.4,0.9-1.5,0.9-2.4v-1.5c0-0.9,0.4-1.9,1.5-2.4c0.9,0,2.4-0.9,3.3-2.4c0.4,0,0.4-0.4,0.9-0.9c0.4-0.4,0.9-0.4,0.9-0.4
	s0.4,0,0.9,0.4L766.7,379.1z M758.1,544.8c-0.4,0.4-0.4,0.4,0,0.4C758.1,545.2,758.6,545.2,758.1,544.8L758.1,544.8L758.1,544.8
	L758.1,544.8z M771.9,440.4c0.4,0.4,0.9,0.9,0.9,0.4c0-0.4,0.4-0.4,0.4-0.4C773.4,440,772.8,440,771.9,440.4L771.9,440.4z
	 M921.5,388.1l2.4,1.5c0.9,0.9,2.4,1.9,3.7,3.3c1.5,1.5,2.4,2.4,2.8,2.8c3.7,4.3,7.2,10.5,10.9,17.7c0,0.9,0.5,1.5,0.9,2.4
	c0.5,0.9,0.5,1.9,0.5,2.4s0,0.9-0.5,1.9c0,0-0.5,0.4-1.5,0.4c-0.5,0.4-1.5,0.4-1.9,0c-2.4,1.9-4.8,5.2-7.6,10.5l-2.4,3.7
	c-1.5,3.3-2.4,6.1-2.8,7.6c0,0.9-0.5,1.5-0.5,2.4s0,1.9,0,3.3c0.5,0.9,0.9,1.5,0.9,2.8c0,1.3,0,1.9,0,2.4c0,0.9-0.5,2.8-0.9,5.2
	c-0.5,2.4-0.9,3.7-0.9,4.8c0,1.9,0.5,3.3,1.9,3.7c0,0.4-0.5,1.5-1.5,2.8c-0.9,1.5-0.9,3.3-0.5,5.2c0.5,0.9,0.5,2.8,0.9,5.2
	c0,0.9,0.5,1.9,0.5,2.8s0,2.4,0,3.7c0,1.9-0.5,2.4-1.9,1.9l-0.5,9c0,0.4,0,1.5,0,2.8c0,1.3,0.5,2.4,0.9,3.3l1.5,13.3
	c0,2.8,0,5.7-0.5,8.5c-0.5,2.4-1.9,5.2-2.8,8.1c-3.3,5.2-5.7,8.5-7.2,10.5c-1.5,0.9-2.4,1.5-2.8,1.9c-0.9-0.9-1.9-1.9-2.8-3.3
	c-0.9-1.5-1.5-2.8-1.9-3.7c-0.5-1.5-1.5-3.3-2.4-5.2c-0.9-4.3-1.9-8.5-1.9-13.3c0-4.8-0.5-7.6-0.5-8.5c0-3.3,0.5-7.6,1.5-13.8
	l0.9-6.1c0-0.9,0-2.4,0.5-4.8c0.5-3.3,0.5-5.7,0.5-7.2c0-1.9,0-2.8,0-3.7l-2.4,1.9c-0.5,0.4-1.5,1.9-2.4,4.3
	c-0.9,2.4-2.4,3.7-3.7,4.3c-10.5,13.8-21.4,23.4-33.9,29.1c-1.5,0.4-3.3,0.9-5.2,0.9s-3.3,0.4-3.7,0.4c6.1-6.1,12.4-13.3,18.6-21.9
	c4.8-7.2,9-14.7,12.9-22.8c3.7-8.1,8.1-17.7,12.9-29.1l5.2-13.3c5.2-11.8,9-21.9,11.4-29.5c0.5-0.4,0.9-1.5,1.5-2.4
	c0.5-0.9,0.9-1.9,0.9-2.4c0-0.9,0-1.5-0.5-1.9c-0.5-0.4-0.9-0.9-1.5-1.9c-0.6-1-1.5-1.5-1.5-2.4c-0.5-0.9-0.5-1.5-0.5-2.4
	c0.5-0.4,0.9-0.4,1.5-0.4s1.5,0,1.9,0.4c0.9,0,1.5,0.4,1.9,0.4L921.5,388.1z M1025,390.9c1.9,0.9,3.3,2.8,4.3,4.8
	c0.5,3.3,0.5,7.6,0.5,12.9c-0.5,1.9-0.9,3.3-1.5,4.8c-0.9,1.5-1.9,3.3-3.7,5.7c-4.8,5.7-8.1,9.6-9.6,10.9c0,0.4-0.5,0.9-0.9,1.5
	c-0.5,0.9-0.9,1.5-1.5,1.9c-1.5,0-1.9,0.9-1.9,2.4c0,0.9,0,1.5,0.9,2.4c0.5,0.9,0.9,1.5,1.9,1.9c0.9,0.4,2.4,0.9,3.7,1.5
	c1.9,0.4,2.8,0.9,3.7,1.9c0.9,1,1.5,1.9,1.5,3.3c0,0.9-0.5,2.4-0.9,3.3c-0.5,0.9-0.9,1.9-1.5,2.4c-0.9,0.9-2.4,1.9-3.3,2.8
	c-0.9,0.4-2.8,0.9-4.8,1.5c-1.9,0.4-3.7,1.5-4.8,2.4c-0.9,0.4-2.4,0.9-3.7,0.9c-1.9,0.4-2.8,0.9-4.3,0.9l2.4,2.8
	c0.5,0.9,0.5,1.9,0.5,3.3c0,0.9,0.5,2.4,0.5,3.3c7.6,0,16.2-0.4,26.7-2.4h1.9c0.9,0,1.9,0,2.4,0.4c2.8,1.9,4.8,3.3,5.7,4.8
	c0,0.4,0,1.5,0,2.8c0,1.3,0.5,2.8,0.9,3.7v0.4c0,0.9,0,1.5-0.4,2.4c-0.5,0.9-0.5,1.5-0.9,2.4c0,0.4-0.5,0.9-0.9,1.5
	c-0.5,0.9-0.9,1.5-1.5,1.9c-1.5,0.9-4.3,1.5-8.1,2.4l-1.5-0.4c-0.9,0-1.9,0-2.4,0.4c-0.5,0-1.5,0.4-1.9,0.4
	c-7.6,0.4-13.3,0.4-17.1,0.4c-0.9-0.4-1.9-0.4-2.8-0.4c-1.5,0-1.9,0.4-1.5,1.9c0.5,0.9,1.9,1.5,2.8,2.4c1.5,0.4,2.4,0.9,2.8,1.5
	l3.7,2.4c2.8,1.5,5.2,2.8,7.2,4.8c8.5,5.2,18.6,12.9,30.4,21.9c5.7,5.2,9.6,8.5,11.4,10.5c0.4,0.9,1.5,2.4,2.4,3.3
	c0.5,0.9,1.5,1.5,2.4,2.4c0.5,0.4,0.5,0.9,0.9,1.5c0.4,0.4,0.9,0.9,0.9,1.5s0,0.9-0.4,1.5c-0.9,0.4-2.8,0.9-4.8,0.9
	c-2.4,0-6.6,0-12.4-0.4l-6.1-0.4c-0.9,0-1.9,0-3.3,0.9c-1.5,0.4-2.4,0.9-2.8,0.9s-1.5,0-1.9-0.4c-0.9-0.4-2.4-1.9-4.8-4.8
	c-0.5-0.4-0.9-0.9-1.9-1.9c-0.4-0.9-1.5-1.5-2.4-1.9c-1.9-3.7-4.8-7.2-7.6-10.5c-2.8-3.3-7.2-6.6-11.8-10.9
	c-0.5-0.9-1.9-1.9-3.3-3.3c-1.5-1.5-2.8-2.4-3.7-3.3v4.8v4.8c0,0.4,0,1.5,0,2.8c0,1.5,0.5,2.8,0.9,4.3c0.5,2.8,0.5,4.8,0.5,6.1
	c0,0.9,0,1.9,0,2.8c-0.9,1.9-1.9,4.3-2.8,6.6c-1.5,4.3-2.8,7.6-4.3,9.6c-0.5,0.4-0.5,0.9-1.5,1.5s-1.5,0.9-1.9,0.9
	c-1.9-1.5-3.7-2.8-5.7-4.8c-1.9-1.9-3.3-3.7-4.8-5.2c-1.5-1.9-2.8-3.3-3.7-4.3c-0.9-0.9-1.9-2.8-2.8-4.3c-0.9-1.9-2.4-3.3-3.7-4.3
	c-1.5-0.9-2.8-1.9-4.3-2.4h-0.9h-3.3c-2.4,0-2.8-0.4-2.4-1.5c1.9-1.5,2.8-1.9,3.7-2.4c0.5,0,1.5-0.4,3.3-0.4
	c1.9-0.4,3.3-0.4,4.8-1.5l2.8-0.4c0.9,0,1.9,0.4,2.8,0.4l3.7-1.9c1.5,0,2.4-0.4,3.3-0.4c0.5-0.4,0.9-1.5,1.5-2.4
	c0.5-3.7,0.5-6.6,0.5-8.5v-10.9c-2.4,2.4-4.3,4.3-5.7,5.2c-4.8,4.8-8.5,7.6-10.9,9l-6.1,5.2c-5.2,4.3-9.6,8.1-12.4,11.4
	c-3.3,2.4-8.5,4.8-15.3,7.6c-0.5,0-0.9,0-1.9,0.4c-0.9,0.4-1.5,0-1.9-0.4c1.5-2.8,3.7-5.7,7.2-9l3.7-4.8c0.5-1.5,1.5-2.8,2.4-4.3
	c1.5-1.5,1.9-2.4,2.4-2.8l5.2-4.8c7.6-7.2,12.9-12.4,16.2-16.2c-1.9,0.9-4.3,1.9-7.2,2.4c-2.8,0.4-4.3,1.5-5.2,1.5
	c-1.5,0.4-2.4,0.9-3.3,1.5c-0.9,0.4-1.9,0.9-2.8,0.9c-3.3,1.5-5.7,2.4-7.6,3.3s-3.7,0.9-6.1,0.9c-0.5-0.4-0.9-1.5-1.5-2.8
	c-0.5-1.5-1.5-2.8-1.5-3.7c0-1.5,0-2.8,0-3.7s0.5-1.9,0.5-2.4c0-0.4,0.5-1.5,0.5-1.9c0-0.9,0-1.9,0-2.8c0.5-1.9,1.5-2.8,2.4-3.7h0.9
	c1.9,0,2.8,0.4,3.3,1.5c0,0,0,0.4,0,0.9c0,0.4,0.5,0.9,0.9,1.5c0.5,0,1.5-0.4,2.4-0.9c0.9-0.4,1.9-0.4,2.4-0.9
	c1.5-0.9,3.7-1.9,7.2-2.8c0.5-0.4,1.5-0.4,2.4-0.9c0.9-0.4,1.9-0.4,2.4-0.9c7.6-2.4,15.7-4.8,23.4-6.6c0.5-0.4,0.9-0.9,0.9-1.5
	c0-0.4,0-1.5-0.5-2.4c-0.5-0.9-0.5-1.9,0-2.4c0.5-0.9,0.9-2.4,0.9-3.7c0-0.9,0-1.5-0.5-1.5c-0.5-0.4-0.9-0.4-1.5,0
	c0-0.4-0.5-1.5-0.5-2.4s-0.5-1.9-0.9-2.4c-0.5-0.4-0.9-0.9-1.5-0.9c-1.9-2.4-2.4-5.7-2.4-9.6c0-3.7,0.9-8.1,2.4-12.9
	c0.5-0.4,0.9-0.9,1.5-1.5c0.5-0.4,0.9-0.4,1.5-0.9c0-0.4,0.5-0.9,0.9-1.9c0.5-0.9,0.9-1.9,1.5-2.4c0.5-0.4,1.9-0.9,2.8-1.5
	c0.9-0.4,1.9-0.9,2.4-0.9c1.5-0.9,4.8-3.7,10-8.5c0.5-0.4,1.5-1.5,2.4-2.4c0.9-0.9,1.9-1.5,2.4-2.4c0.5-0.9,0.5-1.5,0-2.4
	c-2.4-0.9-5.2-1.5-8.5-1.5c-1.9,0-3.7,0-4.8,0c-0.5,0-1.9,0-2.8,0c-0.9,0-2.4,0-3.7,0c-1.9-0.9-3.7-1.5-5.2-1.9
	c-0.5-0.4-1.9-0.4-3.3-0.9c-1.5-0.4-2.4-0.9-3.3-1.5c-0.5-2.4-0.9-4.3-0.9-5.2c0-0.4,0-0.9,0.5-1.9c0-0.9,0.5-1.5,0.9-0.9
	c0.5,0.4,1.5,0.9,1.9,1.5c0.5,0.4,0.9,0.9,0.9,1.5c0.5,0,0.9,0,0.9,0h0.9c0.9,0,2.4-0.4,3.7-0.9c1.5-0.4,2.8-0.4,4.3-0.4
	c0.9,0,1.5,0,1.9,0c9.6-1.9,17.1-3.7,22.8-5.2c1.9,0,5.2-0.9,9-2.4c0.5,0,0.9-0.4,1.9-0.9c1-0.4,1.9-0.9,2.8-0.9L1025,390.9z
	 M962.6,401c0.5,0.4,0.5,0.9,0.9,1.9c0.4,1,0.9,1.5,1.5,1.9c0.9,1.5,1.9,3.3,2.8,5.7c1.5,4.3,2.4,10,2.8,17.7
	c0.5,4.3,0.5,7.6,0.9,9.6c0.5,0.9,0.5,1.9,0.5,3.3c0,1.5,0,2.4,0,2.8c0,0.4,0,1.5,0.5,2.4c0,1.9-0.5,4.8-0.9,8.1
	c-0.5,0.9-0.9,2.4-1.9,3.3c-0.9,0.9-1.5,1.9-2.4,2.4c-0.9-0.4-1.9-0.9-2.4-1.9c-0.5-0.9-1.5-1.9-1.9-2.8c-0.5-0.9-0.9-1.9-1.5-2.4
	c-0.5-1.5-1.5-3.3-1.5-5.2c-0.5-1.9-0.5-3.3-0.9-4.3c-0.5-2.4-1.5-4.8-1.5-7.6c-0.5-3.7-0.9-6.1-1.5-6.6c0-1.9-0.5-4.8-0.9-8.5
	c-0.9-2.4-2.8-4.3-5.7-6.6c-0.5-0.4-0.5-0.9-0.5-1.5c0-0.4,0-0.9,0-1.5c-0.9-1.9-1.9-3.7-3.3-5.7c-1.5-1.9-2.4-3.3-2.8-4.3l0,0
	c2.8,0.9,5.2,1.5,6.6,1.5c0.9,0,2.4-0.4,3.7-0.9c1.5-0.4,2.8-0.9,3.7-0.9c0.5,0,1.5,0,2.4,0c0.9,0,1.9,0,2.4,0L962.6,401z
	 M943.5,413.3c0.5,0.4,0,0.9,0,0.9C942.9,414.3,942.9,413.7,943.5,413.3L943.5,413.3z M947.7,484.8c-0.5,0.4-0.5,0-0.5-0.4l0.5-0.4
	C947.7,484.3,947.7,484.8,947.7,484.8z M1199.8,371c0,0.9-2.4,1.9-7.2,2.4l-0.4,0.9c2.4,0,3.7,4.3,3.7,12.4h0.4l12.9-10
	c3.3,0.4,6.6,1.9,10,5.2v0.4c-1.9,3.7-3.3,6.6-5.2,8.5v0.4c3.7,0.9,8.1,2.8,11.8,6.1v0.4c0,0.4-0.4,0.9-1.5,1.5h-0.4
	c-6.6-1.9-10-3.3-10-3.7v-0.4h-3.7c-3.7,5.2-7.2,7.6-9.6,7.6c-0.9,0-2.4-0.9-4.3-2.8v0.4c0.4,2.4,0.4,4.3,0.4,5.7v0.4h0.5
	c6.6-3.3,12.4-5.2,16.6-6.6c1.5,1.9,2.4,2.4,3.7,2.4v0.4c0,0.4-4.8,3.3-13.8,8.5v0.4c1.5,1.9,2.4,2.8,2.4,2.8c-0.4,5.7-0.9,9-0.9,10
	c4.3-6.1,8.5-10.9,11.8-14.2h0.9c0.5,0,1.9,1.5,4.3,4.3v0.4c0,4.8-3.7,8.5-11.8,11.4v0.9c10.5,8.1,19.9,11.8,30,11.8
	c0.4-0.4,0.9-0.4,1.5-0.4l0.4,0.9v1.5c0,1.5-1.9,1.9-5.7,2.4c-8.5,0-15.7-2.8-21-9c-4.3-3.3-7.6-5.2-9-5.2c-0.9,1.9-1.9,4.8-2.4,8.5
	v0.4l0.9,1.5v0.4l-0.9,1.5c0.5,0,0.9,0.4,0.9,0.9c-0.5,0.9-0.5,1.5-0.9,1.5c0.5,0.4,0.5,2.8,0.9,6.1l-0.9,0.4
	c-3.3,0-5.2-2.4-6.1-7.2c0.9-2.8,1.5-4.3,1.5-5.2v-8.5c-8.1,5.7-13.3,8.5-16.2,9c-0.9,0-1.5-0.9-1.9-2.4l0.9-0.4
	c0,0.4,0.4,0.9,0.9,0.9c6.1-2.4,10.9-7.2,15.3-14.2c1.9-4.3,2.8-7.2,2.8-8.1v-0.9h-0.4l-0.9,0.4c-0.5-0.4-0.9-0.4-1.5-0.4
	c-0.9,2.4-9,10.9-24.7,25.8c-4.3,2.4-6.6,3.7-7.2,3.7l-0.4-0.9c3.7-0.9,13.8-10.5,29.5-28.6c0.5,0,3.3-2.4,9-7.6h-0.9
	c-2.4,1.5-4.8,3.3-7.6,6.1h-1.9c-0.5,0-0.5,0-0.5-0.4c-8.1,4.8-13.3,7.2-16.2,7.2l-1.5-1.9c5.2-1.9,10.5-4.3,15.7-7.6
	c-2.8-1.9-4.3-3.7-4.3-5.2l0.9-0.4c0,0.4,0.5,0.9,1.5,1.5l0.9-0.4c0,0.4,0,0.4,0.5,0.4V399c0-0.4,0-0.4,0.4-0.4c0-0.4,0-0.4-0.4-0.4
	l0.4-2.4v-1.5c-3.3,2.4-6.1,5.2-8.1,9l0.5,0.9v0.9c0,0.4-0.5,0.9-0.9,0.9h-0.4c-0.5,0-0.9-0.4-1.5-1.5c-0.5,0-2.8,1.9-6.6,5.7h-3.7
	c-0.5,0-0.9-0.4-1.9-1.9c7.2-5.7,10.5-9,10.9-10l0.5-3.7c-0.5-0.4-0.5-0.9-0.5-1.5c0.9,0,1.5-1.9,1.5-6.1l-0.9,0.4h-1.5
	c-0.5,0-0.9-0.4-0.9-0.9v-0.9c2.8-0.9,3.7-1.5,3.7-1.9v-3.9h-1.5c0,1.5-2.8,2.8-9,4.3h-1.9c-2.8,0-4.8-0.4-4.8-1.5v-0.9l2.4,0.4
	c3.7,0,11.8-4.3,25.2-12.4c1.5,0,2.4-0.4,2.8-0.9h0.5C1198.8,369.5,1199.8,369.9,1199.8,371z M1185.4,396.6l6.1-5.7v-1.5
	c-1.9,0-3.7,1.9-6.6,6.1h-0.5C1184.5,396.2,1185,396.6,1185.4,396.6z M1191.7,386.6v-0.9c0-0.4-0.5-0.9-1.5-1.5
	c-0.5,0-1.5,1.5-3.7,4.3h0.5C1188.9,387.2,1190.2,386.6,1191.7,386.6z M1191.1,376.7c0-0.4-0.5-0.9-0.9-0.9h-1.9
	c-0.5,0-0.9,0.4-0.9,0.9l0.4,0.9l-0.4,2.4h0.4C1189.8,380,1191.1,378.5,1191.1,376.7z M1196.4,399.5l0.9-0.4c0-0.4,0-0.4-0.4-0.4
	c0-2.8,1.5-5.2,3.7-7.6h6.6c3.3-5.2,5.2-8.5,5.2-10.9c-0.9,0-1.9-0.4-2.4-0.9c-3.3,0.4-7.6,4.3-13.3,11.4c0,2.4,0,3.7-0.4,4.3
	C1196.4,394.2,1196.4,396.2,1196.4,399.5z M1200.3,399.5c2.8-3.3,4.3-4.8,4.3-5.2h-2.8c-0.4,0-0.9,1.5-1.9,3.7v0.4
	C1199.2,399,1199.8,399.5,1200.3,399.5z M1215,419l1.5-1.9v-0.9h-0.4c-4.3,4.8-7.2,8.1-7.6,9.6v0.4h0.4
	C1208.8,425.7,1211.2,423.3,1215,419z M1319.4,378l0.4,1.5v1.5c0,1.5-0.9,1.9-2.4,1.9l-1.5-0.9c-0.9,0.4-1.5,0.9-2.4,0.9h-0.4
	c-0.5,0-0.5,0-0.5-0.9c-4.3,0.9-6.6,3.3-6.6,6.6c-2.8,6.6-3.7,10.9-3.7,12.4c9.6,3.7,14.2,8.1,14.2,11.8c-1.9,9-7.6,19-17.1,30.4
	c-6.6-2.8-9.6-6.1-9.6-9.6v-10c0-0.9,0.5-1.5,1.5-1.5h0.5c0.9,0,1.9,3.7,2.8,11.4c0.9,0,1.5,0.4,1.5,1.9c3.3-1.5,7.6-10,12.9-24.7
	c-2.4-5.2-5.2-8.1-9-8.1l-13.3,14.2c0,1.9-1.9,3.3-5.7,4.8c-0.5,1.9-4.8,6.6-12.4,13.8v-0.9l14.2-18.1
	c10.5-15.7,15.7-25.2,15.7-29.5h-0.9c-1.9,1.5-4.8,2.8-10,3.3c-5.2-1.5-7.6-2.4-7.6-3.3c0.9-0.9,3.7-1.9,8.5-1.9
	c13.8-6.6,22.3-10,25.2-10h0.9l3.3,2.4C1318.5,378.5,1318.9,378,1319.4,378z M1396.6,402.3c-1.9,1.9-2.4,3.7-2.4,5.7
	c1.5,0,3.7-0.9,6.1-3.3c3.7-0.4,7.2-0.4,10-0.4h1.5c3.3,1.9,5.2,3.3,5.2,3.7v0.4c0,0.4-0.4,0.9-1.5,1.5c-2.8-1.5-5.2-1.9-6.1-1.9
	c-10.5,0.9-15.3,2.4-15.3,3.7v6.1c0,0.4,0,0.4-0.5,0.4c0,0.4,0,0.4,0.5,0.4l-0.5,2.4l0.5,2.4L1389,447c-0.5,3.3-0.9,5.2-1.9,5.2
	l-0.5-0.9h0.5l-0.5-0.9l0.5-3.7l-0.5-0.9l1.5-7.6l-0.5-0.9l0.5-0.9l-0.5-0.9l0.9-2.8c0-0.4,0-0.4-0.5-0.4l0.9-5.7
	c-0.5-0.4-0.5-0.9-0.5-1.5c0-0.4,0-0.4,0.5-0.4l-0.5-2.4v-0.9c0-0.4,0-0.4,0.5-0.4l-0.5-0.9l0.5-1.5c0-0.4,0-0.9-0.5-1.5l0.5-2.8
	c-0.5-0.9-0.5-1.5-0.5-1.5l-19.9,8.5c-4.3,1.9-8.5,4.3-12.9,6.6l-3.7,0.9l-0.9-1.5c0.9-1.5,10.5-6.1,28.6-13.8
	c6.1-1.5,9.6-2.8,9.6-5.2c0-0.4,0-1.5-0.5-3.3c0.5-2.8,0.5-4.8,0.5-5.7l-0.5-2.4l0.9-0.4h0.5
	C1394.2,397.1,1396.6,399.5,1396.6,402.3z M1368.4,410.9L1368.4,410.9c-0.4-0.9,0.9-2.4,3.7-4.8h0.5v0.4
	C1370.4,410,1368.9,410.9,1368.4,410.9z M1401.7,383.3v0.4c-0.5,0.9-3.7,3.3-9.6,6.6c-2.4,2.4-6.1,5.2-10.5,7.6
	c0,0.4-2.8,3.3-8.5,8.1v-0.9c5.7-6.1,10.5-10.9,13.3-14.7h-0.9c-0.4,0-0.9,0.4-0.9,0.9c-0.5,0-0.5,0-0.5-0.4c-0.5,0-0.9,0-1.5,0.4
	c-3.3,0-6.1-0.9-7.6-2.4l0.5-0.9l3.7,0.4h0.9c4.8-2.4,8.5-4.3,11.8-6.6c2.4-1.5,3.7-1.9,4.8-1.9
	C1399.9,381.3,1401.7,382.4,1401.7,383.3z M1456.6,389c-0.5,2.4-3.3,6.1-8.5,10.9c-0.9-0.4-1.5-0.4-1.5-0.4l-0.4,0.9v0.9
	c6.1,1.9,9,5.2,9,10v1.5l-0.9,6.1h0.9c0.9-2.8,1.5-4.3,2.4-4.3h0.4v0.4c-0.4,2.4-1.5,5.7-2.8,10c0.5,1.9,0.5,2.8,0.5,3.3
	c-1.5,9.6-1.9,14.2-2.4,14.2h-0.9c-1.9-0.9-2.4-1.9-2.4-3.3l-0.9,0.4c-0.4,0-0.9-0.4-0.9-1.5c0-0.4,0-1.5,0.4-3.3
	c0-0.4,0-0.4-0.4-0.4c0.9-8.5,1.9-17.1,1.9-26.2c-0.9-2.4-1.5-3.3-1.9-3.3h-3.3c-0.9,0-2.4,0.9-3.3,2.4h-0.9c-0.4,0-1.5-0.9-1.9-2.4
	c9.6-9,14.2-15.7,14.2-19.9c-0.5-0.9-0.5-1.5-0.5-1.5c0.5-0.4,0.9-0.9,1.5-0.9C1455.1,383.7,1456.6,386.1,1456.6,389z M1491.4,381.9
	v1.9c-1.5,3.3-6.1,9-15.3,17.7l-11.4,14.2v0.4h0.9c10-4.8,14.7-7.6,14.7-8.1v-6.6l-0.5-0.9l0.9-0.4h0.9c0.9,0,1.9,1.5,4.3,4.8
	l10.5-1.5c2.4,1.9,3.7,2.8,3.7,3.3c0,0.4-0.5,0.9-1.9,1.5h-0.4c-1.9-0.9-3.3-1.5-3.3-1.5c-6.1,0.9-9.6,2.8-9.6,5.2
	c0,5.7-0.5,11.8-0.9,18.6l0.5,0.9c-0.5,0.9-0.5,1.5-0.9,1.5c0,0.9,0.5,3.3,0.9,6.6c-0.5,4.8-0.9,7.2-1.9,7.2h-0.9
	c-5.2-4.3-7.6-7.6-7.6-9.6h0.9l3.3,2.8v-0.9c0-5.7,0.5-13.8,1.5-24.7v-2.4h-0.5c-9,4.8-15.3,8.5-18.1,10.9h-2.4
	c-0.4,0-0.9-0.4-1.9-1.9v-0.4c4.8-4.3,10.9-11.8,18.6-21.9c-1.5,0-2.4-1.5-3.3-3.7l-0.9,0.4l-0.5-0.9c0-0.4,0-0.4,0.5-0.4l-0.5-0.9
	v-3.3c0-2.4-0.9-4.3-2.8-5.7c0-0.9,0.5-1.5,0.9-1.5h0.5c0.4,0,1.9,1.5,4.3,4.3c0.4,0,1.9-1.9,4.3-6.1c2.4-1.9,4.3-2.8,5.7-2.8
	C1489.5,379.5,1491.4,380.9,1491.4,381.9z M1472.8,423.8c-0.5,6.1-0.9,9-1.5,9l0.5,0.9v0.9c0,0.9-0.5,1.5-0.9,1.5
	c-3.3-0.9-5.2-2.8-5.2-5.2h0.5l-0.5-0.9c1.9-6.6,2.8-10,3.7-10h0.5C1470,420,1470.9,421.4,1472.8,423.8z M1478.5,396.2
	c3.3-4.8,6.1-9.6,8.5-14.7c-0.9-0.9-1.5-0.9-1.9-0.9c-2.8,0-5.2,3.7-7.2,10.9v3.7C1477.6,395.7,1478.1,396.2,1478.5,396.2z
	 M1509.4,434.7c0,2.4,0,3.7,0.4,4.3c-0.9,1.5-1.5,2.4-1.9,2.8h-0.5c-3.3-2.4-4.8-4.8-4.8-6.6v-1.9c0-0.4,0-0.4,0.5-0.4
	c0-0.9-2.4-4.3-7.6-10.9c0-0.9,0.4-0.9,0.9-0.9C1501.3,424.2,1505.7,429,1509.4,434.7z M1552.3,387.2v0.9c-1.5,4.3-3.3,7.2-5.2,8.5
	c0,3.3,2.4,5.2,6.6,5.2c2.4,0.9,3.7,1.5,3.7,1.9v0.9c0,3.7-4.8,9-13.8,15.3c0,0.9-0.9,2.4-2.4,3.7c0.9,0,0.9,0.4,0.9,0.9v0.4
	c-1.9,7.2-2.4,11.4-2.4,12.4h0.9c1.5-6.1,2.4-9.6,2.4-10h0.9c0,2.4-0.5,6.1-1.9,11.4c0,0.4,0,0.4,0.4,0.4c0,0.4,0,0.9-0.4,1.5
	l0.4,5.2h-0.4c0,0.4,0.4,0.9,0.4,1.5l-0.4,1.9c0,0.4,0.4,1.5,0.4,1.9l-0.9,0.4h-1.5c-1.5-1.5-2.8-2.4-4.8-2.4
	c2.8-18.1,3.7-30.4,3.7-37.2c0-3.7-0.5-9-1.9-15.3l0.9-0.4c1.5,0,2.4,3.7,2.8,10.9v8.5c0,0.4,0.5,0.9,0.9,0.9
	c5.2-5.7,8.1-9.6,9-12.4v-0.9c-5.7-1.5-8.5-2.8-8.5-4.8c0-1.9,1.5-5.7,4.3-11.8h-0.4c-11.8,3.3-19,5.2-21.4,5.2v-0.4
	c4.8-2.8,11.8-5.2,21.4-7.6h2.4C1550.5,385.2,1551.9,386.1,1552.3,387.2z M1576.6,380l-3.7,12.4c1.9,0,2.4,0,2.4,0.4
	c0,0,0.5,0,0.5-0.4c12.9,1.5,19.5,3.3,19.5,5.2v0.4c0,0.9-0.5,1.9-1.9,1.9c-1.9-0.9-2.8-1.9-3.7-1.9h-0.9l-10,3.3l-0.5-0.9V399
	c0-0.9,0.9-1.9,3.3-2.4c0-0.9-3.7-1.9-10.9-3.3c0,2.4-0.9,4.3-3.3,5.2c-1.5,1.5-2.8,4.3-4.8,8.1c-0.4,0-2.4,2.4-5.7,6.6h-1.5
	c0-0.4,3.3-6.1,9.6-17.7c3.7-7.6,6.1-14.7,6.1-21.4c-2.4-0.9-3.3-1.5-3.3-1.9l0.5-0.9C1573.8,372.3,1576.6,375.2,1576.6,380z
	 M1592.4,415.2c0,1.5-2.4,5.2-6.6,10.9c-1.9,2.4-3.7,3.7-5.7,3.7c0,0.9-1.9,2.4-5.2,4.8v0.9c3.3-0.4,5.7-0.9,7.6-1.9
	c8.1,0,14.7,1.9,19.5,5.2v0.9c0,0.4-0.5,1.5-1.9,1.9c-1.5-0.4-2.4-0.9-3.7-0.9c-2.4,0.9-5.7,1.9-11.4,2.8h-1.5v-0.4
	c0-0.4,1.9-1.5,5.7-4.3v-0.4c-1.5,0-2.8-0.4-4.8-0.9c-2.4,0.4-4.8,0.9-6.6,1.5c0-0.4,0-0.4-0.5-0.4c0,0.4-1.5,0.9-4.3,1.5
	c0,1.5-4.3,2.8-12.4,4.3c-0.4,0-0.9-0.4-1.5-1.5c0.9-0.9,4.3-2.8,10-4.3c9.6-9,14.7-15.3,16.2-19.5c0.5,0,0.5,0,0.5-0.4l-0.5-2.4
	c2.4-1.5,3.3-1.9,3.3-2.4C1591,414.3,1592.4,415.2,1592.4,415.2z M1583.4,403.4v0.4l-9,5.2c-0.4-0.4-0.9-0.4-1.5-0.4
	c0,0.4-1.5,1.5-4.8,2.4c0.9,2.4,1.5,5.2,1.9,8.5h-0.5c2.8,5.7,4.3,9,4.3,10l-1.5,0.9h-1.5c-2.4-1.5-3.7-2.8-3.7-4.3v-3.3
	c0-2.8,0-6.1-0.5-10c0.5-0.4,0.5-0.9,0.5-1.5h-0.9l-3.7,2.4h-1.5c-0.4,0-0.9-0.4-1.5-1.5v-0.9c1.9,0,8.1-2.8,19.5-9
	C1581.9,401.9,1583.4,402.3,1583.4,403.4z M1578.1,413.7C1578.1,414.3,1578.1,414.3,1578.1,413.7v1.5v5.7c0,0.4,0.5,1.9,1.5,3.7
	c-0.4,1.5-0.9,1.9-1.5,1.9h-0.9c-1.9,0-2.4-2.4-2.4-7.2c0-1.9,0.5-4.3,0.9-8.1h0.5C1576.6,411.9,1577.7,412.4,1578.1,413.7z
	 M1192.6,503.8h0.5c2.4-1.9,4.3-2.8,6.6-2.8h0.5c2.8,0.9,4.3,2.4,4.3,3.7c-0.9,0-0.9,0.4-0.9,0.9c-0.5-0.4-0.9-0.4-1.5-0.4
	c-3.7,1.9-5.7,2.8-5.7,3.7c3.7,4.3,7.2,9,10.9,14.2c2.8,2.4,4.3,3.7,4.3,4.8c1.5,0,2.4-2.8,2.8-9c-0.5-0.9-0.5-1.5-0.5-1.5
	c0-2.8,0.5-4.3,0.9-4.3l-0.4-0.9v-0.4h1.5v1.9c0,0.4,0.5,1.9,1.5,4.8h-0.5c0.5,1.5,0.9,3.7,1.5,7.2c-1.9,5.2-2.8,8.1-2.8,8.5
	c4.8,6.6,8.5,11.4,12.4,14.2c0.4,0,2.4,0.9,6.1,2.4v-0.4c0-0.4-0.9-3.3-2.4-8.5h1.5c1.9,2.4,4.8,7.2,8.5,14.2
	c-0.5,1.5-0.9,1.9-1.5,1.9h-0.5c-7.2,0-15.7-6.6-25.2-19.5v-0.9c-4.3,4.3-8.1,8.1-12.4,10c-0.5,0.9-2.4,1.9-6.1,2.4l-0.5-0.9
	c6.1-3.3,10.9-9,14.2-18.1c-1.9-0.9-4.3-3.7-7.2-8.5c-5.7-6.6-8.5-10-9.6-10c-4.8,7.6-8.1,13.8-9.6,19h0.5c1.9-1.9,3.7-2.4,5.7-2.4
	c3.3,0.9,5.2,2.4,6.6,4.8v0.4c0,2.8-2.4,5.7-7.2,8.1c0,0.9-1.9,2.8-6.1,5.7h-1.5v-0.9c3.3-3.3,6.6-7.6,9-12.9
	c-0.4-1.5-0.9-2.4-1.5-2.4l-8.5,7.2c0,0.9-1.5,3.7-3.7,8.1c-1.5,5.7-2.8,8.1-3.7,8.1c0-0.4-1.5-1.9-4.3-4.8c0-1.5,2.8-7.2,8.5-17.7
	l8.1-19h-0.5c-6.1,2.4-10.5,3.7-13.3,3.7c-2.8-0.9-4.8-1.9-4.8-2.4c0.5,0,0.5,0,0.5-0.4l0.9,0.4c6.1-0.4,13.3-3.3,21-8.5
	c-4.8-8.1-11.8-13.3-20.5-16.2l-0.9,0.4l-0.5-0.9l1.9-1.5C1174,487.2,1181.7,492.9,1192.6,503.8z M1205.1,479.6l0.9-0.4
	c4.3,0.4,8.5,2.4,12.9,6.6c0.5,0,0.5,0.4,0.5,0.9c-0.5,1.5-0.9,1.9-1.5,1.9h-0.5c-5.7-6.1-10.5-9-14.7-9v-1
	C1204,478.5,1205.1,479.1,1205.1,479.6z M1319.4,486.1l0.4,1.5v1.5c0,1.5-0.9,1.9-2.4,1.9l-1.5-0.9c-0.9,0.4-1.5,0.9-2.4,0.9h-0.4
	c-0.5,0-0.5-0.4-0.5-0.9c-4.3,0.9-6.6,3.3-6.6,6.6c-2.8,6.6-3.7,10.9-3.7,12.4c9.6,3.7,14.2,8.1,14.2,11.8c-1.9,9-7.6,19-17.1,30.4
	c-6.6-2.8-9.6-6.1-9.6-9.6v-10c0-0.9,0.5-1.5,1.5-1.5h0.5c0.9,0,1.9,3.7,2.8,11.8c0.9,0,1.5,0.4,1.5,1.9c3.3-1.5,7.6-10,12.9-24.7
	c-2.4-5.2-5.2-8.1-9-8.1l-13.3,14.2c0,1.9-1.9,3.3-5.7,4.8c-0.5,1.9-4.8,6.6-12.4,13.8v-0.9l14.2-18.1
	c10.5-15.7,15.7-25.2,15.7-29.5h-0.9c-1.9,1.5-4.8,2.8-10,3.3c-5.2-1.5-7.6-2.4-7.6-3.3c0.9-0.9,3.7-1.9,8.5-1.9
	c13.8-6.6,22.3-10,25.2-10h0.9l3.3,2.4C1318.5,486.1,1318.9,486.1,1319.4,486.1z M1387.5,483.3v0.9c0,0.4-0.4,0.9-1.5,1.5h-3.7
	c-0.5,0-0.5,0-0.5-0.4c-9,5.2-13.8,11.8-13.8,19.5c-0.4,0-0.9,1.5-1.5,3.7c8.5-9,15.7-13.8,22.3-13.8c8.5,0,14.2,1.5,17.1,4.8v0.9
	c0,0.9-2.8,1.9-8.5,3.7c0,0.4-1.9,1.5-5.7,3.3c0,0-0.9,0.4-2.4,1.5l0.5,3.7c-3.3,3.7-6.6,6.6-10.5,8.5c-0.9,1.9-1.9,2.8-3.7,2.8v0.4
	h0.4c0.5,0,1.9-0.4,4.3-0.9c6.1,1.5,10.9,3.3,13.3,6.1c0,0.9,0.4,0.9,1.9,0.9c3.3-4.3,5.2-6.6,5.2-7.6c-2.8-1.5-4.8-2.4-4.8-2.8
	l0.9-0.4c3.7,1.5,6.1,2.8,7.6,5.2v1.5l-6.1,5.7c0,0-0.9,0.9-1.9,2.8c0.4,0,0.4,0,0.4,0.4c0.9-0.4,1.5-0.4,1.5-0.4
	c0.5,0,1.5,0.4,3.3,0.9c0-0.4,0.4-0.9,0.9-0.9c0.9,0,2.8,0.4,6.1,0.9l0.9-0.4c1.5,0,1.9,0.4,1.9,0.9l0.9-0.4c4.8,1.9,7.6,3.3,9,5.2
	v0.9c0,0.4-0.4,0.9-1.5,1.5c-0.9-0.4-3.3-0.9-7.2-1.5c-2.8,0.4-4.3,0.9-5.2,1.5h-0.9c-0.5,0-0.9-0.4-0.9-0.9l4.3-3.7
	c-4.3-0.9-6.1-1.9-6.1-1.9l-0.9,0.4h-4.8c-2.4,0-4.3,3.3-6.1,9.6l-5.2,6.1h-0.9c-5.7-4.3-10-6.1-12.4-6.1c-4.3,4.3-8.1,6.6-11.8,7.2
	c13.3-10.5,19.9-17.7,19.9-21.4c-0.5,0-4.3,2.4-11.4,7.6c-1.5-0.4-1.9-0.9-1.9-1.5c5.2-5.7,7.6-9.6,7.6-12.4h0.9v-0.9h-0.9
	c-1.5,1.9-4.3,4.8-10,9c0,0.4-0.5,0.9-1.5,1.5h-0.4l-1.9-1.5c0-0.4,4.3-5.7,13.3-14.7l5.2-6.1v-0.4l-3.7,0.4h-1.9
	c-0.5,0-0.9-0.4-1.5-1.5v-0.8c10.9-2.8,16.6-5.2,16.6-7.2c0.9,0,2.8-1.9,5.7-5.2c0-0.4-0.4-0.9-0.9-0.9h-2.4c-0.9,0-1.9,0-2.8,0.4
	l-2.8-0.4h-0.9l-9,4.3c-3.7,2.8-7.2,7.6-8.5,14.2c-1.5,5.2-2.8,7.6-3.7,7.6h-0.5c-1.5-1.9-3.3-2.8-5.2-2.8v-1
	c1.9-11.8,5.7-21.9,12.9-30c3.7-3.3,6.1-5.2,7.2-6.6c-0.9,0-2.4-0.4-5.2-0.9l-0.9,0.4c-0.9-0.4-2.4-0.9-3.7-0.9v-1l2.8-0.9v0.4
	l0.9-0.4h2.8C1381.8,480,1385.5,480.9,1387.5,483.3z M1381.3,528.1l-1.5,3.7h0.9c1.5-0.9,2.4-1.5,3.7-1.5c0,0.4,0.4,0.9,1.5,1.5
	c0,3.7-2.8,8.1-8.5,12.9l-1.5,1.9c1.9,0,4.3,0.4,7.2,0.9c5.2-5.7,7.6-10.9,7.6-16.2c0-1.9-2.8-3.7-9-5.7h-3.7v0.4
	C1378.9,526.2,1379.8,526.6,1381.3,528.1z M1479,495.3v1.9c-3.3,2.4-6.6,5.7-10.9,10h-1.9v1.5c1.5,0,2.8,0.4,3.7,1.5h8.1
	c0.4,0,1.5,0.4,1.9,1.9v0.4c-6.6,3.3-10,6.6-10.5,10c-2.4,4.3-3.3,7.2-3.3,7.6c2.8-2.8,5.2-4.3,7.2-4.3l3.7,5.2l-1.9,10.5l3.7,0.4
	c7.6,0,17.1-3.7,28-11.8c0-5.2-2.8-15.3-8.1-30l0.9-0.4c3.7,8.1,8.1,19.5,13.8,33.9c-15.3,9.6-26.7,14.2-33.3,14.2h-2.4
	c-4.8-2.4-8.1-4.8-8.5-7.6c0-0.4,0-0.9-0.4-1.9c0.4-0.9,0.9-2.4,0.9-5.2h-0.9c-5.2,7.6-9.6,13.3-12.4,16.6h-1.5
	c-0.5,0-1.9-1.5-4.3-4.3l8.5-19.5c-8.5,7.2-14.2,10.9-17.7,11.4l-3.3-4.3c14.2-10.9,24.3-21.4,30-31.5V501h-0.9
	c-1.5,1.5-6.1,2.4-14.2,2.8c-1.5,0-3.3-1.5-5.7-4.3V499h4.3c2.4,0,10-2.4,21.9-7.2h1.5C1476.1,491.8,1477,492.9,1479,495.3z
	 M1465.6,510.4c-2.4,0.9-6.1,5.2-11.4,12.9c-1.5,1.5-2.4,1.9-3.3,1.9v0.9C1460.8,522.4,1465.6,517.2,1465.6,510.4z M1551,499.9
	L1551,499.9c-1.9,7.6-2.8,15.3-2.8,22.3h0.9c8.5-2.4,12.9-5.2,12.9-9l2.8-13.3c-0.9-2.4-0.9-4.3-0.9-4.8c0.9-0.4,1.5-0.4,1.9-0.4
	c2.4,0.4,4.3,2.8,6.6,7.6c8.5,4.3,13.8,7.2,15.7,9.6l-1.5,2.4l-2.8-0.4c-2.8,1.9-5.7,2.8-8.5,3.7c-1.9,0.4-2.8,0.9-2.8,1.9
	c0.9,0,1.9,0.4,3.7,1.9c-2.4,12.9-3.7,19.5-3.7,19.5l1.9,2.4c6.6,0,14.2-2.4,22.8-6.6c-0.4-6.6-1.9-14.2-3.7-23.4
	c1.5,0,2.8,3.7,4.3,10.9c-0.4,0-0.4,0-0.4,0.4c1.5,0,3.3,4.3,5.7,13.3c0,1.5-3.3,3.3-10,4.8c0,1.5-4.8,2.8-14.2,4.8h-0.9
	c-7.6-2.4-11.4-5.7-11.4-10v-0.4l3.3-14.2v-0.4h-0.4c0,0.4-1.9,3.3-5.2,8.1c-2.8,5.7-4.8,10.9-6.1,15.7l-1.9,0.9
	c-0.9,0-1.9-1.5-3.3-3.7c4.3-12.9,6.1-19.5,6.1-19.9h-0.4c-4.8,0.9-8.1,2.8-10,5.7h-0.5l0.5,2.8c0,0.4,0,0.4-0.5,0.4
	c0,0.4,0,0.9,0.5,0.9l-0.5,3.7v1.5c0,0.9,0,1.5,0.5,2.4c-0.5,3.3-0.9,5.7-0.9,7.6c0.5,0.9,0.5,1.5,0.5,1.9l-0.5,2.4l0.5,0.9
	c-0.5,1.5-1.5,2.4-1.9,2.4h-0.9c-5.7-4.3-8.5-9.6-8.5-15.7c0-0.4,0-2.4-0.5-5.7l-0.9,0.9h-0.9l-4.8-3.3v-1.5
	c3.7-6.1,5.7-10.9,5.7-13.8v-1.9l-0.5-2.8l0.9-0.4c2.8,0.9,4.3,2.4,5.2,4.3v1.9c0,1.5-1.5,4.8-4.8,10.9h0.5l5.7-2.4
	c0-3.7,0.9-12.9,2.4-27.1c-2.8-0.9-4.3-2.4-5.2-3.3c0-0.9,0.5-0.9,0.9-0.9C1547.1,497.1,1551,499,1551,499.9z M1540,538.6h0.9
	l0.5-2.8V532c-1.5,0.4-2.4,0.9-2.8,0.9v4.8C1538.5,538.2,1539,538.6,1540,538.6z M1570,518.5h-1.9c-2.8,1.5-3.7,3.3-3.7,5.7
	C1564.8,524.2,1566.7,522.4,1570,518.5z M1567.2,515.2c1.5,0,5.7-1.5,12.4-4.3V510l-8.5-5.2C1568.5,510.4,1567.2,514.3,1567.2,515.2
	z M1600,498.1v0.4c0,0.9-0.5,1.5-1.5,1.5c-2.4,0-6.6,0-11.8,0.4l-0.9-1.9c1.5-0.4,2.4-0.9,2.4-1.9v-0.4c-0.9,0-4.3-0.9-10-3.3v-1.9
	h0.5C1587.1,490.9,1594.3,493.3,1600,498.1z M1598.1,529.5L1598.1,529.5l0.9,0.4v-0.4H1598.1z"/>
</svg>
